<svg id="Layer_1" data-name="Layer 1" xmlns="http://www.w3.org/2000/svg" xmlns:xlink="http://www.w3.org/1999/xlink" viewBox="0 0 1125 2436.38"><defs><style>.cls-1{fill:url(#linear-gradient);}.cls-2{opacity:0.42;}.cls-3{fill:url(#New_Gradient_Swatch_1);}.cls-4{fill:url(#New_Gradient_Swatch_1-2);}.cls-5{fill:url(#New_Gradient_Swatch_1-3);}.cls-6,.cls-9{isolation:isolate;}.cls-7{fill:url(#linear-gradient-2);}.cls-8,.cls-9{font-size:217.51px;fill:#00227e;font-family:TrebuchetMS, Trebuchet MS;}</style><linearGradient id="linear-gradient" x1="-57.92" y1="1242.37" x2="-56.66" y2="1242.37" gradientTransform="matrix(0, 1920, -905.57, 0, 1125613, 111208.62)" gradientUnits="userSpaceOnUse"><stop offset="0" stop-color="#8ec5fc"/><stop offset="1" stop-color="#e0c3fc"/></linearGradient><linearGradient id="New_Gradient_Swatch_1" x1="194.98" y1="1972.86" x2="556.34" y2="1972.86" gradientUnits="userSpaceOnUse"><stop offset="0" stop-color="#4158d0"/><stop offset="0.52" stop-color="#c850c0"/><stop offset="0.7" stop-color="#dd80a1"/><stop offset="1" stop-color="#ffcc70"/></linearGradient><linearGradient id="New_Gradient_Swatch_1-2" x1="381.5" y1="1905.66" x2="742.84" y2="1905.66" xlink:href="#New_Gradient_Swatch_1"/><linearGradient id="New_Gradient_Swatch_1-3" x1="381.47" y1="1811.4" x2="929.35" y2="1811.4" xlink:href="#New_Gradient_Swatch_1"/><linearGradient id="linear-gradient-2" x1="303.37" y1="757.21" x2="925.02" y2="757.21" gradientTransform="matrix(1, 0, 0, 1, 0, 0)" xlink:href="#linear-gradient"/></defs><title>blog banner sm</title><path id="Photo-2" class="cls-1" d="M1125-.38V2436H0V-.38Z" transform="translate(0 0.38)"/><g class="cls-2"><path class="cls-3" d="M375.66,2241C276,2241,195,2160,195,2060.33V1757.17a52.45,52.45,0,0,1,104.9,0v303.17a75.78,75.78,0,1,0,110.21-67.55A52.47,52.47,0,0,1,458,1899.41a180.2,180.2,0,0,1,98.37,160.91C556.33,2160,475.3,2241,375.66,2241Z" transform="translate(0 0.38)"/><path class="cls-4" d="M690.39,2112.8a52.48,52.48,0,0,1-52.47-52.47c0-126.15-89.84-234.6-213.59-257.79a52.45,52.45,0,1,1,19.31-103.11c173.36,32.48,299.2,184.28,299.2,360.9A52.48,52.48,0,0,1,690.39,2112.8Z" transform="translate(0 0.38)"/><path class="cls-5" d="M876.9,2112.8a52.48,52.48,0,0,1-52.48-52.47c0-228-170.47-419.6-396.51-445.77A52.46,52.46,0,1,1,440,1510.33c279,32.31,489.37,268.76,489.37,550A52.46,52.46,0,0,1,876.9,2112.8Z" transform="translate(0 0.38)"/></g><g class="cls-6"><path class="cls-7" d="M361.09,822H318.61V666.38Q345.75,665,357.74,665q22,0,34.14,9.93T404,703.34q0,10.83-7.72,19.75t-17.07,11.15q17.67,4.46,25.76,14.76T413,777q0,20.51-14.38,32.71T361.09,822Zm-22.15-138.6v44.71q6.39.64,15.85.64,28.86,0,28.86-24.53,0-21.57-26.52-21.56Q347,682.63,338.94,683.37Zm0,61.17v59.37c7,.71,12.33,1.06,16.05,1.06q19.11,0,27.9-7.48t8.79-23.85q0-15.18-8.39-22.41t-28-7.22Z" transform="translate(0 0.38)"/><path class="cls-7" d="M436.39,822V666.38h20.32V802.85H524V822Z" transform="translate(0 0.38)"/><path class="cls-7" d="M534.65,742.84q0-33.76,16.21-56.5t43.75-22.73q31,0,47.5,20.93t16.51,58.3q0,38.34-16.56,60.06t-47.45,21.72q-28.15,0-44.06-22.94T534.65,742.84Zm21.34,0q0,26.77,10.11,44.72t28.51,17.94q20.82,0,31.75-16.46t10.92-46.2q0-60.11-42.67-60.11-18.92,0-28.76,16.15T556,742.84Z" transform="translate(0 0.38)"/><path class="cls-7" d="M785.14,677.21l-8.44,17.52q-15.35-11.9-30.07-11.89-23.39,0-36.89,17.2T696.22,745.6q0,27,13.26,43.44t36.13,16.46q16.26,0,26.32-10.19V758.88H751.3v-18h41v67.75q-8.13,7.23-22.66,11.63a97,97,0,0,1-28.25,4.41q-30.8,0-48.62-21.82t-17.84-58q0-36.12,19.56-58.58t52.79-22.46Q770.51,663.72,785.14,677.21Z" transform="translate(0 0.38)"/><text class="cls-8" transform="translate(303.37 822.35) scale(0.96 1)">BLOG</text></g><text class="cls-9" transform="translate(303.37 572.3) scale(0.96 1)">OUR</text></svg>