<?xml version="1.0" encoding="utf-8"?>
<!-- Generator: Adobe Illustrator 23.0.1, SVG Export Plug-In . SVG Version: 6.00 Build 0)  -->
<svg version="1.1" id="Layer_1" xmlns="http://www.w3.org/2000/svg" xmlns:xlink="http://www.w3.org/1999/xlink" x="0px" y="0px"
	 viewBox="0 0 1241.3 2208.5" style="enable-background:new 0 0 1241.3 2208.5;" xml:space="preserve">
<style type="text/css">
	.st0{fill:url(#Photo-2_1_);}
	.st1{opacity:0.12;}
	.st2{fill:url(#SVGID_1_);}
	.st3{fill:url(#SVGID_2_);}
	.st4{fill:url(#SVGID_3_);}
	.st5{fill:url(#SVGID_4_);}
	.st6{fill:url(#SVGID_5_);}
	.st7{fill:url(#SVGID_6_);}
	.st8{fill:url(#SVGID_7_);}
	.st9{fill:url(#SVGID_8_);}
	.st10{fill:url(#SVGID_9_);}
	.st11{fill:url(#SVGID_10_);}
	.st12{fill:url(#SVGID_11_);}
	.st13{fill:url(#SVGID_12_);}
	.st14{fill:url(#SVGID_13_);}
	.st15{fill:url(#SVGID_14_);}
	.st16{fill:url(#SVGID_15_);}
	.st17{fill:url(#SVGID_16_);}
	.st18{fill:url(#SVGID_17_);}
	.st19{fill:url(#SVGID_18_);}
	.st20{fill:url(#SVGID_19_);}
	.st21{fill:url(#SVGID_20_);}
	.st22{fill:url(#SVGID_21_);}
	.st23{fill:url(#SVGID_22_);}
	.st24{fill:url(#SVGID_23_);}
	.st25{fill:url(#SVGID_24_);}
	.st26{fill:url(#SVGID_25_);}
	.st27{fill:url(#SVGID_26_);}
	.st28{fill:url(#SVGID_27_);}
	.st29{fill:url(#SVGID_28_);}
	.st30{fill:url(#SVGID_29_);}
	.st31{fill:url(#SVGID_30_);}
	.st32{fill:url(#SVGID_31_);}
	.st33{fill:url(#SVGID_32_);}
	.st34{fill:url(#SVGID_33_);}
	.st35{fill:url(#SVGID_34_);}
	.st36{fill:url(#SVGID_35_);}
	.st37{fill:url(#SVGID_36_);}
	.st38{fill:url(#SVGID_37_);}
	.st39{fill:url(#SVGID_38_);}
	.st40{fill:url(#SVGID_39_);}
	.st41{fill:url(#SVGID_40_);}
	.st42{fill:url(#SVGID_41_);}
	.st43{fill-rule:evenodd;clip-rule:evenodd;fill:url(#SVGID_42_);}
	.st44{fill-rule:evenodd;clip-rule:evenodd;fill:url(#SVGID_43_);}
	.st45{fill-rule:evenodd;clip-rule:evenodd;fill:url(#SVGID_44_);}
	.st46{fill-rule:evenodd;clip-rule:evenodd;fill:url(#SVGID_45_);}
	.st47{fill:url(#SVGID_46_);}
	.st48{fill:url(#SVGID_47_);}
	.st49{fill:url(#SVGID_48_);}
	.st50{fill:url(#SVGID_49_);}
	.st51{fill:url(#SVGID_50_);}
	.st52{fill:url(#SVGID_51_);}
	.st53{fill:url(#SVGID_52_);}
	.st54{fill:url(#SVGID_53_);}
	.st55{fill:url(#SVGID_54_);}
	.st56{fill:url(#SVGID_55_);}
	.st57{fill:url(#SVGID_56_);}
	.st58{fill:#00227E;}
	.st59{font-family:'TrebuchetMS';}
	.st60{font-size:168.8592px;}
	.st61{font-family:'TrebuchetMS-Italic';}
	.st62{font-size:42.9969px;}
</style>
<title>welcome banner sm</title>
<linearGradient id="Photo-2_1_" gradientUnits="userSpaceOnUse" x1="-1383" y1="879.11" x2="825.5" y2="879.11" gradientTransform="matrix(0 1 1 0 -258.46 1383)">
	<stop  offset="0" style="stop-color:#8EC5FC"/>
	<stop  offset="1" style="stop-color:#E0C3FC"/>
</linearGradient>
<path id="Photo-2" class="st0" d="M1241.3,0v2208.5H0V0H1241.3z"/>
<g class="st1">
	
		<linearGradient id="SVGID_1_" gradientUnits="userSpaceOnUse" x1="447.3999" y1="815.3099" x2="491.9" y2="815.3099" gradientTransform="matrix(0 1 1 0 -258.46 1383)">
		<stop  offset="0" style="stop-color:#4158D0"/>
		<stop  offset="0.37" style="stop-color:#C850C0"/>
		<stop  offset="1" style="stop-color:#FFCC70"/>
	</linearGradient>
	<path class="st2" d="M493.1,1839.5l123.7,35.4l12.2-3.2c-4.7,0.3-9.5-0.2-14.1-1.3c-10.7-3-16.2-9.3-17.4-10.9
		c-14-0.2-28-2.2-41.5-6c-13.4-3.9-26.1-9.5-38-16.8c-6.8,2.1-14,2.1-20.7,0c-4.5-1.5-8.7-3.6-12.6-6.3L493.1,1839.5z"/>
	
		<linearGradient id="SVGID_2_" gradientUnits="userSpaceOnUse" x1="395.6901" y1="765.21" x2="452.8028" y2="765.21" gradientTransform="matrix(0 1 1 0 -258.46 1383)">
		<stop  offset="0" style="stop-color:#4158D0"/>
		<stop  offset="0.37" style="stop-color:#C850C0"/>
		<stop  offset="1" style="stop-color:#FFCC70"/>
	</linearGradient>
	<path class="st3" d="M498.7,1834.3c6.2,1.9,12.8,1.9,19-0.1l13.8-45.4l-35.7-10.2L482,1824C486.4,1829,492.2,1832.6,498.7,1834.3z"
		/>
	
		<linearGradient id="SVGID_3_" gradientUnits="userSpaceOnUse" x1="406.8101" y1="825.21" x2="474.11" y2="825.21" gradientTransform="matrix(0 1 1 0 -258.46 1383)">
		<stop  offset="0" style="stop-color:#4158D0"/>
		<stop  offset="0.37" style="stop-color:#C850C0"/>
		<stop  offset="1" style="stop-color:#FFCC70"/>
	</linearGradient>
	<path class="st4" d="M558.2,1851.4c13.2,3.8,26.9,5.8,40.6,5.8l13.7-45.1l-77.8-22.2L521,1835
		C532.5,1842.1,545.1,1847.7,558.2,1851.4z"/>
	
		<linearGradient id="SVGID_4_" gradientUnits="userSpaceOnUse" x1="429" y1="881.91" x2="485.976" y2="881.91" gradientTransform="matrix(0 1 1 0 -258.46 1383)">
		<stop  offset="0" style="stop-color:#4158D0"/>
		<stop  offset="0.37" style="stop-color:#C850C0"/>
		<stop  offset="1" style="stop-color:#FFCC70"/>
	</linearGradient>
	<path class="st5" d="M614.7,1867.5c6.4,1.9,13.2,2,19.7,0.1l13.8-45.4l-35.7-10.2l-13.8,45.4
		C602.9,1862.4,608.5,1865.9,614.7,1867.5z"/>
	
		<linearGradient id="SVGID_5_" gradientUnits="userSpaceOnUse" x1="374.61" y1="837.3099" x2="414.41" y2="837.3099" gradientTransform="matrix(0 1 1 0 -258.46 1382.99)">
		<stop  offset="0" style="stop-color:#4158D0"/>
		<stop  offset="0.37" style="stop-color:#C850C0"/>
		<stop  offset="1" style="stop-color:#FFCC70"/>
	</linearGradient>
	<polygon class="st6" points="540.2,1764.4 540.2,1764.4 615.5,1797.4 620.6,1796.4 617.5,1790.6 542.3,1757.6 537.1,1758.6 	"/>
	
		<linearGradient id="SVGID_6_" gradientUnits="userSpaceOnUse" x1="361.15" y1="841.41" x2="400.97" y2="841.41" gradientTransform="matrix(0 1 1 0 -258.46 1382.99)">
		<stop  offset="0" style="stop-color:#4158D0"/>
		<stop  offset="0.37" style="stop-color:#C850C0"/>
		<stop  offset="1" style="stop-color:#FFCC70"/>
	</linearGradient>
	<polygon class="st7" points="544.3,1751 544.3,1751 619.5,1784 624.7,1782.9 621.6,1777.1 546.4,1744.1 541.2,1745.2 	"/>
	
		<linearGradient id="SVGID_7_" gradientUnits="userSpaceOnUse" x1="347.71" y1="845.5099" x2="387.51" y2="845.5099" gradientTransform="matrix(0 1 1 0 -258.46 1382.99)">
		<stop  offset="0" style="stop-color:#4158D0"/>
		<stop  offset="0.37" style="stop-color:#C850C0"/>
		<stop  offset="1" style="stop-color:#FFCC70"/>
	</linearGradient>
	<polygon class="st8" points="548.4,1737.5 548.4,1737.5 623.6,1770.5 628.8,1769.5 625.7,1763.7 550.4,1730.7 545.3,1731.7 	"/>
	
		<linearGradient id="SVGID_8_" gradientUnits="userSpaceOnUse" x1="334.27" y1="849.5599" x2="374.0699" y2="849.5599" gradientTransform="matrix(0 1 1 0 -258.46 1382.99)">
		<stop  offset="0" style="stop-color:#4158D0"/>
		<stop  offset="0.37" style="stop-color:#C850C0"/>
		<stop  offset="1" style="stop-color:#FFCC70"/>
	</linearGradient>
	<polygon class="st9" points="552.4,1724.1 552.4,1724.1 627.7,1757.1 632.8,1756 629.8,1750.2 554.5,1717.3 549.4,1718.3 	"/>
	
		<linearGradient id="SVGID_9_" gradientUnits="userSpaceOnUse" x1="240.16" y1="878.11" x2="279.9601" y2="878.11" gradientTransform="matrix(0 1 1 0 -258.46 1382.99)">
		<stop  offset="0" style="stop-color:#4158D0"/>
		<stop  offset="0.37" style="stop-color:#C850C0"/>
		<stop  offset="1" style="stop-color:#FFCC70"/>
	</linearGradient>
	<polygon class="st10" points="581,1630 581,1630 656.2,1663 661.4,1661.9 658.3,1656.1 583,1623.2 577.9,1624.2 	"/>
	
		<linearGradient id="SVGID_10_" gradientUnits="userSpaceOnUse" x1="226.71" y1="882.16" x2="266.51" y2="882.16" gradientTransform="matrix(0 1 1 0 -258.46 1382.99)">
		<stop  offset="0" style="stop-color:#4158D0"/>
		<stop  offset="0.37" style="stop-color:#C850C0"/>
		<stop  offset="1" style="stop-color:#FFCC70"/>
	</linearGradient>
	<polygon class="st11" points="585,1616.6 585,1616.6 660.3,1649.5 665.4,1648.5 662.4,1642.7 587.1,1609.7 582,1610.7 	"/>
	
		<linearGradient id="SVGID_11_" gradientUnits="userSpaceOnUse" x1="213.27" y1="886.21" x2="253.0699" y2="886.21" gradientTransform="matrix(0 1 1 0 -258.46 1382.99)">
		<stop  offset="0" style="stop-color:#4158D0"/>
		<stop  offset="0.37" style="stop-color:#C850C0"/>
		<stop  offset="1" style="stop-color:#FFCC70"/>
	</linearGradient>
	<polygon class="st12" points="589.1,1603.1 589.1,1603.1 664.4,1636.1 669.5,1635.1 666.4,1629.2 591.2,1596.3 586,1597.3 	"/>
	
		<linearGradient id="SVGID_12_" gradientUnits="userSpaceOnUse" x1="199.8101" y1="890.3099" x2="239.61" y2="890.3099" gradientTransform="matrix(0 1 1 0 -258.46 1382.99)">
		<stop  offset="0" style="stop-color:#4158D0"/>
		<stop  offset="0.37" style="stop-color:#C850C0"/>
		<stop  offset="1" style="stop-color:#FFCC70"/>
	</linearGradient>
	<polygon class="st13" points="593.2,1589.7 593.2,1589.7 668.4,1622.6 673.6,1621.6 670.5,1615.8 595.3,1582.8 590.1,1583.8 	"/>
	
		<linearGradient id="SVGID_13_" gradientUnits="userSpaceOnUse" x1="386.05" y1="830.71" x2="424.98" y2="830.71" gradientTransform="matrix(0 1 1 0 -258.46 1382.99)">
		<stop  offset="0" style="stop-color:#4158D0"/>
		<stop  offset="0.37" style="stop-color:#C850C0"/>
		<stop  offset="1" style="stop-color:#FFCC70"/>
	</linearGradient>
	<polygon class="st14" points="535.4,1775.8 532.4,1785.7 610.2,1808 612.1,1801.7 537.5,1769 532.4,1770 	"/>
	
		<linearGradient id="SVGID_14_" gradientUnits="userSpaceOnUse" x1="183.8101" y1="893.6599" x2="228.71" y2="893.6599" gradientTransform="matrix(0 1 1 0 -258.46 1382.99)">
		<stop  offset="0" style="stop-color:#4158D0"/>
		<stop  offset="0.37" style="stop-color:#C850C0"/>
		<stop  offset="1" style="stop-color:#FFCC70"/>
	</linearGradient>
	<polygon class="st15" points="669.7,1611.7 674.8,1610.6 671.9,1604.6 675,1594.2 675.1,1593.9 674.7,1593.8 661.9,1579.9 
		616.2,1566.8 597.7,1571.8 597.3,1571.7 597.2,1571.9 596.7,1573.5 595.3,1578.4 	"/>
	
		<linearGradient id="SVGID_15_" gradientUnits="userSpaceOnUse" x1="315.6" y1="855.01" x2="361.7" y2="855.01" gradientTransform="matrix(0 1 1 0 -258.46 1383)">
		<stop  offset="0" style="stop-color:#4158D0"/>
		<stop  offset="0.37" style="stop-color:#C850C0"/>
		<stop  offset="1" style="stop-color:#FFCC70"/>
	</linearGradient>
	<path class="st16" d="M532.9,1707.2l37.1,10.6l61.4,26.9l5.2-1l-3.1-5.8l-22-8.2l45.4,13l12.1-2.7c-4.7,0.1-9.5-0.4-14.1-1.6
		c-10.7-3-16.3-9-17.6-10.4c-14-0.5-27.9-2.6-41.5-6.5c-13.4-3.8-26.2-9.3-38.3-16.3c-1.9,0.6-10,2.6-20.7-0.5
		c-4.5-1.4-8.8-3.5-12.7-6.1L532.9,1707.2z"/>
	
		<linearGradient id="SVGID_16_" gradientUnits="userSpaceOnUse" x1="252.0001" y1="871.76" x2="302.2001" y2="871.76" gradientTransform="matrix(0 1 1 0 -258.46 1383)">
		<stop  offset="0" style="stop-color:#4158D0"/>
		<stop  offset="0.37" style="stop-color:#C850C0"/>
		<stop  offset="1" style="stop-color:#FFCC70"/>
	</linearGradient>
	<path class="st17" d="M540.9,1643.8c4.7-0.1,9.5,0.4,14.1,1.6c10.7,3.1,16.3,9,17.6,10.4c28.1,0.8,55.5,8.7,79.7,22.8
		c1.9-0.6,10-2.6,20.7,0.5c4.5,1.4,8.8,3.5,12.7,6.1l-8.7-8.6l-20.9-6l-1.4-2.6l-75.2-33l-5.2,1l3.1,5.8l0,0l40.8,17.9L553,1641
		L540.9,1643.8z"/>
	
		<linearGradient id="SVGID_17_" gradientUnits="userSpaceOnUse" x1="264.8456" y1="804.96" x2="319.8926" y2="804.96" gradientTransform="matrix(0 1 1 0 -258.46 1383)">
		<stop  offset="0" style="stop-color:#4158D0"/>
		<stop  offset="0.37" style="stop-color:#C850C0"/>
		<stop  offset="1" style="stop-color:#FFCC70"/>
	</linearGradient>
	<path class="st18" d="M538.6,1701.3c6.2,1.9,12.9,2.1,19.2,0.5l13-42.8c-4.5-4.7-10.2-8-16.4-9.7c-6.2-1.9-12.9-2.1-19.2-0.5
		l-13,42.8C526.7,1696.3,532.4,1699.7,538.6,1701.3z"/>
	
		<linearGradient id="SVGID_18_" gradientUnits="userSpaceOnUse" x1="275.7999" y1="861.6599" x2="341.3999" y2="861.6599" gradientTransform="matrix(0 1 1 0 -258.46 1383)">
		<stop  offset="0" style="stop-color:#4158D0"/>
		<stop  offset="0.37" style="stop-color:#C850C0"/>
		<stop  offset="1" style="stop-color:#FFCC70"/>
	</linearGradient>
	<path class="st19" d="M595,1718.2c13.2,3.8,26.8,5.9,40.5,6.2l13.3-43.4c-11.7-7-24.4-12.4-37.5-16c-13.1-3.8-26.7-5.9-40.4-6.2
		l-13.3,43.4C569.3,1709.1,581.9,1714.5,595,1718.2z"/>
	
		<linearGradient id="SVGID_19_" gradientUnits="userSpaceOnUse" x1="298.2057" y1="921.6599" x2="353.2524" y2="921.6599" gradientTransform="matrix(0 1 1 0 -258.46 1383)">
		<stop  offset="0" style="stop-color:#4158D0"/>
		<stop  offset="0.37" style="stop-color:#C850C0"/>
		<stop  offset="1" style="stop-color:#FFCC70"/>
	</linearGradient>
	<path class="st20" d="M655.3,1734.7c6.2,1.9,12.9,2.1,19.2,0.5l13-42.8c-1.4-1.5-6.7-6.9-16.4-9.7c-6.2-1.9-12.9-2.1-19.2-0.5
		l-13,42.8C643.4,1729.7,649.1,1733,655.3,1734.7z"/>
	
		<linearGradient id="SVGID_20_" gradientUnits="userSpaceOnUse" x1="-352.8" y1="860.7639" x2="132.3997" y2="860.7639" gradientTransform="matrix(0 1 1 0 -258.46 1383)">
		<stop  offset="0" style="stop-color:#4158D0"/>
		<stop  offset="0.37" style="stop-color:#C850C0"/>
		<stop  offset="1" style="stop-color:#FFCC70"/>
	</linearGradient>
	<path class="st21" d="M550.9,1030.2l-2.9,2l-11,61.6l-23.3-3.9c-4.6-0.8-9.3,0.3-13.1,2.9c-7.7,5.2-9.8,15.7-4.6,23.4
		c2.6,3.9,6.8,6.6,11.5,7.3h0.2l6.8,1.2l-7.5,42.4l2,2.8l42.5,7.2l-9.7,54l-7.8,1c-2.1,0.3-4,1-5.8,2.2c-4,2.7-6.1,7.4-5.5,12.2
		c1.1,6.9,7.4,11.7,14.3,11l-1.8,10l-7.8,1c-2.1,0.3-4.1,1-5.8,2.2c-5.8,3.9-7.3,11.8-3.4,17.5c0.8,1.2,1.8,2.2,2.9,3.1
		c2.7,2,6,2.9,9.3,2.5l-1.8,10l-7.8,1c-2.1,0.3-4,1-5.8,2.2c-5.8,3.8-7.3,11.6-3.5,17.4c0.8,1.3,1.9,2.3,3.1,3.2
		c2.7,2,6,2.9,9.3,2.5l-1.8,10.1l-7.8,1c-2.1,0.3-4,1-5.8,2.2c-5.8,3.8-7.4,11.6-3.5,17.3c0.8,1.3,1.9,2.4,3.2,3.3
		c2.7,2,5.9,2.9,9.2,2.6l-1.8,10l-7.8,1c-2.1,0.3-4.1,1-5.8,2.2c-4,2.7-6.1,7.4-5.4,12.1c0.5,3.4,2.3,6.4,5,8.4s6,2.9,9.3,2.5
		l-11,62.5l0.4,1.6l29.9,47.9l3.7,0.6l44.8-35.3l0.9-1.5l15.5-86.7l6.5-0.9c2.1-0.3,4.1-1,5.8-2.2c4-2.7,6.1-7.4,5.4-12.2
		c-1-6.4-6.5-11.1-13-11.1l1.8-10.2l6.4-0.9c2.1-0.3,4.1-1,5.8-2.2c4-2.7,6.1-7.4,5.5-12.2c-1-6.4-6.5-11.1-13-11l1.8-10.2l6.5-0.8
		c2.1-0.3,4.1-1,5.8-2.2c4-2.7,6.1-7.4,5.5-12.2c-1-6.4-6.5-11.1-13-11l1.8-10.2l6.4-0.8c2.1-0.3,4.1-1.1,5.8-2.2
		c4-2.7,6.1-7.4,5.4-12.1c-1-6.4-6.5-11.1-13-11.1l1.8-10.2l6.4-0.9c2.1-0.3,4.1-1,5.8-2.2c4-2.7,6.1-7.4,5.5-12.2
		c-1-6.4-6.5-11.1-13-11l5.3-29.6l42.5,7.1l2.9-2l7.6-42.3l6.8,1.2c4.6,0.8,9.3-0.3,13.1-2.9c3.8-2.5,6.4-6.5,7.2-11
		s-0.2-9.1-2.9-12.8c-2.7-3.8-6.8-6.3-11.4-7l-23.3-3.9l11-61.6l-2.1-2.8L550.9,1030.2z M609.3,1379.7c0.4,3-1,5.9-3.4,7.5
		c-1.1,0.7-2.3,1.2-3.6,1.4l-90.8,12c-2.1,0.3-4.3-0.3-6-1.6c-1.7-1.3-2.8-3.1-3.1-5.2c-0.4-3,0.9-5.9,3.4-7.5
		c1.1-0.7,2.3-1.2,3.6-1.4l90.8-11.9C604.5,1372.3,608.6,1375.3,609.3,1379.7L609.3,1379.7z M615.9,1343c0.4,3-0.9,5.9-3.4,7.6
		c-1.1,0.7-2.3,1.2-3.6,1.3l-90.8,12c-2.1,0.2-4.3-0.3-6-1.5c-3.5-2.6-4.3-7.5-1.7-11c1.3-1.8,3.3-2.9,5.5-3.2l0,0l90.8-12
		C611.1,1335.6,615.2,1338.6,615.9,1343L615.9,1343z M622.4,1306.3c0.4,2.9-0.9,5.9-3.3,7.5c-1.1,0.7-2.3,1.2-3.6,1.4l-90.8,11.9
		c-2.1,0.3-4.3-0.2-6.1-1.5c-3.5-2.5-4.3-7.3-1.8-10.8l0,0c0.6-0.8,1.3-1.5,2.1-2c1.1-0.7,2.3-1.2,3.6-1.4l90.8-12
		C617.7,1298.8,621.8,1301.8,622.4,1306.3L622.4,1306.3z M629,1269.6c0.4,2.9-0.9,5.9-3.4,7.5c-1.1,0.7-2.3,1.2-3.6,1.4l-90.8,12
		c-2.1,0.3-4.3-0.3-6-1.5c-1.7-1.3-2.8-3.1-3.2-5.3c-0.4-2.9,0.9-5.9,3.4-7.5c1.1-0.7,2.3-1.2,3.6-1.4l90.8-12
		C624.3,1262.1,628.3,1265.2,629,1269.6L629,1269.6z M635.6,1232.8c0.4,3-0.9,5.9-3.4,7.6c-1.1,0.7-2.3,1.2-3.6,1.3l-90.8,12
		c-4.4,0.6-8.5-2.4-9.2-6.8c-0.4-3,0.9-5.9,3.4-7.6c1.1-0.7,2.3-1.2,3.6-1.3l90.8-12C630.8,1225.4,634.9,1228.4,635.6,1232.8
		L635.6,1232.8z M698.5,1125.7c3.3,0.5,6.2,2.3,8.1,5c1.9,2.6,2.7,5.9,2.2,9.2c-0.6,3.2-2.5,6.1-5.2,7.9c-2.7,1.9-6.1,2.6-9.4,2
		l-9.4-1.6l-166.2-28l-9.4-1.6c-6.7-1-11.3-7.3-10.3-14l0,0v-0.2c0.6-3.2,2.5-6.1,5.2-7.9c2.8-1.9,6.1-2.6,9.4-2.1L698.5,1125.7z"/>
	
		<linearGradient id="SVGID_21_" gradientUnits="userSpaceOnUse" x1="166.2001" y1="1370.4368" x2="357.2216" y2="1370.4368" gradientTransform="matrix(0 1 1 0 -258.46 1383)">
		<stop  offset="0" style="stop-color:#4158D0"/>
		<stop  offset="0.37" style="stop-color:#C850C0"/>
		<stop  offset="1" style="stop-color:#FFCC70"/>
	</linearGradient>
	<path class="st22" d="M989.1,1702.6c16.8,35,60.4,47.8,94.1,28.9l9.6-5.4l-16.7-28.1l164.8-92.6l-33.5-56.2l-164.8,92.6l-16.7-28.1
		l-8.3,4.7C987.5,1635.5,974.4,1672,989.1,1702.6z M1197.3,1577.5l11.7,19.7l-20.3,11.4l-11.7-19.7L1197.3,1577.5z M1159.7,1598.6
		l11.7,19.7l-20.2,11.4l-11.7-19.7L1159.7,1598.6z M1122.2,1619.8l11.7,19.7l-20.3,11.4l-11.7-19.7L1122.2,1619.8z M1081.7,1642.5
		l11.7,19.7l-28.9,16.2l-11.7-19.7L1081.7,1642.5z M1063.9,1716.3c-15.6,4-32.7-1-44.4-12.8l13.1-7.4l-11.7-19.7l-13.1,7.4
		c-4.7-15.8-0.7-32.6,10.7-43.7L1063.9,1716.3z"/>
	
		<linearGradient id="SVGID_22_" gradientUnits="userSpaceOnUse" x1="440.7985" y1="1057.4037" x2="654.3015" y2="1057.4037" gradientTransform="matrix(0 1 1 0 -258.46 1383)">
		<stop  offset="0" style="stop-color:#4158D0"/>
		<stop  offset="0.37" style="stop-color:#C850C0"/>
		<stop  offset="1" style="stop-color:#FFCC70"/>
	</linearGradient>
	<path class="st23" d="M918.5,1918l-48.5-81.7c-4.7-7.8-13.2-12.6-22.4-12.5h-97.2c-9.1,0-17.6,4.7-22.4,12.5l-48.6,81.7
		c-4.6,7.7-4.6,17.4,0,25.1l48.6,81.7c4.7,7.8,13.2,12.6,22.4,12.5h97.1c9.2,0,17.7-4.7,22.4-12.6l48.5-81.7
		C923.1,1935.3,923.1,1925.7,918.5,1918z M743,1929.1c0-30.1,25.1-54.5,56.1-54.5s56.1,24.4,56.1,54.5s-25.1,54.4-56.1,54.4
		S743,1959.2,743,1929.1z"/>
	
		<linearGradient id="SVGID_23_" gradientUnits="userSpaceOnUse" x1="425.71" y1="1368.0599" x2="648.8101" y2="1368.0599" gradientTransform="matrix(0 1 1 0 -258.46 1382.99)">
		<stop  offset="0" style="stop-color:#4158D0"/>
		<stop  offset="0.37" style="stop-color:#C850C0"/>
		<stop  offset="1" style="stop-color:#FFCC70"/>
	</linearGradient>
	<polygon class="st24" points="1006.4,1826.1 999.5,1808.7 1017,1816.2 1219.7,2021.9 1209,2031.8 	"/>
	
		<linearGradient id="SVGID_24_" gradientUnits="userSpaceOnUse" x1="631.51" y1="1474.01" x2="663.84" y2="1474.01" gradientTransform="matrix(0 1 1 0 -258.46 1382.99)">
		<stop  offset="0" style="stop-color:#4158D0"/>
		<stop  offset="0.37" style="stop-color:#C850C0"/>
		<stop  offset="1" style="stop-color:#FFCC70"/>
	</linearGradient>
	<polygon class="st25" points="1232.7,2019.7 1203.5,2046.9 1198.4,2041.7 1227.6,2014.5 	"/>
	
		<linearGradient id="SVGID_25_" gradientUnits="userSpaceOnUse" x1="402.6" y1="674.46" x2="687.5" y2="674.46" gradientTransform="matrix(0 1 1 0 -258.46 1383)">
		<stop  offset="0" style="stop-color:#4158D0"/>
		<stop  offset="0.37" style="stop-color:#C850C0"/>
		<stop  offset="1" style="stop-color:#FFCC70"/>
	</linearGradient>
	<path class="st26" d="M461.8,2070.5l91.7-89v-89h-18.3c0,29.6-24.6,53.4-55,53.4l-165-160.3l-36.7,35.6l165,160.2l-36.7,35.6
		L461.8,2070.5z"/>
	
		<linearGradient id="SVGID_26_" gradientUnits="userSpaceOnUse" x1="170.1" y1="394.86" x2="381.3" y2="394.86" gradientTransform="matrix(0 1 1 0 -258.46 1383)">
		<stop  offset="0" style="stop-color:#4158D0"/>
		<stop  offset="0.37" style="stop-color:#C850C0"/>
		<stop  offset="1" style="stop-color:#FFCC70"/>
	</linearGradient>
	<path class="st27" d="M230.5,1711.5v-105.6l-94.1-52.8l-94.1,52.8v105.6l94.1,52.8L230.5,1711.5z M91.4,1658.2
		c0-24.4,20.4-44.2,45.5-44.2s45.5,19.8,45.5,44.2s-20.4,44.3-45.5,44.3S91.4,1682.6,91.4,1658.2z"/>
	
		<linearGradient id="SVGID_27_" gradientUnits="userSpaceOnUse" x1="-495" y1="480.81" x2="-180.5001" y2="480.81" gradientTransform="matrix(0 1 1 0 -258.46 1383)">
		<stop  offset="0" style="stop-color:#4158D0"/>
		<stop  offset="0.37" style="stop-color:#C850C0"/>
		<stop  offset="1" style="stop-color:#FFCC70"/>
	</linearGradient>
	<path class="st28" d="M362.6,1123.8V966.6L222.3,888L82.1,966.6v157.2l140.2,78.7L362.6,1123.8z M144.3,1045.2
		c0-41.9,35-75.9,78.2-75.9s78.2,34,78.2,75.9s-35,75.9-78.2,75.9S144.3,1087.1,144.3,1045.2z"/>
	
		<linearGradient id="SVGID_28_" gradientUnits="userSpaceOnUse" x1="66.65" y1="1152.2689" x2="84.1377" y2="1152.2689" gradientTransform="matrix(0 1 1 0 -258.46 1383)">
		<stop  offset="0" style="stop-color:#4158D0"/>
		<stop  offset="0.37" style="stop-color:#C850C0"/>
		<stop  offset="1" style="stop-color:#FFCC70"/>
	</linearGradient>
	<path class="st29" d="M895.7,1449.7l11.1,16.2c-13.4,1.7-25,1.8-25.9-0.2C880,1463.8,886.6,1457.1,895.7,1449.7z"/>
	
		<linearGradient id="SVGID_29_" gradientUnits="userSpaceOnUse" x1="53.9301" y1="1175.4099" x2="80.9601" y2="1175.4099" gradientTransform="matrix(0 1 1 0 -258.46 1383)">
		<stop  offset="0" style="stop-color:#4158D0"/>
		<stop  offset="0.37" style="stop-color:#C850C0"/>
		<stop  offset="1" style="stop-color:#FFCC70"/>
	</linearGradient>
	<path class="st30" d="M929.6,1461.5c-3.5,1-7.3,1.8-11,2.5l-14.3-21c2.8-2.1,5.7-4.2,8.5-6.1L929.6,1461.5z"/>
	
		<linearGradient id="SVGID_30_" gradientUnits="userSpaceOnUse" x1="43.5001" y1="1194.61" x2="74.8" y2="1194.61" gradientTransform="matrix(0 1 1 0 -258.46 1383)">
		<stop  offset="0" style="stop-color:#4158D0"/>
		<stop  offset="0.37" style="stop-color:#C850C0"/>
		<stop  offset="1" style="stop-color:#FFCC70"/>
	</linearGradient>
	<path class="st31" d="M950.3,1453.8l-10,4l-18.3-26.7l2.4-1.4l7.2-3.2L950.3,1453.8z"/>
	
		<linearGradient id="SVGID_31_" gradientUnits="userSpaceOnUse" x1="34.61" y1="1214.5599" x2="66.71" y2="1214.5599" gradientTransform="matrix(0 1 1 0 -258.46 1382.99)">
		<stop  offset="0" style="stop-color:#4158D0"/>
		<stop  offset="0.37" style="stop-color:#C850C0"/>
		<stop  offset="1" style="stop-color:#FFCC70"/>
	</linearGradient>
	<polygon class="st32" points="970.6,1445.8 960.6,1449.7 941.6,1422 951.3,1417.6 	"/>
	
		<linearGradient id="SVGID_32_" gradientUnits="userSpaceOnUse" x1="25.71" y1="1234.5599" x2="58.61" y2="1234.5599" gradientTransform="matrix(0 1 1 0 -258.46 1382.99)">
		<stop  offset="0" style="stop-color:#4158D0"/>
		<stop  offset="0.37" style="stop-color:#C850C0"/>
		<stop  offset="1" style="stop-color:#FFCC70"/>
	</linearGradient>
	<polygon class="st33" points="990.9,1437.6 980.9,1441.6 961.3,1413.1 971.1,1408.7 	"/>
	
		<linearGradient id="SVGID_33_" gradientUnits="userSpaceOnUse" x1="16.8101" y1="1254.61" x2="50.5601" y2="1254.61" gradientTransform="matrix(0 1 1 0 -258.46 1382.99)">
		<stop  offset="0" style="stop-color:#4158D0"/>
		<stop  offset="0.37" style="stop-color:#C850C0"/>
		<stop  offset="1" style="stop-color:#FFCC70"/>
	</linearGradient>
	<polygon class="st34" points="1011.2,1429.5 1001.3,1433.5 981.1,1404.2 990.8,1399.8 	"/>
	
		<linearGradient id="SVGID_34_" gradientUnits="userSpaceOnUse" x1="7.8101" y1="1274.61" x2="42.41" y2="1274.61" gradientTransform="matrix(0 1 1 0 -258.46 1382.99)">
		<stop  offset="0" style="stop-color:#4158D0"/>
		<stop  offset="0.37" style="stop-color:#C850C0"/>
		<stop  offset="1" style="stop-color:#FFCC70"/>
	</linearGradient>
	<polygon class="st35" points="1031.5,1421.4 1021.5,1425.4 1000.8,1395.3 1010.5,1390.8 	"/>
	
		<linearGradient id="SVGID_35_" gradientUnits="userSpaceOnUse" x1="-1.09" y1="1294.71" x2="34.35" y2="1294.71" gradientTransform="matrix(0 1 1 0 -258.46 1382.99)">
		<stop  offset="0" style="stop-color:#4158D0"/>
		<stop  offset="0.37" style="stop-color:#C850C0"/>
		<stop  offset="1" style="stop-color:#FFCC70"/>
	</linearGradient>
	<polygon class="st36" points="1051.9,1413.3 1041.9,1417.3 1020.6,1386.3 1030.3,1381.9 	"/>
	
		<linearGradient id="SVGID_36_" gradientUnits="userSpaceOnUse" x1="-9.99" y1="1314.71" x2="26.25" y2="1314.71" gradientTransform="matrix(0 1 1 0 -258.46 1382.99)">
		<stop  offset="0" style="stop-color:#4158D0"/>
		<stop  offset="0.37" style="stop-color:#C850C0"/>
		<stop  offset="1" style="stop-color:#FFCC70"/>
	</linearGradient>
	<polygon class="st37" points="1072.2,1405.3 1062.2,1409.2 1040.3,1377.4 1050.1,1373 	"/>
	
		<linearGradient id="SVGID_37_" gradientUnits="userSpaceOnUse" x1="-18.89" y1="1334.76" x2="18.17" y2="1334.76" gradientTransform="matrix(0 1 1 0 -258.46 1382.99)">
		<stop  offset="0" style="stop-color:#4158D0"/>
		<stop  offset="0.37" style="stop-color:#C850C0"/>
		<stop  offset="1" style="stop-color:#FFCC70"/>
	</linearGradient>
	<polygon class="st38" points="1092.5,1397.2 1082.5,1401.1 1060.1,1368.5 1069.8,1364.1 	"/>
	
		<linearGradient id="SVGID_38_" gradientUnits="userSpaceOnUse" x1="-27.79" y1="1354.8101" x2="10.0499" y2="1354.8101" gradientTransform="matrix(0 1 1 0 -258.46 1382.99)">
		<stop  offset="0" style="stop-color:#4158D0"/>
		<stop  offset="0.37" style="stop-color:#C850C0"/>
		<stop  offset="1" style="stop-color:#FFCC70"/>
	</linearGradient>
	<polygon class="st39" points="1112.8,1389.1 1102.8,1393 1079.9,1359.6 1089.6,1355.2 	"/>
	
		<linearGradient id="SVGID_39_" gradientUnits="userSpaceOnUse" x1="-36.73" y1="1374.8099" x2="1.92" y2="1374.8099" gradientTransform="matrix(0 1 1 0 -258.46 1382.99)">
		<stop  offset="0" style="stop-color:#4158D0"/>
		<stop  offset="0.37" style="stop-color:#C850C0"/>
		<stop  offset="1" style="stop-color:#FFCC70"/>
	</linearGradient>
	<polygon class="st40" points="1133.1,1380.9 1123.1,1384.9 1099.6,1350.7 1109.3,1346.3 	"/>
	
		<linearGradient id="SVGID_40_" gradientUnits="userSpaceOnUse" x1="-98.7741" y1="1428.0605" x2="-0.6092" y2="1428.0605" gradientTransform="matrix(0 1 1 0 -258.46 1383)">
		<stop  offset="0" style="stop-color:#4158D0"/>
		<stop  offset="0.37" style="stop-color:#C850C0"/>
		<stop  offset="1" style="stop-color:#FFCC70"/>
	</linearGradient>
	<path class="st41" d="M1207.6,1379l-46-9.4l-16.6,6.7l-24-35.1l23.2-10.5l24.1-39.2c-2.4-5.8,7.4-10.6,10-4.3l39.4,87.5
		C1220.5,1381.7,1210.8,1385.6,1207.6,1379z"/>
	
		<linearGradient id="SVGID_41_" gradientUnits="userSpaceOnUse" x1="-381.21" y1="1145.3099" x2="34.3004" y2="1145.3099" gradientTransform="matrix(0 1 1 0 -258.46 1383)">
		<stop  offset="0" style="stop-color:#4158D0"/>
		<stop  offset="0.37" style="stop-color:#C850C0"/>
		<stop  offset="1" style="stop-color:#FFCC70"/>
	</linearGradient>
	<path class="st42" d="M916.6,1045c-2.2,2.2-2.3,5.7-0.2,8l0.2,0.2l25.7,24.9l0,0c1.6,1.6,1.6,4.1,0,5.7l0,0l0,0l-74.2,72
		c-1.3,1.3-2,3.2-1.7,5l1.9,10.9l-8-2.1c-1.1-0.3-2.2,0-3,0.9c-0.8,0.8-1,2-0.5,3l3.8,9.2l-10.9,10.6l-10.7-2.8
		c-1.1-0.3-2.2,0-3,0.9c-0.8,0.8-1,2-0.5,3l3.8,9.2l-10.9,10.6l-10.7-2.8c-1.1-0.3-2.2,0-3,0.9c-0.5,0.5-0.8,1.2-0.8,1.9
		c0,0.4,0.1,0.7,0.2,1.1l3.8,9.2l-10.9,10.6l-10.7-2.8c-1.1-0.3-2.2,0-3,0.9c-0.7,0.8-1,2-0.5,3l3.8,9.2l-10.9,10.6l-10.7-2.8
		c-1.1-0.3-2.2,0-3,0.9c-0.5,0.5-0.8,1.3-0.8,2c0,0.4,0.1,0.7,0.2,1.1l3.8,9.2l-10.9,10.6l-10.7-2.8c-1.1-0.3-2.2,0-3,0.9
		c-0.5,0.5-0.7,1.2-0.8,1.9c0,0.4,0.1,0.7,0.2,1.1l3.8,9.2l-10.9,10.6l-10.7-2.9c-1.1-0.3-2.2,0-3,0.9c-0.7,0.8-0.9,2-0.5,3l3.8,9.2
		l-10.9,10.6l-10.7-2.8c-1.1-0.3-2.2,0.1-3,0.9c-0.7,0.8-0.9,2-0.5,3l5.3,13l-4.8,9.4l-5.6-1.4c-1.1-0.3-2.3,0.1-3,0.9
		c-0.5,0.5-0.7,1.2-0.7,1.9c0,0.4,0.1,0.7,0.2,1.1l3.5,8.5l-6.7,13.2l-5.1-0.7c-1.1-0.2-2.2,0.3-2.8,1.2c-0.4,0.5-0.6,1.1-0.6,1.7
		c0,0.4,0.1,0.9,0.3,1.3l3.2,6.3l-17.3,34.2c-0.4,0.8-0.6,1.7-0.6,2.6c0,1.5,0.6,3,1.7,4.1c1.8,1.8,4.5,2.2,6.8,1.1l40-19.1
		l10.8,2.9c1.1,0.3,2.2,0,3-0.9c0.7-0.8,0.9-2,0.5-3l-2.1-4.8l13.9-6.7l13,4.2c1.1,0.3,2.2,0.1,3-0.7c0.8-0.8,1.1-1.9,0.7-3
		l-2.5-7.4l9.5-4.5c0.6-0.3,1.1-0.6,1.6-1.1l2.4-2.3l9.4,3.7c1,0.4,2.2,0.2,3.1-0.5c0.8-0.7,1.2-1.9,0.9-2.9l-2.9-10.4l10.9-10.6
		l9.4,3.7c1,0.4,2.2,0.2,3.1-0.5c0.8-0.7,1.2-1.8,0.9-2.9l-2.9-10.4l10.9-10.6l9.4,3.7c1,0.4,2.2,0.2,3.1-0.5
		c0.8-0.7,1.2-1.8,0.9-2.9l-2.9-10.4l10.9-10.6l9.4,3.7c1,0.4,2.2,0.2,3.1-0.5c0.8-0.7,1.2-1.8,0.9-2.9l-2.9-10.4l10.9-10.6l9.4,3.7
		c1,0.4,2.2,0.2,3.1-0.5c0.8-0.7,1.2-1.8,0.9-2.9l-2.9-10.4l10.9-10.6l9.4,3.7c1,0.4,2.2,0.2,3.1-0.5c0.8-0.7,1.2-1.9,0.9-2.9
		l-2.9-10.4l10.9-10.6l9.4,3.7c1,0.4,2.2,0.2,3.1-0.5c0.8-0.7,1.2-1.8,0.9-2.9l-2.9-10.4l9.2-9l14.1,2.3c1.9,0.3,3.8-0.3,5.2-1.6
		l74.1-72c1.6-1.6,4.2-1.6,5.8,0l25.7,24.9c2.3,2.3,6.1,2.3,8.4,0l42.8-41.5c1.1-1.1,1.7-2.5,1.8-4.1v-16.6c0-1.5-0.6-3-1.7-4.1
		l-114-110.8c-1.1-1.1-2.6-1.7-4.2-1.7h-17.2c-1.6,0-3.1,0.6-4.2,1.7L916.6,1045z M929.3,1047.5l33.4-32.4
		c19.4,4.5,23,23.4,23.6,28.5l-30.5,29.7L929.3,1047.5z M960,1077.4l30.3-29.4c10.4,2.8,25,12.1,37,23.7
		c12,11.6,21.6,25.8,24.4,35.9l-30.3,29.4l-13.3-13L960,1077.4z M708.2,1389.7l-16.7,8l7.4-14.6L708.2,1389.7z M734.6,1377l-9,4.3
		l-19.2-13.1l3.9-7.7L734.6,1377z M763.4,1363.2l-9.2,4.4l-35.6-23.4l3.5-6.8L763.4,1363.2z M785.2,1342.7l-7.1,6.9l-45.4-28.2
		l7.1-6.9L785.2,1342.7z M806.6,1322l-7.1,6.9l-45.4-28.2l7.1-6.9L806.6,1322z M828,1301.2l-7.1,6.9l-45.3-28.2l7.1-6.9L828,1301.2z
		 M849.4,1280.5l-7.1,6.9l-45.4-28.2l7.1-6.9L849.4,1280.5z M870.8,1259.7l-7.1,6.9l-45.4-28.2l7.1-6.9L870.8,1259.7z M892.2,1238.9
		l-7.1,6.9l-45.4-28.2l7.1-6.9L892.2,1238.9z M906.5,1225l-45.4-28.2l7.1-6.9l45.4,28.2L906.5,1225z M935.9,1215.8l-1.7-0.3
		l-53.1-39.8c0.1-0.6,0.1-1.1,0-1.7l-2.3-13.7l72-69.9c1-1,1.8-2,2.5-3.2l49.1,47.7l8.9,8.6c-1.2,0.7-2.3,1.5-3.3,2.5L935.9,1215.8z
		 M1085.4,1134.4l-33.4,32.4l-21.5-20.8l0,0l-5-4.9l30.5-29.7C1061.3,1112,1080.8,1115.5,1085.4,1134.4L1085.4,1134.4z M975.9,1011
		l110.6,107.4v7.3c-7.6-15.8-25.3-19.8-31.5-20.7c-3.3-11.1-13.2-25.8-26-38.2s-27.9-22-39.3-25.2c-0.9-6-5-23.3-21.3-30.6
		L975.9,1011L975.9,1011z"/>
	
		<linearGradient id="SVGID_42_" gradientUnits="userSpaceOnUse" x1="143.2816" y1="1103.4043" x2="277.1185" y2="1103.4043" gradientTransform="matrix(0 1 1 0 -258.46 1383)">
		<stop  offset="0" style="stop-color:#4158D0"/>
		<stop  offset="0.37" style="stop-color:#C850C0"/>
		<stop  offset="1" style="stop-color:#FFCC70"/>
	</linearGradient>
	<path class="st43" d="M827.3,1657.8l84.3-87.4c3.8-3.9,3.7-10.1-0.2-13.8l0,0l-0.3-0.3l-30-27.3c-4.2-3.8-10.6-3.6-14.5,0.5
		l-21.1,21.8l-16.6-15.1l-53.4,33.5l27.9,25.3l-21.1,21.8c-3.8,3.9-3.7,10,0.2,13.8l0.3,0.3l29.2,26.5c4.2,3.8,10.6,3.6,14.5-0.5"/>
	
		<linearGradient id="SVGID_43_" gradientUnits="userSpaceOnUse" x1="125.21" y1="1037.01" x2="171.8899" y2="1037.01" gradientTransform="matrix(0 1 1 0 -258.46 1382.99)">
		<stop  offset="0" style="stop-color:#4158D0"/>
		<stop  offset="0.37" style="stop-color:#C850C0"/>
		<stop  offset="1" style="stop-color:#FFCC70"/>
	</linearGradient>
	<polygon class="st44" points="798,1508.2 744.6,1541.6 759.1,1554.8 812.5,1521.4 	"/>
	
		<linearGradient id="SVGID_44_" gradientUnits="userSpaceOnUse" x1="97.91" y1="1007.0099" x2="144.61" y2="1007.0099" gradientTransform="matrix(0 1 1 0 -258.46 1382.99)">
		<stop  offset="0" style="stop-color:#4158D0"/>
		<stop  offset="0.37" style="stop-color:#C850C0"/>
		<stop  offset="1" style="stop-color:#FFCC70"/>
	</linearGradient>
	<polygon class="st45" points="768,1480.9 714.6,1514.4 729.2,1527.6 782.5,1494.1 	"/>
	
		<linearGradient id="SVGID_45_" gradientUnits="userSpaceOnUse" x1="49.7707" y1="971.5157" x2="118.1001" y2="971.5157" gradientTransform="matrix(0 1 1 0 -258.46 1383)">
		<stop  offset="0" style="stop-color:#4158D0"/>
		<stop  offset="0.37" style="stop-color:#C850C0"/>
		<stop  offset="1" style="stop-color:#FFCC70"/>
	</linearGradient>
	<path class="st46" d="M703.5,1435.9l-28.1,29.1c-3.8,3.9-3.7,10.1,0.2,13.8l0,0l0.3,0.3l24.2,22l53.4-33.5l-35.4-32.1
		C713.8,1431.7,707.4,1431.9,703.5,1435.9z"/>
	
		<linearGradient id="SVGID_46_" gradientUnits="userSpaceOnUse" x1="152.7" y1="606.41" x2="236.3999" y2="606.41" gradientTransform="matrix(0 1 1 0 -258.46 1383)">
		<stop  offset="0" style="stop-color:#4158D0"/>
		<stop  offset="0.37" style="stop-color:#C850C0"/>
		<stop  offset="1" style="stop-color:#FFCC70"/>
	</linearGradient>
	<path class="st47" d="M308.5,1576.2l8.8,43.2l65.4-41.2c1.5-0.8,3.1-1.1,4.7-0.9l-7.5-41.6C305.1,1578.8,310.4,1575.8,308.5,1576.2
		z"/>
	
		<linearGradient id="SVGID_47_" gradientUnits="userSpaceOnUse" x1="90.6" y1="595.3099" x2="179.8" y2="595.3099" gradientTransform="matrix(0 1 1 0 -258.46 1383)">
		<stop  offset="0" style="stop-color:#4158D0"/>
		<stop  offset="0.37" style="stop-color:#C850C0"/>
		<stop  offset="1" style="stop-color:#FFCC70"/>
	</linearGradient>
	<path class="st48" d="M296.5,1517.4l9.7,45.4c6.6-3.7,68-40.3,71-39.9l-9.5-49.3C365.1,1475.1,331.9,1495.8,296.5,1517.4z"/>
	
		<linearGradient id="SVGID_48_" gradientUnits="userSpaceOnUse" x1="-55.1607" y1="565.4477" x2="122.0002" y2="565.4477" gradientTransform="matrix(0 1 1 0 -258.46 1383)">
		<stop  offset="0" style="stop-color:#4158D0"/>
		<stop  offset="0.37" style="stop-color:#C850C0"/>
		<stop  offset="1" style="stop-color:#FFCC70"/>
	</linearGradient>
	<path class="st49" d="M371.8,1328L234,1354c-3.5,0.5-5.9,3.8-5.4,7.3l0,0c0,0.1,0,0.3,0.1,0.4l3.7,20.8c0.2,1.5,1,2.9,2.3,3.9
		l43.3,31.3l17.8,87.3c68.4-40.8,65.9-43.2,71.2-41.4l-12-61.2l29.2-42.4c1.3-1.7,1.6-3.9,0.8-5.9l-6.4-21.7
		C379,1329.5,375.6,1327.2,371.8,1328z"/>
	
		<linearGradient id="SVGID_49_" gradientUnits="userSpaceOnUse" x1="206.0997" y1="619.306" x2="312.4002" y2="619.306" gradientTransform="matrix(0 1 1 0 -258.46 1383)">
		<stop  offset="0" style="stop-color:#4158D0"/>
		<stop  offset="0.37" style="stop-color:#C850C0"/>
		<stop  offset="1" style="stop-color:#FFCC70"/>
	</linearGradient>
	<path class="st50" d="M321.3,1632.7l-1,0.2l6.9,34c0.3,1.8,1.3,3.3,2.8,4.2l35.7,23.2c3.1,2,7.3,1.2,9.5-1.8
		c24.9-37.3,27-36.7,26-41.3l-12.2-62.1L321.3,1632.7z"/>
	
		<linearGradient id="SVGID_50_" gradientUnits="userSpaceOnUse" x1="-950.5594" y1="482.5837" x2="-653.2407" y2="482.5837" gradientTransform="matrix(0 1 1 0 -258.46 1383)">
		<stop  offset="0" style="stop-color:#4158D0"/>
		<stop  offset="0.37" style="stop-color:#C850C0"/>
		<stop  offset="1" style="stop-color:#FFCC70"/>
	</linearGradient>
	<path class="st51" d="M304.7,712.4c4.4-1.9,6.4-7,4.5-11.3c0,0,0,0,0-0.1l-0.1-0.2l-4.6-9.6c-1.8-3.8,5.7-9.9,5.7-9.9l0,0
		c9.3-7.5,17.5-16.2,24.4-25.9l0,0c0,0,5.6-7.8,9.7-6.4l10.2,3.6c4.6,1.7,9.7-0.6,11.5-5.2l10.8-28.8c1.6-4.5-0.7-9.5-5.2-11.1l0,0
		h-0.1l-10.2-3.6c-4.1-1.5-3.2-11-3.2-11l0,0c1.1-11.7,0.5-23.5-1.6-35l0,0c0,0-1.8-9.4,2.2-11.2l9.8-4.5c4.4-1.9,6.4-7,4.4-11.4
		l0,0l-0.1-0.2l-13.4-27.8c-2.2-4.4-7.5-6.3-11.9-4.2l-9.8,4.5c-4,1.8-10.2-5.5-10.2-5.5l0,0c-7.8-9.1-16.7-17-26.6-23.7l0,0
		c0,0-8.1-5.4-6.6-9.4l3.7-9.9c1.6-4.5-0.7-9.5-5.2-11.1l0,0l-0.2-0.1l-30-10.4c-4.6-1.7-9.7,0.6-11.5,5.2c0,0-2.2,5.9-3.7,9.9
		s-11.3,3.1-11.3,3.1l0,0c-12-1.1-24.1-0.5-36,1.6l0,0c0,0-9.6,1.7-11.5-2.1l-4.6-9.6c-2.2-4.4-7.5-6.3-11.9-4.2l-28.6,13
		c-4.4,1.9-6.4,7-4.4,11.4l0,0l0.1,0.2c0,0,2.7,5.7,4.6,9.5s-5.8,10-5.8,10l0,0c-9.3,7.5-17.4,16.1-24.4,25.8l0,0
		c0,0-5.6,7.9-9.7,6.4l-10.2-3.6c-4.6-1.7-9.7,0.6-11.5,5.2l-10.7,28.8c-1.7,4.5,0.6,9.4,5.1,11.1l0,0l0.3,0.1l10.2,3.6
		c4.1,1.5,3.2,10.9,3.2,10.9l0,0c-1.1,11.7-0.5,23.5,1.6,35l0,0c0,0,1.8,9.4-2.2,11.2l-9.8,4.4c-4.3,1.9-6.3,6.9-4.5,11.3l0,0
		l0.1,0.3l13.4,27.8c2.2,4.4,7.5,6.3,11.9,4.2l9.8-4.5c4-1.8,10.2,5.5,10.2,5.5h0.1c7.8,9,16.7,17,26.6,23.7l0,0
		c0,0,8.1,5.4,6.6,9.4s-3.7,9.9-3.7,9.9c-1.6,4.5,0.7,9.5,5.2,11.1l0,0l0.2,0.1l29.7,10.5c4.6,1.7,9.7-0.6,11.5-5.2l3.7-9.9
		c1.5-4,11.3-3.1,11.3-3.1l0,0c12,1.1,24.2,0.5,36.1-1.6l0,0c0,0,9.7-1.7,11.5,2.1l4.6,9.5c2.2,4.4,7.4,6.3,11.9,4.3L304.7,712.4z
		 M157.8,557.8c13.3-35.5,53.7-53.9,90.3-41c36.6,12.9,55.5,52.2,42.2,87.7s-53.7,53.9-90.3,41S144.5,593.3,157.8,557.8z"/>
	
		<linearGradient id="SVGID_51_" gradientUnits="userSpaceOnUse" x1="-823.5996" y1="482.5944" x2="-780.1084" y2="482.5944" gradientTransform="matrix(0 1 1 0 -258.46 1383)">
		<stop  offset="0" style="stop-color:#4158D0"/>
		<stop  offset="0.37" style="stop-color:#C850C0"/>
		<stop  offset="1" style="stop-color:#FFCC70"/>
	</linearGradient>
	<path class="st52" d="M245.7,575.3c-3.3-11.6-15.7-18.3-27.6-15.2c-11.6,2.9-18.6,14.7-15.7,26.3l0.1,0.5
		c3.3,11.6,15.6,18.4,27.6,15.2S249,586.9,245.7,575.3z"/>
	
		<linearGradient id="SVGID_52_" gradientUnits="userSpaceOnUse" x1="-751.4561" y1="695.86" x2="-499.489" y2="695.86" gradientTransform="matrix(0 1 1 0 -258.46 1383)">
		<stop  offset="0" style="stop-color:#4158D0"/>
		<stop  offset="0.37" style="stop-color:#C850C0"/>
		<stop  offset="1" style="stop-color:#FFCC70"/>
	</linearGradient>
	<path class="st53" d="M470.6,872.9c0,0-0.6-5.2-1-8.7s7.2-6.3,7.2-6.3v-0.1c9.2-3.4,18-8.1,26-13.8l0.1,0.1c0,0,6.5-4.7,9.3-2.5
		l7,5.5c3.2,2.5,7.8,2,10.4-1.1l16.4-19.7c2.5-3,2.1-7.4-0.9-9.9l-0.2-0.2l-7-5.5c-2.8-2.2,0.5-9.4,0.5-9.4l-0.1-0.1
		c4.1-8.8,6.9-18.1,8.4-27.6h0.1c0,0,1.2-7.8,4.8-8.2l8.9-0.9c4-0.3,6.9-3.9,6.6-7.8l0,0l0,0l-2.8-25.1c-0.5-4-4.2-6.8-8.2-6.4
		c0,0-5.3,0.6-8.9,0.9s-6.4-7-6.4-7h-0.1c-3.6-9-8.3-17.5-14.2-25.3l0.1-0.1c0,0-4.8-6.3-2.6-9l5.6-6.8c2.5-2.9,2.1-7.4-0.8-9.9l0,0
		l-0.3-0.2l-20.3-15.9c-3.2-2.5-7.8-2-10.4,1.1l-5.6,6.8c-2.3,2.7-9.6-0.5-9.6-0.5l-0.1,0.1c-9.1-3.9-18.7-6.7-28.5-8.1v-0.1
		c0,0-8-1.2-8.4-4.6s-0.9-8.6-0.9-8.6c-0.5-4-4.1-6.9-8.1-6.4l-25.9,2.7c-4,0.3-6.9,3.9-6.6,7.8l0,0v0.1c0,0,0.6,5.2,1,8.6
		s-7.2,6.3-7.2,6.3v0.1c-9.2,3.4-18,8.1-26,13.8l-0.1-0.1c0,0-6.5,4.7-9.3,2.5l-7-5.5c-3.2-2.5-7.8-2-10.4,1.1l-16.3,19.7
		c-2.5,3-2.1,7.4,0.8,9.9c0.1,0.1,0.2,0.2,0.3,0.2l7,5.5c2.8,2.2-0.5,9.4-0.5,9.4l0.1,0.1c-4.1,8.8-6.9,18.1-8.4,27.6H328
		c0,0-1.2,7.8-4.8,8.2l-8.9,0.9c-4,0.4-6.9,3.9-6.6,7.9l0,0l0,0l2.8,25.2c0.5,4,4.1,6.8,8.1,6.4l8.9-0.9c3.6-0.4,6.4,7,6.4,7h0.1
		c3.6,9,8.3,17.5,14.2,25.3l-0.1,0.1c0,0,4.8,6.3,2.6,9l-5.6,6.8c-2.5,3-2.1,7.4,0.8,9.9c0.1,0.1,0.2,0.2,0.3,0.2l20.2,15.9
		c3.2,2.5,7.8,2,10.4-1.1c0,0,3.4-4,5.6-6.8s9.6,0.5,9.6,0.5l0.1-0.1c9.1,4,18.7,6.7,28.5,8.2v0.1c0,0,8,1.2,8.4,4.7s1,8.6,1,8.6
		c0.5,4,4.1,6.8,8.1,6.4l25.9-2.7C468.1,880.4,471,876.9,470.6,872.9z M473.8,713.6c24.2,18.6,28.8,53.3,10.2,77.5l0,0
		c-0.5,0.6-0.9,1.2-1.4,1.8c-20.1,24.2-56.7,28-81.7,8.5c-24.2-18.6-28.8-53.3-10.2-77.5c0.5-0.6,1-1.2,1.5-1.8
		C412.3,697.9,448.9,694.1,473.8,713.6L473.8,713.6z"/>
	
		<linearGradient id="SVGID_53_" gradientUnits="userSpaceOnUse" x1="-643.39" y1="695.86" x2="-607.5501" y2="695.86" gradientTransform="matrix(0 1 1 0 -258.46 1382.99)">
		<stop  offset="0" style="stop-color:#4158D0"/>
		<stop  offset="0.37" style="stop-color:#C850C0"/>
		<stop  offset="1" style="stop-color:#FFCC70"/>
	</linearGradient>
	<ellipse class="st54" cx="437.4" cy="757.5" rx="18.5" ry="17.9"/>
	
		<linearGradient id="SVGID_54_" gradientUnits="userSpaceOnUse" x1="428.8998" y1="386.8763" x2="645.6" y2="386.8763" gradientTransform="matrix(0 1 1 0 -258.46 1383)">
		<stop  offset="0" style="stop-color:#4158D0"/>
		<stop  offset="0.37" style="stop-color:#C850C0"/>
		<stop  offset="1" style="stop-color:#FFCC70"/>
	</linearGradient>
	<path class="st55" d="M220.4,2026.7l17.6-17.1c2.2-2.4,2.2-6.1,0-8.4l-70.5-68.5l70.5-68.3c2.3-2.1,2.5-5.7,0.4-8.1l0,0l-0.4-0.3
		l-43.3-42.3c-2.4-2.4-6.3-2.4-8.6,0l0,0l-70.3,68.3l-61.9-59.6c-0.7-0.7-1.5-1.2-2.5-1.4l-26.2-8.7c-2.2-0.8-4.7-0.2-6.4,1.4
		c-1.1,1.2-1.7,2.7-1.7,4.3c0,0.6,0,1.3,0.2,1.9l8.7,25.5c0.2,0.9,0.8,1.8,1.5,2.4l61.6,59.8L18.7,1976c-2.3,2.4-2.3,6.2,0,8.7
		l43.3,42.1c2.4,2.4,6.3,2.4,8.7,0l0,0l70.5-68.5l70.3,68.3C214,2028.9,217.8,2029,220.4,2026.7z M37.3,1840.5l-4.5-12.7l13.1,4.3
		L207,1988.6l-8.7,8.4L37.3,1840.5z M207.3,2005.3l8.7-8.4l8.7,8.4l-8.6,8.4L207.3,2005.3z M134.5,1880.6l7.9,7.7
		c2.4,2.4,6.3,2.4,8.6,0l0,0c2.3-2.1,2.5-5.7,0.4-8c-0.1-0.1-0.3-0.3-0.4-0.4l-7.9-7.7l9.9-9.6l7.9,7.7c2.4,2.4,6.2,2.4,8.6,0h0.1
		c2.3-2.1,2.5-5.7,0.4-8c-0.1-0.1-0.3-0.3-0.4-0.4l-7.9-7.7l9.9-9.6l7.9,7.7c2.4,2.4,6.3,2.4,8.6,0l0,0c2.3-2.1,2.4-5.7,0.4-8
		l-0.4-0.4l-7.9-7.7l9.9-9.6l34.6,33.7l-66.1,64.2l-34.7-33.7L134.5,1880.6z M66.5,2014l-34.7-33.7l9.9-9.6l7.9,7.7
		c2.4,2.4,6.3,2.4,8.6,0l0,0c2.3-2.1,2.5-5.7,0.4-8c-0.1-0.1-0.3-0.3-0.4-0.4l-7.9-7.7l9.9-9.6l7.9,7.7c2.4,2.4,6.2,2.4,8.6,0l0,0
		c2.3-2.1,2.5-5.7,0.4-8.1l-0.4-0.4l-7.9-7.7l9.9-9.6l7.9,7.7c2.4,2.4,6.3,2.4,8.6,0l0,0c2.3-2.1,2.5-5.7,0.4-8.1l-0.4-0.4l-7.9-7.7
		l10.4-10.1l34.7,33.7L66.5,2014z"/>
	
		<linearGradient id="SVGID_55_" gradientUnits="userSpaceOnUse" x1="-165.2704" y1="335.3765" x2="76.2842" y2="335.3765" gradientTransform="matrix(0 1 1 0 -258.46 1383)">
		<stop  offset="0" style="stop-color:#4158D0"/>
		<stop  offset="0.37" style="stop-color:#C850C0"/>
		<stop  offset="1" style="stop-color:#FFCC70"/>
	</linearGradient>
	<path class="st56" d="M140.3,1445.1c8.1-3.3,11.5-11.6,12.3-20c0.7-9-0.9-18.1-4.5-26.4c-5.9-13.5-18.1-23.1-32.6-25.7l-41.4-96.3
		c6.9-10.6,8.1-23.9,3.2-35.5c-8.4-19.6-31.7-28.7-51.8-20.4s-29.8,30.8-21.4,50.4c5.2,11.7,15.7,20.1,28.2,22.7l41.4,96.3
		c-8.3,12-9.8,27.4-4,40.7c3.6,8.4,9.1,15.8,16.2,21.6c6.7,5.3,15.1,8.8,23.1,5.5c2.8-1.2,4.1-4.4,3.1-7.2l-13-30.5l20.9-8.6
		l13,30.5C134.3,1444.9,137.5,1446.2,140.3,1445.1L140.3,1445.1z M44.4,1264.6l-10.7-0.7c-1.2-2.8-2.4-5.7-3.6-8.5
		c2.4-2.6,4.6-5.2,6.8-7.8c3.6,0.2,7.1,0.5,10.7,0.7c1.2,2.8,2.4,5.6,3.6,8.4C49,1259.4,46.7,1262,44.4,1264.6z"/>
	
		<linearGradient id="SVGID_56_" gradientUnits="userSpaceOnUse" x1="-786.4479" y1="1321.2889" x2="-388.2001" y2="1321.2889" gradientTransform="matrix(0 1 1 0 -258.46 1383)">
		<stop  offset="0" style="stop-color:#4158D0"/>
		<stop  offset="0.37" style="stop-color:#C850C0"/>
		<stop  offset="1" style="stop-color:#FFCC70"/>
	</linearGradient>
	<path class="st57" d="M1050.7,912.6l46.3-21.2l45.1,23.3l-2.7,80.1c40.6-16.3,70-55,71.7-100.8c1.8-61.6-47.4-113.3-110.1-114.6
		c-4.3-0.3-8.7-0.1-13,0.5l-87.7-160c-11.9-21.7-39.8-29.7-61.9-17.9s-30.3,38.9-18.5,60.6l87.7,159.9c-15,18.8-23.6,41.8-24.5,65.8
		c-1.3,45.9,25.4,85.9,64.9,104.3L1050.7,912.6z M938.2,635.2c3.7-12,16.4-18.8,28.4-15.2c11.7,3.1,18.6,15.2,15.5,26.9l0,0
		c-0.1,0.3-0.2,0.6-0.3,0.9c-3.7,12-16.4,18.8-28.4,15.2c-11.7-3.2-18.6-15.2-15.5-26.9l0,0C938.1,635.8,938.2,635.5,938.2,635.2z"
		/>
</g>
<g>
	<g>
		<text transform="matrix(0.82 0 0 1 70.9486 769.9451)" class="st58 st59 st60">SRI</text>
		<text transform="matrix(0.82 0 0 1 70.9486 1023.6428)" class="st58 st59 st60">RAGHAVENDRA</text>
		<text transform="matrix(0.82 0 0 1 70.9403 1277.3396)" class="st58 st59 st60">INDUSTRIES</text>
	</g>
	<text transform="matrix(0.82 0 0 1 70.9305 1481.4548)" class="st58 st61 st62">An Emerging and Proficiently owned manufacturing Industry.</text>
</g>
</svg>
