<svg id="Layer_1" data-name="Layer 1" xmlns="http://www.w3.org/2000/svg" xmlns:xlink="http://www.w3.org/1999/xlink" viewBox="0 0 1920 362.56"><defs><style>.cls-1{opacity:0.6;fill:url(#linear-gradient);}.cls-2{fill:url(#linear-gradient-2);}.cls-3{fill:url(#linear-gradient-3);}.cls-4{fill:url(#linear-gradient-4);}.cls-5{fill:url(#linear-gradient-5);}.cls-6{fill:url(#linear-gradient-6);}.cls-7{fill:url(#linear-gradient-7);}.cls-8{fill:url(#linear-gradient-8);}.cls-9{fill:url(#linear-gradient-9);}.cls-10{fill:url(#linear-gradient-10);}.cls-11{fill:url(#linear-gradient-11);}.cls-12{fill:url(#linear-gradient-12);}.cls-13,.cls-14,.cls-15,.cls-16{fill-rule:evenodd;}.cls-13{fill:url(#linear-gradient-13);}.cls-14{fill:url(#linear-gradient-14);}.cls-15{fill:url(#linear-gradient-15);}.cls-16{fill:url(#linear-gradient-16);}.cls-17{fill:url(#linear-gradient-17);}.cls-18{fill:url(#linear-gradient-18);}</style><linearGradient id="linear-gradient" y1="181.28" x2="1920" y2="181.28" gradientUnits="userSpaceOnUse"><stop offset="0" stop-color="#a9c9ff"/><stop offset="1" stop-color="#ffbbec"/></linearGradient><linearGradient id="linear-gradient-2" x1="84.77" y1="626.06" x2="298.86" y2="626.06" gradientUnits="userSpaceOnUse"><stop offset="0" stop-color="#4158d0" stop-opacity="0.6"/><stop offset="0.51" stop-color="#c850c0" stop-opacity="0.6"/><stop offset="1" stop-color="#ffcc70" stop-opacity="0.6"/></linearGradient><linearGradient id="linear-gradient-3" x1="293.45" y1="628.72" x2="322.36" y2="628.72" xlink:href="#linear-gradient-2"/><linearGradient id="linear-gradient-4" x1="117.62" y1="540.65" x2="331.71" y2="540.65" xlink:href="#linear-gradient-2"/><linearGradient id="linear-gradient-5" x1="324.99" y1="542" x2="353.9" y2="542" xlink:href="#linear-gradient-2"/><linearGradient id="linear-gradient-6" x1="324.84" y1="599.78" x2="374.52" y2="599.78" xlink:href="#linear-gradient-2"/><linearGradient id="linear-gradient-7" x1="371.64" y1="597.18" x2="400.54" y2="597.18" xlink:href="#linear-gradient-2"/><linearGradient id="linear-gradient-8" x1="1016.39" y1="511.95" x2="1072.43" y2="511.95" xlink:href="#linear-gradient-2"/><linearGradient id="linear-gradient-9" x1="843.02" y1="584.81" x2="1156.85" y2="584.81" xlink:href="#linear-gradient-2"/><linearGradient id="linear-gradient-10" x1="949.14" y1="652.06" x2="1066.83" y2="652.06" xlink:href="#linear-gradient-2"/><linearGradient id="linear-gradient-11" x1="1598.77" y1="627.41" x2="1702.1" y2="627.41" xlink:href="#linear-gradient-2"/><linearGradient id="linear-gradient-12" x1="1671.64" y1="546.35" x2="1755.64" y2="546.35" xlink:href="#linear-gradient-2"/><linearGradient id="linear-gradient-13" x1="1776.08" y1="574.24" x2="1832.09" y2="574.24" xlink:href="#linear-gradient-2"/><linearGradient id="linear-gradient-14" x1="1777.71" y1="196.21" x2="1799" y2="196.21" xlink:href="#linear-gradient-2"/><linearGradient id="linear-gradient-15" x1="1770.1" y1="209.9" x2="1791.4" y2="209.9" xlink:href="#linear-gradient-2"/><linearGradient id="linear-gradient-16" x1="1756.31" y1="632.66" x2="1782.79" y2="632.66" xlink:href="#linear-gradient-2"/><linearGradient id="linear-gradient-17" x1="578.36" y1="192" x2="633.5" y2="192" xlink:href="#linear-gradient-2"/><linearGradient id="linear-gradient-18" x1="1430.18" y1="190.05" x2="1485.32" y2="190.05" xlink:href="#linear-gradient-2"/></defs><title>workflow_horizontal</title><rect class="cls-1" width="1920" height="362.56"/><path class="cls-2" d="M84.77,601.1v29.72c1.36,20.39,8.83,34.66,15,34.66H298.86c-6.12-8.83-9.52-23.11-9.52-39.42s3.4-30.58,9.52-39.42H99.22A14.45,14.45,0,0,0,84.77,601.1Z" transform="translate(1 -405.72)"/><path class="cls-3" d="M307.91,590.61c-5.92,0-14.46,15.11-14.46,38.11s8.54,38.1,14.46,38.1,14.45-15.11,14.45-38.1S313.82,590.61,307.91,590.61Z" transform="translate(1 -405.72)"/><path class="cls-4" d="M132.57,580.07H331.71c-6.12-8.83-9.52-23.11-9.52-39.42s3.4-30.58,9.52-39.42H132.57c-10.2,0-14.95,25.83-14.95,39.42v4.76C118.3,565.8,125.77,580.07,132.57,580.07Z" transform="translate(1 -405.72)"/><path class="cls-5" d="M339.44,580.1c5.92,0,14.46-15.11,14.46-38.1s-8.54-38.11-14.46-38.11S325,519,325,542,333.53,580.1,339.44,580.1Z" transform="translate(1 -405.72)"/><path class="cls-6" d="M365.91,560.36c-3.43,19.17-12.32,32.17-23.27,32.85h-17.8c6.16,8.9,9.58,23.27,9.58,39.7v6.29h40.1c-6.11-8.83-9.51-23.11-9.51-39.42s3.4-30.58,9.51-39.42Z" transform="translate(1 -405.72)"/><path class="cls-7" d="M386.09,559.08c-5.91,0-14.45,15.11-14.45,38.1,0,23.65,8.54,38.11,14.45,38.11s14.45-15.11,14.45-38.11C400.54,573.53,392,559.08,386.09,559.08Z" transform="translate(1 -405.72)"/><path class="cls-8" d="M1066.83,517.56H1022a5.61,5.61,0,0,1,0-11.21h44.84a5.61,5.61,0,0,1,0,11.21Z" transform="translate(1 -405.72)"/><path class="cls-9" d="M1061.58,502.34v14.79l16.81,6.73V495.61Zm28-7.2v67.25h56V495.14Zm-67.25,112.08a5.61,5.61,0,0,1-5.6,5.61H949.5a5.61,5.61,0,0,1-5.61-5.61H904.66V624h173.73V607.22ZM955.1,568v33.63h56V568ZM994,590.41H971.56a5.61,5.61,0,1,1,0-11.21H994a5.61,5.61,0,1,1,0,11.21Zm28.38-16.81V596h134.5V573.6Zm-67.25,28h56V568h-56Zm16.46-22.42H994a5.61,5.61,0,1,1,0,11.21H971.56a5.61,5.61,0,1,1,0-11.21Zm50.79,28a5.61,5.61,0,0,1-5.6,5.61H949.5a5.61,5.61,0,0,1-5.61-5.61H904.66V624h173.73V607.22Zm-50.44-78.45v28h22.42v-28ZM955.1,568v33.63h56V568ZM994,590.41H971.56a5.61,5.61,0,1,1,0-11.21H994a5.61,5.61,0,1,1,0,11.21ZM904.66,573.6V596h39.23V573.6Zm16.82-78.46v33.63h11.21V495.14Zm-61.65,39.23h50.44V489.54H843V596h50.44V545.58H859.83a5.61,5.61,0,0,1,0-11.21Zm-16,72.85,9.76,72.86h39.9V607.22Zm60.86,28v33.63h173.73V635.24Zm27.67,22.42H921.12a5.61,5.61,0,0,1,0-11.21h11.21a5.61,5.61,0,0,1,0,11.21Zm157.27-50.44v72.86h56.71l9.75-72.86Zm-72.85,5.61H949.5a5.61,5.61,0,0,1-5.61-5.61H904.66V624h173.73V607.22h-56A5.61,5.61,0,0,1,1016.75,612.83Z" transform="translate(1 -405.72)"/><path class="cls-10" d="M1061.22,646.45H954.74a5.61,5.61,0,0,0,0,11.21h106.48a5.61,5.61,0,1,0,0-11.21Z" transform="translate(1 -405.72)"/><path class="cls-11" d="M1603.69,597c-8.2,12.3-6.15,30.75,6.15,39l4.1,2,8.2-12.3,63.56,45.11,16.4-22.56-63.56-45.1,8.2-12.3-4.1-2.05C1628.29,580.61,1611.89,582.66,1603.69,597Zm84.06,55.36-6.15,8.2-8.2-6.15,6.15-8.21Zm-14.35-10.26-6.16,6.15-8.2-6.15,6.15-8.2ZM1659,629.81l-6.15,8.2-8.2-6.15,6.15-8.2Zm-16.4-10.25-6.15,8.2-10.25-8.2,6.15-8.2Zm-30.75,4.1c-4.1-6.15-6.15-12.3-2.05-18.45l6.15,4.1,6.15-8.2L1616,597c6.15-4.1,12.3-6.15,18.45-4.1Z" transform="translate(1 -405.72)"/><path class="cls-12" d="M1734.64,509.6h-42l-21,36.75,21,36.75h42l21-36.75Zm-21,61.54c-11,0-22.05-9.19-22.05-22,0-11,9.19-22.05,22.05-22.05,11,0,22,9.19,22,22.05S1724.66,571.14,1713.64,571.14Z" transform="translate(1 -405.72)"/><path class="cls-13" d="M1829.94,570.75l-41.06-21.29c-1.53-1.52-4.57,0-4.57,1.52l-7.6,13.69c-1.52,1.52,0,4.56,1.52,4.56l10.65,6.09-4.57,7.6,18.25,16.73,6.09-12.17,10.64,6.09c1.52,1.52,4.57,0,4.57-1.52l7.6-13.69c1.52-3,0-6.09-1.52-7.61" transform="translate(1 -405.72)"/><polygon class="cls-14" points="1777.71 192.41 1795.96 207.62 1799 201.53 1780.75 184.8 1777.71 192.41"/><polygon class="cls-15" points="1770.1 206.1 1788.36 221.3 1791.4 215.22 1774.67 198.49 1770.1 206.1"/><path class="cls-16" d="M1756.94,634.63c-1.52,1.52,0,4.56,1.52,4.56l13.69,7.61c1.52,1.52,4.56,0,4.56-1.52l6.08-10.65-18.25-16.73Z" transform="translate(1 -405.72)"/><polyline class="cls-17" points="607.27 192 578.36 235.86 604.5 235.86 633.5 192 633.5 192.1 604.5 148.14 578.36 148.14 607.27 192.1"/><polyline class="cls-18" points="1459.08 190.05 1430.18 233.91 1456.31 233.91 1485.32 190.05 1485.32 190.15 1456.31 146.19 1430.18 146.19 1459.08 190.15"/></svg>