<svg id="Layer_1" data-name="Layer 1" xmlns="http://www.w3.org/2000/svg" xmlns:xlink="http://www.w3.org/1999/xlink" viewBox="0 0 1125 2436"><defs><style>.cls-1{opacity:0.6;fill:url(#linear-gradient);}.cls-2{fill:url(#linear-gradient-2);}.cls-3{fill:url(#linear-gradient-3);}.cls-4{fill:url(#linear-gradient-4);}.cls-5{fill:url(#linear-gradient-5);}.cls-6{fill:url(#linear-gradient-6);}.cls-7{fill:url(#linear-gradient-7);}.cls-8{fill:url(#linear-gradient-8);}.cls-9{fill:url(#linear-gradient-9);}.cls-10{fill:url(#linear-gradient-10);}.cls-11{fill:url(#linear-gradient-11);}.cls-12{fill:url(#linear-gradient-12);}.cls-13,.cls-14,.cls-15,.cls-16{fill-rule:evenodd;}.cls-13{fill:url(#linear-gradient-13);}.cls-14{fill:url(#linear-gradient-14);}.cls-15{fill:url(#linear-gradient-15);}.cls-16{fill:url(#linear-gradient-16);}.cls-17{fill:url(#linear-gradient-17);}.cls-18{fill:url(#linear-gradient-18);}</style><linearGradient id="linear-gradient" x1="-781.1" y1="527.6" x2="1654.9" y2="527.6" gradientTransform="translate(125.6 690.4)" gradientUnits="userSpaceOnUse"><stop offset="0" stop-color="#a9c9ff"/><stop offset="1" stop-color="#ffbbec"/></linearGradient><linearGradient id="linear-gradient-2" x1="176.02" y1="431.46" x2="681.78" y2="431.46" gradientUnits="userSpaceOnUse"><stop offset="0" stop-color="#4158d0" stop-opacity="0.6"/><stop offset="0.51" stop-color="#c850c0" stop-opacity="0.6"/><stop offset="1" stop-color="#ffcc70" stop-opacity="0.6"/></linearGradient><linearGradient id="linear-gradient-3" x1="669.02" y1="437.74" x2="737.31" y2="437.74" xlink:href="#linear-gradient-2"/><linearGradient id="linear-gradient-4" x1="253.63" y1="229.7" x2="759.38" y2="229.7" xlink:href="#linear-gradient-2"/><linearGradient id="linear-gradient-5" x1="743.51" y1="232.87" x2="811.8" y2="232.87" xlink:href="#linear-gradient-2"/><linearGradient id="linear-gradient-6" x1="743.17" y1="369.38" x2="860.53" y2="369.38" xlink:href="#linear-gradient-2"/><linearGradient id="linear-gradient-7" x1="853.71" y1="363.24" x2="922" y2="363.24" xlink:href="#linear-gradient-2"/><linearGradient id="linear-gradient-8" x1="587.95" y1="1046.14" x2="723.53" y2="1046.14" xlink:href="#linear-gradient-2"/><linearGradient id="linear-gradient-9" x1="168.49" y1="1222.41" x2="927.78" y2="1222.41" xlink:href="#linear-gradient-2"/><linearGradient id="linear-gradient-10" x1="425.24" y1="1385.12" x2="709.98" y2="1385.12" xlink:href="#linear-gradient-2"/><linearGradient id="linear-gradient-11" x1="271.42" y1="2200.97" x2="516.71" y2="2200.97" xlink:href="#linear-gradient-2"/><linearGradient id="linear-gradient-12" x1="444.41" y1="2008.54" x2="643.8" y2="2008.54" xlink:href="#linear-gradient-2"/><linearGradient id="linear-gradient-13" x1="692.33" y1="2074.74" x2="825.29" y2="2074.74" xlink:href="#linear-gradient-2"/><linearGradient id="linear-gradient-14" x1="693.82" y1="2140.48" x2="744.37" y2="2140.48" xlink:href="#linear-gradient-2"/><linearGradient id="linear-gradient-15" x1="675.77" y1="2172.97" x2="726.31" y2="2172.97" xlink:href="#linear-gradient-2"/><linearGradient id="linear-gradient-16" x1="645.39" y1="2213.43" x2="708.26" y2="2213.43" xlink:href="#linear-gradient-2"/><linearGradient id="linear-gradient-17" x1="264.8" y1="1061.93" x2="318.82" y2="1061.93" gradientTransform="translate(1610.72 485.48) rotate(90)" xlink:href="#linear-gradient-2"/><linearGradient id="linear-gradient-18" x1="1155.04" y1="1062.15" x2="1209.07" y2="1062.15" gradientTransform="translate(1610.72 485.48) rotate(90)" xlink:href="#linear-gradient-2"/></defs><title>workflow_vertical</title><rect class="cls-1" x="-655.5" y="655.5" width="2436" height="1125" transform="translate(1780.5 655.5) rotate(90)"/><path class="cls-2" d="M176,372.48V442.7c3.22,48.17,20.88,81.89,35.33,81.89H681.78C667.33,503.71,659.3,470,659.3,431.46s8-72.25,22.48-93.12H210.17A34.15,34.15,0,0,0,176,372.48Z" transform="translate(0 0)"/><path class="cls-3" d="M703.16,347.72c-14,0-34.14,35.69-34.14,90s20.17,90,34.14,90,34.15-35.7,34.15-90S717.13,347.72,703.16,347.72Z" transform="translate(0 0)"/><path class="cls-4" d="M289,322.82H759.38C744.93,302,736.9,268.23,736.9,229.7s8-72.25,22.48-93.13H289c-24.08,0-35.32,61-35.32,93.13v11.23C255.23,289.1,272.89,322.82,289,322.82Z" transform="translate(0 0)"/><path class="cls-5" d="M777.66,322.88c14,0,34.14-35.69,34.14-90s-20.17-90-34.14-90-34.15,35.69-34.15,90S763.69,322.88,777.66,322.88Z" transform="translate(0 0)"/><path class="cls-6" d="M840.17,276.26c-8.08,45.27-29.1,76-55,77.6h-42c14.55,21,22.63,55,22.63,93.77V462.5h94.73c-14.45-20.87-22.48-54.59-22.48-93.12s8-72.25,22.48-93.12Z" transform="translate(0 0)"/><path class="cls-7" d="M887.85,273.22c-14,0-34.14,35.7-34.14,90,0,55.87,20.18,90,34.14,90s34.15-35.7,34.15-90C922,307.36,901.82,273.22,887.85,273.22Z" transform="translate(0 0)"/><path class="cls-8" d="M710,1059.7H601.5a13.56,13.56,0,0,1,0-27.11H710a13.56,13.56,0,0,1,0,27.11Z" transform="translate(0 0)"/><path class="cls-9" d="M697.28,1022.88v35.8L738,1075v-68.34Zm67.8-17.41v162.7H900.66v-162.7ZM602.37,1276.64a13.56,13.56,0,0,1-13.56,13.56H426.11a13.56,13.56,0,0,1-13.56-13.56H317.63v40.68H738v-40.68Zm-162.71-94.91v81.36H575.25v-81.36ZM533.71,1236H479.48a13.56,13.56,0,1,1,0-27.12h54.23a13.56,13.56,0,0,1,0,27.12Zm68.66-40.68v54.24H927.78v-54.24Zm-162.71,67.8H575.25v-81.36H439.66Zm39.82-54.24h54.23a13.56,13.56,0,0,1,0,27.12H479.48a13.56,13.56,0,1,1,0-27.12Zm122.89,67.79a13.56,13.56,0,0,1-13.56,13.56H426.11a13.56,13.56,0,0,1-13.56-13.56H317.63v40.68H738v-40.68Zm-122-189.82v67.8h54.24v-67.8Zm-40.68,94.91v81.36H575.25v-81.36ZM533.71,1236H479.48a13.56,13.56,0,1,1,0-27.12h54.23a13.56,13.56,0,0,1,0,27.12Zm-216.08-40.68v54.24h94.92v-54.24Zm40.68-189.82v81.35h27.12v-81.35Zm-149.15,94.91h122V991.91H168.49v257.62h122v-122H209.16a13.56,13.56,0,0,1,0-27.12Zm-38.77,176.26L194,1452.91h96.54V1276.64Zm147.24,67.8v81.35H738v-81.35Zm66.93,54.23H357.45a13.56,13.56,0,1,1,0-27.11h27.11a13.56,13.56,0,1,1,0,27.11Zm380.52-122v176.27H902.29l23.59-176.27ZM588.81,1290.2H426.11a13.56,13.56,0,0,1-13.56-13.56H317.63v40.68H738v-40.68H602.37A13.56,13.56,0,0,1,588.81,1290.2Z" transform="translate(0 0)"/><path class="cls-10" d="M696.42,1371.56H438.8a13.56,13.56,0,1,0,0,27.11H696.42a13.56,13.56,0,1,0,0-27.11Z" transform="translate(0 0)"/><path class="cls-11" d="M283.1,2128.79c-19.47,29.2-14.6,73,14.6,92.47l9.74,4.87,19.46-29.2L477.78,2304l38.93-53.54L365.84,2143.39l19.47-29.2-9.74-4.87C341.5,2089.86,302.57,2094.72,283.1,2128.79ZM482.64,2260.2,468,2279.67l-19.46-14.6,14.6-19.47Zm-34.06-24.34-14.6,14.6-19.47-14.6,14.6-19.46Zm-34.07-29.2-14.6,19.47-19.47-14.6,14.6-19.47Zm-38.94-24.33L361,2201.8l-24.33-19.47,14.6-19.47Zm-73,9.73c-9.73-14.6-14.6-29.2-4.87-43.8l14.6,9.73,14.6-19.46-14.6-9.74c14.6-9.73,29.2-14.6,43.81-9.73Z" transform="translate(0 0)"/><path class="cls-12" d="M594,1921.31h-99.7l-49.84,87.23,49.84,87.24H594l49.85-87.24ZM544.1,2067.38c-26.17,0-52.34-21.81-52.34-52.34,0-26.17,21.81-52.34,52.34-52.34,26.17,0,52.34,21.81,52.34,52.34S570.27,2067.38,544.1,2067.38Z" transform="translate(0 0)"/><path class="cls-13" d="M820.18,2066.47l-97.48-50.55c-3.61-3.61-10.83,0-10.83,3.61l-18,32.49c-3.61,3.61,0,10.84,3.61,10.84l25.27,14.44-10.83,18,43.33,39.71,14.44-28.88,25.27,14.44c3.61,3.61,10.83,0,10.83-3.61l18-32.49c3.61-7.22,0-14.44-3.61-18.05" transform="translate(0 0)"/><polygon class="cls-14" points="693.82 2131.45 737.14 2167.55 744.37 2153.11 701.04 2113.4 693.82 2131.45"/><polygon class="cls-15" points="675.77 2163.94 719.09 2200.05 726.31 2185.6 686.6 2145.89 675.77 2163.94"/><path class="cls-16" d="M646.89,2218.1c-3.61,3.61,0,10.83,3.61,10.83L683,2247c3.61,3.61,10.83,0,10.83-3.61l14.44-25.27-43.32-39.72Z" transform="translate(0 0)"/><polyline class="cls-17" points="548.79 778.6 505.83 750.27 505.83 775.88 548.79 804.3 548.7 804.3 591.76 775.88 591.76 750.27 548.7 778.6"/><polyline class="cls-18" points="548.57 1668.84 505.61 1640.52 505.61 1666.13 548.57 1694.54 548.48 1694.54 591.54 1666.13 591.54 1640.52 548.48 1668.84"/></svg>