<?xml version="1.0" encoding="utf-8"?>
<!-- Generator: Adobe Illustrator 23.0.1, SVG Export Plug-In . SVG Version: 6.00 Build 0)  -->
<svg version="1.1" id="Layer_1" xmlns="http://www.w3.org/2000/svg" xmlns:xlink="http://www.w3.org/1999/xlink" x="0px" y="0px"
	 viewBox="0 0 1489.7 703" style="enable-background:new 0 0 1489.7 703;" xml:space="preserve">
<style type="text/css">
	.st0{fill:url(#Photo-2_1_);}
	.st1{opacity:0.16;}
	.st2{fill:url(#Path_335_1_);}
	.st3{fill:url(#Path_336_1_);}
	.st4{fill:url(#Path_337_1_);}
	.st5{fill:url(#Path_338_1_);}
	.st6{fill:url(#Path_339_1_);}
	.st7{fill:url(#Path_340_1_);}
	.st8{fill:url(#Path_341_1_);}
	.st9{fill:url(#Path_342_1_);}
	.st10{fill:url(#Path_343_1_);}
	.st11{fill:url(#Path_344_1_);}
	.st12{fill:url(#Path_345_1_);}
	.st13{fill:url(#Path_346_1_);}
	.st14{fill:url(#Path_347_1_);}
	.st15{fill:url(#Path_348_1_);}
	.st16{fill:url(#Path_349_1_);}
	.st17{fill:url(#Path_350_1_);}
	.st18{fill:url(#Path_351_1_);}
	.st19{fill:url(#Path_352_1_);}
	.st20{fill:url(#Path_353_1_);}
	.st21{fill:url(#Path_354_1_);}
	.st22{fill:url(#Path_355_1_);}
	.st23{fill:url(#Path_356_1_);}
	.st24{fill:url(#Path_357_1_);}
	.st25{fill:url(#Path_358_1_);}
	.st26{fill:url(#Path_359_1_);}
	.st27{fill:url(#Path_360_1_);}
	.st28{fill:url(#Path_361_1_);}
	.st29{fill:url(#Path_362_1_);}
	.st30{fill:url(#Path_363_1_);}
	.st31{fill:url(#Path_364_1_);}
	.st32{fill:url(#Path_365_1_);}
	.st33{fill:url(#Path_366_1_);}
	.st34{fill:url(#Path_367_1_);}
	.st35{fill:url(#Path_368_1_);}
	.st36{fill:url(#Path_369_1_);}
	.st37{fill:url(#Path_370_1_);}
	.st38{fill:url(#Path_371_1_);}
	.st39{fill:url(#Path_372_1_);}
	.st40{fill:url(#Path_373_1_);}
	.st41{fill:url(#Path_374_1_);}
	.st42{fill:url(#Path_375_1_);}
	.st43{fill-rule:evenodd;clip-rule:evenodd;fill:url(#Path_376_1_);}
	.st44{fill-rule:evenodd;clip-rule:evenodd;fill:url(#Path_377_1_);}
	.st45{fill-rule:evenodd;clip-rule:evenodd;fill:url(#Path_378_1_);}
	.st46{fill-rule:evenodd;clip-rule:evenodd;fill:url(#Path_379_1_);}
	.st47{fill:url(#Path_380_1_);}
	.st48{fill:url(#Path_381_1_);}
	.st49{fill:url(#Path_382_1_);}
	.st50{fill:url(#Path_383_1_);}
	.st51{fill:url(#Path_384_1_);}
	.st52{fill:url(#Path_385_1_);}
	.st53{fill:url(#Path_386_1_);}
	.st54{fill:url(#Ellipse_7_1_);}
	.st55{fill:url(#Path_387_1_);}
	.st56{fill:url(#Path_388_1_);}
	.st57{fill:url(#Path_389_1_);}
	.st58{fill:#00227E;}
	.st59{font-family:'TrebuchetMS';}
	.st60{font-size:58.97px;}
	.st61{font-family:'TrebuchetMS-Italic';}
	.st62{font-size:23.28px;}
</style>
<g id="welcome_banner_ai">
	<g id="Group_131">
		
			<linearGradient id="Photo-2_1_" gradientUnits="userSpaceOnUse" x1="-89.1331" y1="515.6505" x2="-88.3631" y2="515.6505" gradientTransform="matrix(1920 0 0 -905.57 171139 467309.25)">
			<stop  offset="0" style="stop-color:#8EC5FC"/>
			<stop  offset="1" style="stop-color:#E0C3FC"/>
		</linearGradient>
		<path id="Photo-2" class="st0" d="M0,0.4h1489.7V703H0V0.4z"/>
	</g>
	<g id="Group_149" class="st1">
		<g id="Group_138">
			<g id="Group_133">
				<g id="Group_132">
					
						<linearGradient id="Path_335_1_" gradientUnits="userSpaceOnUse" x1="-108.4613" y1="509.2942" x2="-107.6817" y2="509.2942" gradientTransform="matrix(33.35 0 0 -105.47 4966.2998 54103.1641)">
						<stop  offset="0" style="stop-color:#4158D0"/>
						<stop  offset="0.37" style="stop-color:#C850C0"/>
						<stop  offset="1" style="stop-color:#FFCC70"/>
					</linearGradient>
					<path id="Path_335" class="st2" d="M1354.6,424l20.6-70.1l-1.9-6.9c0.2,2.7-0.1,5.4-0.8,8c-1.1,3.9-3.3,7.3-6.3,9.9
						c-0.1,8-1.3,15.9-3.5,23.5s-5.5,14.8-9.8,21.5c1.2,3.8,1.2,7.9,0,11.8c-0.9,2.6-2.1,5-3.7,7.1L1354.6,424z"/>
				</g>
			</g>
			
				<linearGradient id="Path_336_1_" gradientUnits="userSpaceOnUse" x1="-103.957" y1="495.7076" x2="-103.177" y2="495.7076" gradientTransform="matrix(42.8 0 0 -36.1 5768.5601 18311.2422)">
				<stop  offset="0" style="stop-color:#4158D0"/>
				<stop  offset="0.37" style="stop-color:#C850C0"/>
				<stop  offset="1" style="stop-color:#FFCC70"/>
			</linearGradient>
			<path id="Path_336" class="st3" d="M1351.6,420.8c1.1-3.5,1.1-7.3-0.1-10.8l-26.4-7.8l-5.9,20.2l26.4,7.8
				C1348.5,427.8,1350.6,424.5,1351.6,420.8z"/>
			
				<linearGradient id="Path_337_1_" gradientUnits="userSpaceOnUse" x1="-101.7174" y1="505.103" x2="-100.9374" y2="505.103" gradientTransform="matrix(50.49 0 0 -66.83 6461.3101 34138.2852)">
				<stop  offset="0" style="stop-color:#4158D0"/>
				<stop  offset="0.37" style="stop-color:#C850C0"/>
				<stop  offset="1" style="stop-color:#FFCC70"/>
			</linearGradient>
			<path id="Path_337" class="st4" d="M1361.5,387.1c2.2-7.5,3.3-15.2,3.4-23l-26.2-7.8l-12.9,44.1l26.2,7.8
				C1356.2,401.6,1359.4,394.5,1361.5,387.1z"/>
			
				<linearGradient id="Path_338_1_" gradientUnits="userSpaceOnUse" x1="-104.1223" y1="495.1746" x2="-103.3423" y2="495.1746" gradientTransform="matrix(42.7 0 0 -36.1 5784.6802 18225.9023)">
				<stop  offset="0" style="stop-color:#4158D0"/>
				<stop  offset="0.37" style="stop-color:#C850C0"/>
				<stop  offset="1" style="stop-color:#FFCC70"/>
			</linearGradient>
			<path id="Path_338" class="st5" d="M1370.9,355c1.1-3.6,1.1-7.5,0-11.1l-26.4-7.8l-5.9,20.2l26.4,7.8
				C1367.9,361.7,1370,358.6,1370.9,355z"/>
			
				<linearGradient id="Path_339_1_" gradientUnits="userSpaceOnUse" x1="-110.3159" y1="504.0118" x2="-109.5459" y2="504.0118" gradientTransform="matrix(29.86 0 0 -60.98 4601.0898 31110.0391)">
				<stop  offset="0" style="stop-color:#4158D0"/>
				<stop  offset="0.37" style="stop-color:#C850C0"/>
				<stop  offset="1" style="stop-color:#FFCC70"/>
			</linearGradient>
			<path id="Path_339" class="st6" d="M1311,397.3L1311,397.3l19.2-42.7l-0.6-2.9l-3.4,1.8l-19.2,42.7l0.6,2.9L1311,397.3z"/>
			
				<linearGradient id="Path_340_1_" gradientUnits="userSpaceOnUse" x1="-110.2459" y1="504.0008" x2="-109.4659" y2="504.0008" gradientTransform="matrix(29.86 0 0 -60.98 4591.0103 31107.0703)">
				<stop  offset="0" style="stop-color:#4158D0"/>
				<stop  offset="0.37" style="stop-color:#C850C0"/>
				<stop  offset="1" style="stop-color:#FFCC70"/>
			</linearGradient>
			<path id="Path_340" class="st7" d="M1303.1,395L1303.1,395l19.2-42.7l-0.6-2.9l-3.4,1.8l-19.2,42.7l0.6,2.9L1303.1,395z"/>
			
				<linearGradient id="Path_341_1_" gradientUnits="userSpaceOnUse" x1="-110.1659" y1="503.9897" x2="-109.3959" y2="503.9897" gradientTransform="matrix(29.86 0 0 -60.98 4580.9302 31104.0938)">
				<stop  offset="0" style="stop-color:#4158D0"/>
				<stop  offset="0.37" style="stop-color:#C850C0"/>
				<stop  offset="1" style="stop-color:#FFCC70"/>
			</linearGradient>
			<path id="Path_341" class="st8" d="M1295.3,392.6L1295.3,392.6l19.2-42.6l-0.6-2.9l-3.4,1.8l-19.2,42.7l0.6,2.9L1295.3,392.6z"/>
			
				<linearGradient id="Path_342_1_" gradientUnits="userSpaceOnUse" x1="-110.0959" y1="503.9801" x2="-109.3159" y2="503.9801" gradientTransform="matrix(29.86 0 0 -60.98 4570.8398 31101.1094)">
				<stop  offset="0" style="stop-color:#4158D0"/>
				<stop  offset="0.37" style="stop-color:#C850C0"/>
				<stop  offset="1" style="stop-color:#FFCC70"/>
			</linearGradient>
			<path id="Path_342" class="st9" d="M1287.5,390.3L1287.5,390.3l19.2-42.7l-0.6-2.9l-3.4,1.8l-19.2,42.7l0.6,2.9L1287.5,390.3z"/>
			
				<linearGradient id="Path_343_1_" gradientUnits="userSpaceOnUse" x1="-109.5659" y1="503.8847" x2="-108.7859" y2="503.8847" gradientTransform="matrix(29.86 0 0 -60.98 4500.27 31079.2422)">
				<stop  offset="0" style="stop-color:#4158D0"/>
				<stop  offset="0.37" style="stop-color:#C850C0"/>
				<stop  offset="1" style="stop-color:#FFCC70"/>
			</linearGradient>
			<path id="Path_343" class="st10" d="M1232.7,374.2L1232.7,374.2l19.2-42.6l-0.6-2.9l-3.4,1.7l-19.2,42.7l0.6,2.9L1232.7,374.2z"
				/>
			
				<linearGradient id="Path_344_1_" gradientUnits="userSpaceOnUse" x1="-109.4859" y1="503.8752" x2="-108.7059" y2="503.8752" gradientTransform="matrix(29.86 0 0 -60.98 4490.1802 31076.2578)">
				<stop  offset="0" style="stop-color:#4158D0"/>
				<stop  offset="0.37" style="stop-color:#C850C0"/>
				<stop  offset="1" style="stop-color:#FFCC70"/>
			</linearGradient>
			<path id="Path_344" class="st11" d="M1224.9,371.8L1224.9,371.8l19.2-42.6l-0.6-2.9l-3.4,1.7l-19.2,42.7l0.6,2.9L1224.9,371.8z"
				/>
			
				<linearGradient id="Path_345_1_" gradientUnits="userSpaceOnUse" x1="-109.4059" y1="503.8642" x2="-108.6359" y2="503.8642" gradientTransform="matrix(29.86 0 0 -60.98 4480.1001 31073.2891)">
				<stop  offset="0" style="stop-color:#4158D0"/>
				<stop  offset="0.37" style="stop-color:#C850C0"/>
				<stop  offset="1" style="stop-color:#FFCC70"/>
			</linearGradient>
			<path id="Path_345" class="st12" d="M1217.1,369.5L1217.1,369.5l19.2-42.6l-0.6-2.9l-3.4,1.7l-19.2,42.7l0.6,2.9L1217.1,369.5z"
				/>
			
				<linearGradient id="Path_346_1_" gradientUnits="userSpaceOnUse" x1="-109.3359" y1="503.8536" x2="-108.5559" y2="503.8536" gradientTransform="matrix(29.86 0 0 -60.98 4470.02 31070.3438)">
				<stop  offset="0" style="stop-color:#4158D0"/>
				<stop  offset="0.37" style="stop-color:#C850C0"/>
				<stop  offset="1" style="stop-color:#FFCC70"/>
			</linearGradient>
			<path id="Path_346" class="st13" d="M1209.3,367.2L1209.3,367.2l19.2-42.6l-0.6-2.9l-3.4,1.7l-19.2,42.7l0.6,2.9L1209.3,367.2z"
				/>
			
				<linearGradient id="Path_347_1_" gradientUnits="userSpaceOnUse" x1="-110.8667" y1="503.4865" x2="-110.0967" y2="503.4865" gradientTransform="matrix(29.19 0 0 -58.26 4550.04 29712.2207)">
				<stop  offset="0" style="stop-color:#4158D0"/>
				<stop  offset="0.37" style="stop-color:#C850C0"/>
				<stop  offset="1" style="stop-color:#FFCC70"/>
			</linearGradient>
			<path id="Path_347" class="st14" d="M1317.6,400l5.8,1.7l12.9-44.1l-3.7-1.1l-19,42.3l0.6,2.9L1317.6,400z"/>
			
				<linearGradient id="Path_348_1_" gradientUnits="userSpaceOnUse" x1="-106.9472" y1="503.3063" x2="-106.1672" y2="503.3063" gradientTransform="matrix(33.68 0 0 -58.33 4798 29701.3086)">
				<stop  offset="0" style="stop-color:#4158D0"/>
				<stop  offset="0.37" style="stop-color:#C850C0"/>
				<stop  offset="1" style="stop-color:#FFCC70"/>
			</linearGradient>
			<path id="Path_348" class="st15" d="M1222.1,323.9l-0.7-2.9l-3.5,1.7l-6-1.8h-0.2l-0.1,0.2l-8.1,7.2l-7.6,25.9l2.9,10.5l-0.1,0.2
				h0.2l0.9,0.3l2.9,0.8L1222.1,323.9z"/>
			<g id="Group_135">
				<g id="Group_134">
					
						<linearGradient id="Path_349_1_" gradientUnits="userSpaceOnUse" x1="-107.1174" y1="509.2145" x2="-106.3474" y2="509.2145" gradientTransform="matrix(34.58 0 0 -105.79 4976.9302 54235.0547)">
						<stop  offset="0" style="stop-color:#4158D0"/>
						<stop  offset="0.37" style="stop-color:#C850C0"/>
						<stop  offset="1" style="stop-color:#FFCC70"/>
					</linearGradient>
					<path id="Path_349" class="st16" d="M1277.7,401.4l6.2-21l15.7-34.8l-0.6-2.9l-3.4,1.7l-4.8,12.5l7.6-25.8l-1.6-6.9
						c0.1,2.7-0.2,5.4-0.9,8c-1,3.8-3.1,7.3-6.1,10c-0.3,8-1.5,15.9-3.8,23.5c-2.2,7.6-5.4,14.9-9.5,21.7c1,3.9,0.9,7.9-0.3,11.7
						c-0.8,2.6-2,5-3.6,7.2L1277.7,401.4z"/>
				</g>
			</g>
			<g id="Group_137">
				<g id="Group_136">
					
						<linearGradient id="Path_350_1_" gradientUnits="userSpaceOnUse" x1="-105.3863" y1="509.2386" x2="-104.6063" y2="509.2386" gradientTransform="matrix(37.59 0 0 -105.78 5197.1401 54223.1094)">
						<stop  offset="0" style="stop-color:#4158D0"/>
						<stop  offset="0.37" style="stop-color:#C850C0"/>
						<stop  offset="1" style="stop-color:#FFCC70"/>
					</linearGradient>
					<path id="Path_350" class="st17" d="M1240.8,396.9c-0.1-2.7,0.2-5.4,0.9-8c1-3.8,3.1-7.3,6.1-10c0.3-7.9,1.5-15.8,3.7-23.4
						c2.3-7.6,5.5-15,9.5-21.8c-1-3.8-0.9-7.9,0.3-11.7c0.8-2.6,2-5,3.5-7.2l-5,4.9l-3.5,11.9l-1.5,0.8l-19.2,42.7l0.6,2.9l3.4-1.7
						l0,0l10.4-23.1l-10.8,37L1240.8,396.9z"/>
				</g>
			</g>
			
				<linearGradient id="Path_351_1_" gradientUnits="userSpaceOnUse" x1="-103.9798" y1="495.1267" x2="-103.1998" y2="495.1267" gradientTransform="matrix(41.28 0 0 -35.53 5535.1699 17985.6016)">
				<stop  offset="0" style="stop-color:#4158D0"/>
				<stop  offset="0.37" style="stop-color:#C850C0"/>
				<stop  offset="1" style="stop-color:#FFCC70"/>
			</linearGradient>
			<path id="Path_351" class="st18" d="M1274.2,398.2c1.1-3.5,1.2-7.3,0.3-10.9l-24.9-7.3c-2.7,2.5-4.6,5.7-5.6,9.3
				c-1.1,3.5-1.2,7.3-0.3,10.9l24.9,7.3C1271.3,405,1273.3,401.7,1274.2,398.2z"/>
			
				<linearGradient id="Path_352_1_" gradientUnits="userSpaceOnUse" x1="-101.5925" y1="504.9161" x2="-100.8225" y2="504.9161" gradientTransform="matrix(49.23 0 0 -66.63 6250.8999 34004.1133)">
				<stop  offset="0" style="stop-color:#4158D0"/>
				<stop  offset="0.37" style="stop-color:#C850C0"/>
				<stop  offset="1" style="stop-color:#FFCC70"/>
			</linearGradient>
			<path id="Path_352" class="st19" d="M1284.1,366.2c2.2-7.5,3.5-15.2,3.6-23l-25.2-7.5c-8.1,13.3-12.6,28.6-13,44.2l25.2,7.5
				C1278.7,380.8,1281.9,373.6,1284.1,366.2z"/>
			
				<linearGradient id="Path_353_1_" gradientUnits="userSpaceOnUse" x1="-104.1098" y1="494.5917" x2="-103.3298" y2="494.5917" gradientTransform="matrix(41.28 0 0 -35.53 5560.1899 17900.3438)">
				<stop  offset="0" style="stop-color:#4158D0"/>
				<stop  offset="0.37" style="stop-color:#C850C0"/>
				<stop  offset="1" style="stop-color:#FFCC70"/>
			</linearGradient>
			<path id="Path_353" class="st20" d="M1293.7,332c1.1-3.5,1.2-7.3,0.3-10.9l-24.9-7.4c-5.4,5.2-7.6,12.9-5.9,20.2l24.9,7.4
				C1290.7,338.8,1292.7,335.6,1293.7,332z"/>
		</g>
		<g id="Group_139">
			
				<linearGradient id="Path_354_1_" gradientUnits="userSpaceOnUse" x1="-90.413" y1="511.6852" x2="-89.633" y2="511.6852" gradientTransform="matrix(363.99 0 0 -159.76 33793.1211 82108.7891)">
				<stop  offset="0" style="stop-color:#4158D0"/>
				<stop  offset="0.37" style="stop-color:#C850C0"/>
				<stop  offset="1" style="stop-color:#FFCC70"/>
			</linearGradient>
			<path id="Path_354" class="st21" d="M883.7,391.2l1.2,1.7l35.8,6.2l-2.3,13.2c-1.1,5.4,2.4,10.6,7.8,11.7
				c5.4,1.1,10.6-2.4,11.7-7.8c0-0.2,0.1-0.3,0.1-0.5l0.7-3.9l24.7,4.3l1.7-1.1l4.2-24.1l31.4,5.5l0.6,4.4c0.5,4.1,4.2,7,8.3,6.5
				s7-4.2,6.5-8.3l5.8,1l0.6,4.4c0.6,4.1,4.4,6.8,8.5,6.2c3.9-0.6,6.6-4.1,6.3-8l5.8,1l0.6,4.4c0.2,1.2,0.6,2.3,1.3,3.3
				c2.4,3.4,7,4.2,10.3,1.8c2.2-1.5,3.4-4.1,3.1-6.8l5.9,1l0.6,4.4c0.5,4.1,4.2,7,8.2,6.5s7-4.2,6.5-8.2l5.8,1l0.6,4.4
				c0.5,4.1,4.2,7,8.2,6.5s7-4.2,6.5-8.2l0,0l36.2,6.3l0.9-0.2l27.9-17l0.4-2.1l-20.6-25.4l-0.9-0.5l-50.4-8.8l-0.5-3.7
				c-0.2-1.2-0.6-2.3-1.3-3.3c-1.6-2.3-4.3-3.5-7.1-3.1c-3.7,0.5-6.4,3.6-6.4,7.3l-5.9-1l-0.5-3.7c-0.1-1.2-0.6-2.3-1.3-3.3
				c-2.3-3.4-7-4.2-10.3-1.8c-2,1.4-3.2,3.7-3.2,6.1l-5.9-1l-0.5-3.7c-0.5-4.1-4.2-6.9-8.3-6.4c-3.7,0.5-6.5,3.7-6.5,7.4l-5.9-1
				l-0.5-3.7c-0.2-1.2-0.6-2.3-1.3-3.3c-2.4-3.4-7-4.2-10.4-1.8c-2,1.4-3.1,3.6-3.1,6.1l-5.9-1l-0.5-3.7c-0.2-1.2-0.6-2.3-1.3-3.3
				c-2.3-3.4-6.9-4.2-10.3-1.9c-2,1.4-3.2,3.7-3.2,6.1l-17.3-3l4.1-24.1l-1.2-1.6l-24.7-4.3l0.7-3.9c0.4-2.6-0.2-5.3-1.7-7.4
				c-3.1-4.5-9.3-5.6-13.8-2.5c-2.2,1.5-3.6,3.8-4.1,6.4v0.1l-2.3,13.2L898,315l-1.7,1.2L883.7,391.2z M1087.1,358.1
				c2.5-0.3,4.9,1.5,5.2,4l7,51.5c0.2,1.2-0.2,2.5-0.9,3.4c-0.7,1-1.8,1.6-3,1.8c-2.5,0.3-4.9-1.5-5.2-4l-6.9-51.5
				C1082.9,360.8,1084.6,358.4,1087.1,358.1L1087.1,358.1z M1065.7,354.4c1.7-0.2,3.4,0.5,4.4,1.9c0.4,0.6,0.7,1.3,0.8,2l7,51.5
				c0.2,1.2-0.2,2.4-0.9,3.4c-0.7,1-1.8,1.6-3,1.8c-1.7,0.2-3.4-0.5-4.4-1.9c-0.4-0.6-0.7-1.3-0.8-2l-7-51.5
				C1061.5,357.1,1063.2,354.7,1065.7,354.4L1065.7,354.4z M1044.4,350.6c1.7-0.2,3.4,0.5,4.4,1.9c0.4,0.6,0.7,1.3,0.8,2.1l7,51.5
				c0.4,2.5-1.4,4.8-3.9,5.2c-1.2,0.2-2.4-0.1-3.4-0.8c-0.4-0.3-0.7-0.7-1-1.1c-0.4-0.6-0.7-1.3-0.8-2l-6.9-51.5
				C1040.2,353.3,1041.9,351,1044.4,350.6L1044.4,350.6z M1023,346.9c2.5-0.3,4.8,1.4,5.2,3.9l7,51.5c0.2,1.2-0.1,2.4-0.9,3.4
				c-1.5,2-4.4,2.4-6.4,0.9l0,0c-0.4-0.3-0.7-0.6-1-1c-0.4-0.6-0.7-1.3-0.8-2l-7-51.5C1018.7,349.7,1020.4,347.4,1023,346.9
				L1023,346.9z M1001.6,343.2c1.7-0.3,3.4,0.5,4.4,1.9c0.4,0.6,0.7,1.3,0.8,2l7,51.5c0.3,2.5-1.4,4.9-3.9,5.2
				c-1.7,0.2-3.4-0.5-4.4-1.9c-0.4-0.6-0.7-1.3-0.8-2l-7-51.5C997.3,345.9,999.1,343.6,1001.6,343.2L1001.6,343.2z M939.3,307.6
				c0.7-3.9,4.4-6.5,8.2-5.8c3.9,0.7,6.5,4.4,5.8,8.2l0,0l-0.9,5.4l-16.3,94.2l-0.9,5.3c-0.7,3.9-4.4,6.5-8.3,5.8
				c-3.9-0.7-6.5-4.4-5.8-8.3l0,0L939.3,307.6z"/>
		</g>
		
			<linearGradient id="Path_355_1_" gradientUnits="userSpaceOnUse" x1="-93.2017" y1="511.9667" x2="-92.4217" y2="511.9667" gradientTransform="matrix(143.24 0 0 -188.45 14535.7002 96553.2344)">
			<stop  offset="0" style="stop-color:#4158D0"/>
			<stop  offset="0.37" style="stop-color:#C850C0"/>
			<stop  offset="1" style="stop-color:#FFCC70"/>
		</linearGradient>
		<path id="Path_355" class="st22" d="M1275,142.8c19-8.9,27.2-31.4,18.4-50.4l0,0c-0.5-1-1-2-1.5-2.9l-3.2-5.5l-16.3,9.5L1218.5,0
			l-32.7,19l53.9,93.4l-16.3,9.5l2.7,4.7C1235.9,143.7,1257.2,151.1,1275,142.8z M1202.2,24.8l11.4-6.6l6.6,11.5l-11.4,6.6
			L1202.2,24.8z M1214.5,46.1l11.4-6.6l6.6,11.5l-11.4,6.6L1214.5,46.1z M1226.8,67.4l11.4-6.6l6.6,11.5l-11.4,6.6L1226.8,67.4z
			 M1240,90.3l11.4-6.6l9.4,16.4l-11.4,6.6L1240,90.3z M1283,100.4c2.2,9.1-0.6,18.7-7.4,25.2l-4.3-7.4l-11.4,6.6l4.3,7.4
			c-9,2.7-18.7,0.4-25.4-6.1L1283,100.4z"/>
		
			<linearGradient id="Path_356_1_" gradientUnits="userSpaceOnUse" x1="-93.0479" y1="512.0778" x2="-92.2679" y2="512.0778" gradientTransform="matrix(160.12 0 0 -179.67 16243.8389 92255.5781)">
			<stop  offset="0" style="stop-color:#4158D0"/>
			<stop  offset="0.37" style="stop-color:#C850C0"/>
			<stop  offset="1" style="stop-color:#FFCC70"/>
		</linearGradient>
		<path id="Path_356" class="st23" d="M1400.3,182.8l-47.5,27.5c-4.5,2.6-7.3,7.5-7.3,12.7v55.1c0,5.2,2.8,10.1,7.3,12.7l47.5,27.5
			c4.5,2.6,10.1,2.6,14.6,0l47.5-27.5c4.5-2.6,7.3-7.5,7.3-12.7V223c0-5.2-2.8-10.1-7.3-12.7l-47.5-27.5
			C1410.4,180.2,1404.8,180.2,1400.3,182.8z M1406.8,282.3c-17.6,0.1-31.8-14.1-31.9-31.7s14.1-31.8,31.7-31.9s31.8,14.1,31.9,31.7
			l0,0v0.1C1438.5,268.1,1424.3,282.3,1406.8,282.3L1406.8,282.3L1406.8,282.3z"/>
		<g id="Group_140">
			
				<linearGradient id="Path_357_1_" gradientUnits="userSpaceOnUse" x1="-92.852" y1="511.2196" x2="-92.082" y2="511.2196" gradientTransform="matrix(167.31 0 0 -160.86 16872.4805 82309.2891)">
				<stop  offset="0" style="stop-color:#4158D0"/>
				<stop  offset="0.37" style="stop-color:#C850C0"/>
				<stop  offset="1" style="stop-color:#FFCC70"/>
			</linearGradient>
			<path id="Path_357" class="st24" d="M1346.8,133l-10.1,3.9l4.3-9.9l119.7-114.9l5.7,6L1346.8,133z"/>
			
				<linearGradient id="Path_358_1_" gradientUnits="userSpaceOnUse" x1="-117.0387" y1="481.9534" x2="-116.2587" y2="481.9534" gradientTransform="matrix(24.25 0 0 -25.09 4294.4902 12106.6602)">
				<stop  offset="0" style="stop-color:#4158D0"/>
				<stop  offset="0.37" style="stop-color:#C850C0"/>
				<stop  offset="1" style="stop-color:#FFCC70"/>
			</linearGradient>
			<path id="Path_358" class="st25" d="M1459.5,4.7l15.8,16.6l-3,2.9l-15.8-16.6L1459.5,4.7z"/>
		</g>
		
			<linearGradient id="Path_359_1_" gradientUnits="userSpaceOnUse" x1="-91.9988" y1="512.8496" x2="-91.2288" y2="512.8496" gradientTransform="matrix(213.68 0 0 -200.99 20982.0176 103545.3438)">
			<stop  offset="0" style="stop-color:#4158D0"/>
			<stop  offset="0.37" style="stop-color:#C850C0"/>
			<stop  offset="1" style="stop-color:#FFCC70"/>
		</linearGradient>
		<path id="Path_359" class="st26" d="M1489,441.7l-51.8-52h-51.8v10.4c17.2,0,31.1,13.9,31.1,31.1l0,0v0.1l-93.3,93.6l20.8,20.8
			l93.3-93.6l20.7,20.8L1489,441.7z"/>
		<g id="Group_141">
			
				<linearGradient id="Path_360_1_" gradientUnits="userSpaceOnUse" x1="-92.8014" y1="511.4757" x2="-92.0314" y2="511.4757" gradientTransform="matrix(158.3 0 0 -137.55 15878.8994 70979.6875)">
				<stop  offset="0" style="stop-color:#4158D0"/>
				<stop  offset="0.37" style="stop-color:#C850C0"/>
				<stop  offset="1" style="stop-color:#FFCC70"/>
			</linearGradient>
			<path id="Path_360" class="st27" d="M1280.1,572.8h-61.4l-30.7,53.4l30.7,53.4h61.4l30.7-53.4L1280.1,572.8z M1249.1,651.7
				c-14.3,0-25.9-11.5-25.9-25.7c0-14.3,11.5-25.9,25.7-25.9c14.3,0,25.9,11.5,25.9,25.7l0,0v0.1
				C1274.9,640.1,1263.3,651.7,1249.1,651.7L1249.1,651.7z"/>
		</g>
		<g id="Group_142">
			
				<linearGradient id="Path_361_1_" gradientUnits="userSpaceOnUse" x1="-91.0784" y1="513.0746" x2="-90.3084" y2="513.0746" gradientTransform="matrix(235.84 0 0 -204.92 22281.1211 105716.75)">
				<stop  offset="0" style="stop-color:#4158D0"/>
				<stop  offset="0.37" style="stop-color:#C850C0"/>
				<stop  offset="1" style="stop-color:#FFCC70"/>
			</linearGradient>
			<path id="Path_361" class="st28" d="M938.2,498h-91.5L801,577.5l45.8,79.5h91.5l45.7-79.5L938.2,498z M892.5,621.7
				c-24.5,0.1-44.4-19.7-44.5-44.2s19.7-44.4,44.2-44.5s44.4,19.7,44.5,44.2l0,0v0.1C936.7,601.9,916.9,621.7,892.5,621.7z"/>
		</g>
		<g id="Group_143">
			
				<linearGradient id="Path_362_1_" gradientUnits="userSpaceOnUse" x1="-133.595" y1="473.3397" x2="-132.825" y2="473.3397" gradientTransform="matrix(13.11 0 0 -19.01 2879.3999 9195.0586)">
				<stop  offset="0" style="stop-color:#4158D0"/>
				<stop  offset="0.37" style="stop-color:#C850C0"/>
				<stop  offset="1" style="stop-color:#FFCC70"/>
			</linearGradient>
			<path id="Path_362" class="st29" d="M1127.8,195.8l9.4-6.3c1,7.6,1,14.2-0.1,14.7S1132.1,200.9,1127.8,195.8z"/>
			
				<linearGradient id="Path_363_1_" gradientUnits="userSpaceOnUse" x1="-117.74" y1="472.0949" x2="-116.97" y2="472.0949" gradientTransform="matrix(20.27 0 0 -18.54 3507.0901 8936.3398)">
				<stop  offset="0" style="stop-color:#4158D0"/>
				<stop  offset="0.37" style="stop-color:#C850C0"/>
				<stop  offset="1" style="stop-color:#FFCC70"/>
			</linearGradient>
			<path id="Path_363" class="st30" d="M1134.7,176.5c0.6,2,1,4.1,1.5,6.3l-12.2,8.1c-1.2-1.6-2.4-3.2-3.5-4.8L1134.7,176.5z"/>
			
				<linearGradient id="Path_364_1_" gradientUnits="userSpaceOnUse" x1="-113.7553" y1="476.5748" x2="-112.9756" y2="476.5748" gradientTransform="matrix(23.47 0 0 -20.7 3784.1001 10037.9492)">
				<stop  offset="0" style="stop-color:#4158D0"/>
				<stop  offset="0.37" style="stop-color:#C850C0"/>
				<stop  offset="1" style="stop-color:#FFCC70"/>
			</linearGradient>
			<path id="Path_364" class="st31" d="M1130.2,164.8l2.3,5.7l-15.6,10.4c-0.3-0.5-0.5-0.9-0.8-1.3l-1.9-4.1L1130.2,164.8z"/>
			
				<linearGradient id="Path_365_1_" gradientUnits="userSpaceOnUse" x1="-113.0628" y1="477.7388" x2="-112.2927" y2="477.7388" gradientTransform="matrix(24.08 0 0 -21.21 3831.71 10294.3906)">
				<stop  offset="0" style="stop-color:#4158D0"/>
				<stop  offset="0.37" style="stop-color:#C850C0"/>
				<stop  offset="1" style="stop-color:#FFCC70"/>
			</linearGradient>
			<path id="Path_365" class="st32" d="M1125.5,153.3l2.3,5.7l-16.1,10.8l-2.5-5.5L1125.5,153.3z"/>
			
				<linearGradient id="Path_366_1_" gradientUnits="userSpaceOnUse" x1="-112.4048" y1="478.3065" x2="-111.6348" y2="478.3065" gradientTransform="matrix(24.69 0 0 -21.64 3879.3 10500.752)">
				<stop  offset="0" style="stop-color:#4158D0"/>
				<stop  offset="0.37" style="stop-color:#C850C0"/>
				<stop  offset="1" style="stop-color:#FFCC70"/>
			</linearGradient>
			<path id="Path_366" class="st33" d="M1120.8,141.8l2.3,5.7l-16.6,11.1l-2.5-5.6L1120.8,141.8z"/>
			
				<linearGradient id="Path_367_1_" gradientUnits="userSpaceOnUse" x1="-111.765" y1="478.9313" x2="-110.995" y2="478.9313" gradientTransform="matrix(25.32 0 0 -22 3928.6899 10675.2891)">
				<stop  offset="0" style="stop-color:#4158D0"/>
				<stop  offset="0.37" style="stop-color:#C850C0"/>
				<stop  offset="1" style="stop-color:#FFCC70"/>
			</linearGradient>
			<path id="Path_367" class="st34" d="M1116.1,130.3l2.3,5.6l-17.1,11.4l-2.5-5.5L1116.1,130.3z"/>
			
				<linearGradient id="Path_368_1_" gradientUnits="userSpaceOnUse" x1="-111.1531" y1="479.2834" x2="-110.3731" y2="479.2834" gradientTransform="matrix(25.96 0 0 -22.44 3978.9399 10882.5195)">
				<stop  offset="0" style="stop-color:#4158D0"/>
				<stop  offset="0.37" style="stop-color:#C850C0"/>
				<stop  offset="1" style="stop-color:#FFCC70"/>
			</linearGradient>
			<path id="Path_368" class="st35" d="M1111.4,118.7l2.3,5.7l-17.6,11.7l-2.6-5.5L1111.4,118.7z"/>
			
				<linearGradient id="Path_369_1_" gradientUnits="userSpaceOnUse" x1="-110.5827" y1="479.6957" x2="-109.8027" y2="479.6957" gradientTransform="matrix(26.57 0 0 -22.84 4026.53 11072.3008)">
				<stop  offset="0" style="stop-color:#4158D0"/>
				<stop  offset="0.37" style="stop-color:#C850C0"/>
				<stop  offset="1" style="stop-color:#FFCC70"/>
			</linearGradient>
			<path id="Path_369" class="st36" d="M1106.7,107.2l2.3,5.7l-18,12l-2.6-5.5L1106.7,107.2z"/>
			
				<linearGradient id="Path_370_1_" gradientUnits="userSpaceOnUse" x1="-110.0388" y1="480.3875" x2="-109.2688" y2="480.3875" gradientTransform="matrix(27.18 0 0 -23.25 4074.1499 11273.7598)">
				<stop  offset="0" style="stop-color:#4158D0"/>
				<stop  offset="0.37" style="stop-color:#C850C0"/>
				<stop  offset="1" style="stop-color:#FFCC70"/>
			</linearGradient>
			<path id="Path_370" class="st37" d="M1102,95.7l2.3,5.7l-18.5,12.4l-2.6-5.5L1102,95.7z"/>
			
				<linearGradient id="Path_371_1_" gradientUnits="userSpaceOnUse" x1="-109.5314" y1="480.9954" x2="-108.7514" y2="480.9954" gradientTransform="matrix(27.79 0 0 -23.68 4121.7402 11483.3711)">
				<stop  offset="0" style="stop-color:#4158D0"/>
				<stop  offset="0.37" style="stop-color:#C850C0"/>
				<stop  offset="1" style="stop-color:#FFCC70"/>
			</linearGradient>
			<path id="Path_371" class="st38" d="M1097.3,84.2l2.3,5.7l-19,12.7L1078,97L1097.3,84.2z"/>
			
				<linearGradient id="Path_372_1_" gradientUnits="userSpaceOnUse" x1="-109.0488" y1="481.0928" x2="-108.2688" y2="481.0928" gradientTransform="matrix(28.38 0 0 -24.05 4167.5698 11652.2813)">
				<stop  offset="0" style="stop-color:#4158D0"/>
				<stop  offset="0.37" style="stop-color:#C850C0"/>
				<stop  offset="1" style="stop-color:#FFCC70"/>
			</linearGradient>
			<path id="Path_372" class="st39" d="M1092.5,72.7l2.3,5.6l-19.4,13l-2.6-5.5L1092.5,72.7z"/>
			
				<linearGradient id="Path_373_1_" gradientUnits="userSpaceOnUse" x1="-108.575" y1="481.759" x2="-107.805" y2="481.759" gradientTransform="matrix(28.99 0 0 -24.48 4215.1899 11864.0596)">
				<stop  offset="0" style="stop-color:#4158D0"/>
				<stop  offset="0.37" style="stop-color:#C850C0"/>
				<stop  offset="1" style="stop-color:#FFCC70"/>
			</linearGradient>
			<path id="Path_373" class="st40" d="M1087.8,61.1l2.3,5.7l-19.9,13.3l-2.6-5.5L1087.8,61.1z"/>
			
				<linearGradient id="Path_374_1_" gradientUnits="userSpaceOnUse" x1="-96.5593" y1="504.4271" x2="-95.7793" y2="504.4271" gradientTransform="matrix(73.73 0 0 -71.1 8150.4702 35905.1406)">
				<stop  offset="0" style="stop-color:#4158D0"/>
				<stop  offset="0.37" style="stop-color:#C850C0"/>
				<stop  offset="1" style="stop-color:#FFCC70"/>
			</linearGradient>
			<path id="Path_374" class="st41" d="M1086.7,18.9l-5.5,26.1l3.9,9.4L1064.7,68l-6.1-13.1l-22.8-13.7c-3.4,1.3-6.2-4.2-2.5-5.7
				l50.9-22.4c1.5-0.8,3.4-0.2,4.2,1.4c0.8,1.5,0.2,3.4-1.4,4.2l0,0C1086.9,18.9,1086.8,18.9,1086.7,18.9z"/>
		</g>
		
			<linearGradient id="Path_375_1_" gradientUnits="userSpaceOnUse" x1="-90.6314" y1="513.8833" x2="-89.8614" y2="513.8833" gradientTransform="matrix(311.85 0 0 -312.89 29131.3887 160990)">
			<stop  offset="0" style="stop-color:#4158D0"/>
			<stop  offset="0.37" style="stop-color:#C850C0"/>
			<stop  offset="1" style="stop-color:#FFCC70"/>
		</linearGradient>
		<path id="Path_375" class="st42" d="M892.3,183.9c1.3,1.3,3.4,1.3,4.7,0l0,0l0,0l14.5-14.5l0,0c0.9-0.9,2.4-0.9,3.3,0l41.9,42
			c0.8,0.8,1.9,1.1,2.9,0.9l6.3-1.1l-1.2,4.6c-0.2,0.9,0.3,1.8,1.2,2.1l0,0c0.4,0.1,0.7,0.1,1.1-0.1l5.3-2.1l6.2,6.2l-1.7,6.1
			c-0.3,0.9,0.3,1.8,1.1,2.1l0,0c0.4,0.1,0.7,0.1,1.1-0.1l5.3-2.1l6.2,6.2L989,240c-0.2,0.9,0.3,1.8,1.2,2.1
			c0.4,0.1,0.7,0.1,1.1-0.1l5.3-2.1l6.2,6.2l-1.7,6.1c-0.3,0.9,0.3,1.8,1.1,2.1l0,0c0.4,0.1,0.7,0.1,1.1-0.1l5.3-2.1l6.2,6.2
			l-1.7,6.1c-0.2,0.9,0.3,1.8,1.2,2.1c0.3,0.1,0.7,0.1,1.1-0.1l5.3-2.1l6.2,6.2l-1.7,6.1c-0.2,0.9,0.3,1.8,1.2,2.1l0,0
			c0.4,0.1,0.7,0.1,1.1-0.1l5.3-2.1l6.2,6.2l-1.7,6.1c-0.2,0.9,0.3,1.8,1.2,2.1c0.3,0.1,0.7,0.1,1.1-0.1l5.3-2.1l6.2,6.2l-1.7,6.1
			c-0.2,0.9,0.3,1.8,1.2,2.1l0,0c0.1,0,0.3,0.1,0.4,0.1c0.2,0,0.4,0,0.6-0.1l7.6-3l5.5,2.7l-0.8,3.2c-0.2,0.6,0,1.3,0.5,1.7
			c0.3,0.3,0.7,0.4,1.1,0.4c0.2,0,0.4-0.1,0.6-0.1l5-2l7.7,3.8l-0.4,2.9c-0.1,0.9,0.5,1.8,1.4,1.9c0.3,0,0.7,0,1-0.2l3.7-1.8
			l19.9,9.8c0.5,0.2,1,0.3,1.5,0.3c1.9,0,3.4-1.5,3.3-3.4c0-0.5-0.1-1-0.3-1.5l-11.1-22.7l1.7-6.1c0.3-0.9-0.3-1.8-1.2-2.1
			c-0.4-0.1-0.8-0.1-1.1,0.1l-2.8,1.2l-3.9-7.9l2.4-7.4c0.2-0.6,0-1.3-0.4-1.7c-0.4-0.5-1.1-0.6-1.7-0.4l-4.3,1.4l-2.6-5.4
			c-0.2-0.3-0.4-0.6-0.6-0.9l-1.3-1.3l2.1-5.4c0.3-0.9-0.1-1.8-0.9-2.2l0,0c-0.3-0.1-0.7-0.2-1.1-0.1l-6,1.7l-6.2-6.2l2.1-5.3
			c0.3-0.9-0.1-1.8-0.9-2.2l0,0c-0.3-0.1-0.7-0.2-1.1-0.1l-6.1,1.6l-6.2-6.2l2.1-5.3c0.3-0.9-0.1-1.8-0.9-2.2l0,0
			c-0.3-0.1-0.7-0.2-1.1-0.1l-6,1.6l-6.2-6.2l2.1-5.3c0.3-0.9-0.1-1.8-0.9-2.2c-0.3-0.1-0.7-0.2-1.1-0.1l-6.1,1.6l-6.2-6.2l2.1-5.4
			c0.3-0.9-0.1-1.8-0.9-2.2l0,0c-0.3-0.1-0.7-0.2-1.1-0.1l-6.1,1.7l-6.2-6.2l2.1-5.4c0.3-0.9-0.1-1.8-0.9-2.2
			c-0.3-0.1-0.7-0.2-1.1-0.1l-6,1.7l-6.2-6.2l2.1-5.4c0.3-0.9-0.1-1.8-0.9-2.2l0,0c-0.3-0.1-0.7-0.2-1.1-0.1l-6,1.7l-5.2-5.2l1.3-8
			c0.2-1.1-0.2-2.2-0.9-2.9l-41.9-42c-0.9-0.9-0.9-2.4,0-3.3l14.5-14.6c1.3-1.3,1.3-3.4,0-4.8l-24.2-24.2c-0.6-0.6-1.5-1-2.4-1H935
			c-0.9,0-1.7,0.4-2.4,1l-64.4,64.7c-0.6,0.6-1,1.5-1,2.4v9.7c0,0.9,0.4,1.8,1,2.4L892.3,183.9z M893.8,176.7L875,157.8
			c2.6-11,13.6-13,16.6-13.4l17.3,17.3L893.8,176.7z M911.2,159.3l-17.1-17.2c1.6-5.9,7-14.1,13.8-21s15-12.2,20.9-13.9l17.1,17.2
			l-7.5,7.6L911.2,159.3z M1092.9,302l4.6,9.5l-8.5-4.2L1092.9,302z M1085.6,287l2.5,5.1l-7.6,10.9l-4.5-2.2L1085.6,287z
			 M1077.6,270.7l2.6,5.2l-13.6,20.2l-3.9-2L1077.6,270.7z M1065.6,258.3l4,4l-16.4,25.7l-4-4L1065.6,258.3z M1053.5,246.2l4,4
			l-16.4,25.8l-4-4L1053.5,246.2z M1041.4,234.1l4,4l-16.4,25.8l-4-4L1041.4,234.1z M1029.3,222l4,4l-16.4,25.7l-4-4L1029.3,222z
			 M1017.3,209.9l4,4l-16.4,25.7l-4-4L1017.3,209.9z M1005.2,197.8l4,4l-16.4,25.7l-4-4L1005.2,197.8z M997.1,189.6l-16.4,25.7l-4-4
			l16.4-25.7L997.1,189.6z M991.7,173l-0.2,1l-23.2,30c-0.3-0.1-0.7-0.1-1,0l-8,1.3l-40.7-40.8c-0.6-0.6-1.2-1-1.9-1.4l27.7-27.8
			l5-5c0.4,0.7,0.9,1.3,1.4,1.9L991.7,173z M944.3,88.3l18.9,18.9l-12.1,12.2l0,0l-2.8,2.9L931,104.8
			C931.3,101.9,933.3,90.8,944.3,88.3L944.3,88.3z M872.6,150.3l62.5-62.7h4.2c-9.2,4.3-11.5,14.3-12,17.9
			c-6.4,1.8-15,7.5-22.2,14.7s-12.8,15.8-14.7,22.3c-3.5,0.5-13.5,2.8-17.8,12.1V150.3z"/>
		<g id="Group_145">
			<g id="Group_144">
				
					<linearGradient id="Path_376_1_" gradientUnits="userSpaceOnUse" x1="-94.9533" y1="508.5616" x2="-94.1833" y2="508.5616" gradientTransform="matrix(100.37 0 0 -101.44 10703.0303 51812.9453)">
					<stop  offset="0" style="stop-color:#4158D0"/>
					<stop  offset="0.37" style="stop-color:#C850C0"/>
					<stop  offset="1" style="stop-color:#FFCC70"/>
				</linearGradient>
				<path id="Path_376" class="st43" d="M1248.9,234.5l-50.8-47.8c-2.3-2.2-6-2.1-8.2,0.3l0,0l-15.9,17c-2.2,2.4-2.1,6,0.3,8.2
					l12.7,11.9l-8.8,9.4l19.5,30.3l14.8-15.8l12.7,11.9c2.3,2.2,6,2.1,8.2-0.3l0,0l15.4-16.5c2.2-2.4,2.1-6-0.3-8.2"/>
				
					<linearGradient id="Path_377_1_" gradientUnits="userSpaceOnUse" x1="-105.9886" y1="500.4093" x2="-105.2086" y2="500.4093" gradientTransform="matrix(35 0 0 -49.62 4871.4902 25092.4609)">
					<stop  offset="0" style="stop-color:#4158D0"/>
					<stop  offset="0.37" style="stop-color:#C850C0"/>
					<stop  offset="1" style="stop-color:#FFCC70"/>
				</linearGradient>
				<path id="Path_377" class="st44" d="M1161.8,251.1l19.5,30.3l7.7-8.2l-19.5-30.3L1161.8,251.1z"/>
				
					<linearGradient id="Path_378_1_" gradientUnits="userSpaceOnUse" x1="-105.8583" y1="500.5083" x2="-105.0783" y2="500.5083" gradientTransform="matrix(35 0 0 -49.62 4851.04 25114.3711)">
					<stop  offset="0" style="stop-color:#4158D0"/>
					<stop  offset="0.37" style="stop-color:#C850C0"/>
					<stop  offset="1" style="stop-color:#FFCC70"/>
				</linearGradient>
				<path id="Path_378" class="st45" d="M1146,268.1l19.5,30.3l7.7-8.2l-19.5-30.3L1146,268.1z"/>
				
					<linearGradient id="Path_379_1_" gradientUnits="userSpaceOnUse" x1="-100.3536" y1="503.2171" x2="-99.5836" y2="503.2171" gradientTransform="matrix(51.24 0 0 -59.01 6260.27 29994.0801)">
					<stop  offset="0" style="stop-color:#4158D0"/>
					<stop  offset="0.37" style="stop-color:#C850C0"/>
					<stop  offset="1" style="stop-color:#FFCC70"/>
				</linearGradient>
				<path id="Path_379" class="st46" d="M1119.8,304.7l17,15.9c2.3,2.2,6,2.1,8.2-0.3l0,0l12.8-13.7l-19.5-30.3l-18.7,20.1
					C1117.4,298.8,1117.5,302.5,1119.8,304.7z"/>
			</g>
		</g>
		<g id="Group_146">
			
				<linearGradient id="Path_380_1_" gradientUnits="userSpaceOnUse" x1="-98.5555" y1="503.931" x2="-97.7755" y2="503.931" gradientTransform="matrix(62.74 0 0 -57.65 7361.0503 29557.8203)">
				<stop  offset="0" style="stop-color:#4158D0"/>
				<stop  offset="0.37" style="stop-color:#C850C0"/>
				<stop  offset="1" style="stop-color:#FFCC70"/>
			</linearGradient>
			<path id="Path_380" class="st47" d="M1201.4,528.6l25.1-5l-24-37.1c-0.4-0.8-0.6-1.8-0.5-2.7l-24.2,4.2
				C1202.9,530.6,1201.2,527.5,1201.4,528.6z"/>
			
				<linearGradient id="Path_381_1_" gradientUnits="userSpaceOnUse" x1="-97.8041" y1="504.1632" x2="-97.0341" y2="504.1632" gradientTransform="matrix(66.87 0 0 -59.03 7682.0103 30273.2539)">
				<stop  offset="0" style="stop-color:#4158D0"/>
				<stop  offset="0.37" style="stop-color:#C850C0"/>
				<stop  offset="1" style="stop-color:#FFCC70"/>
			</linearGradient>
			<path id="Path_381" class="st48" d="M1167.2,535.4l26.4-5.5c-2.1-3.8-23.4-38.6-23.2-40.3l-28.7,5.4
				C1142.6,496.5,1154.6,515.3,1167.2,535.4z"/>
			
				<linearGradient id="Path_382_1_" gradientUnits="userSpaceOnUse" x1="-93.2524" y1="510.2651" x2="-92.4724" y2="510.2651" gradientTransform="matrix(132.83 0 0 -114.66 13443.0996 59036.3984)">
				<stop  offset="0" style="stop-color:#4158D0"/>
				<stop  offset="0.37" style="stop-color:#C850C0"/>
				<stop  offset="1" style="stop-color:#FFCC70"/>
			</linearGradient>
			<path id="Path_382" class="st49" d="M1057,492.7l15.1,78.1c0.4,2,2.3,3.4,4.3,3h0.2l12.1-2.1c0.9-0.1,1.7-0.6,2.3-1.3l18.2-24.5
				l50.8-10.1c-23.8-38.8-25.2-37.4-24.1-40.4l-35.6,6.8l-24.7-16.6c-1-0.7-2.3-0.9-3.4-0.4l-12.6,3.6
				C1057.8,488.7,1056.6,490.6,1057,492.7z"/>
			
				<linearGradient id="Path_383_1_" gradientUnits="userSpaceOnUse" x1="-96.6217" y1="504.2303" x2="-95.8516" y2="504.2303" gradientTransform="matrix(79.76 0 0 -59.27 8915.79 30384.668)">
				<stop  offset="0" style="stop-color:#4158D0"/>
				<stop  offset="0.37" style="stop-color:#C850C0"/>
				<stop  offset="1" style="stop-color:#FFCC70"/>
			</linearGradient>
			<path id="Path_383" class="st50" d="M1234.3,521.4l0.1,0.5l19.8-3.9c1-0.1,1.9-0.7,2.5-1.6l13.5-20.2c1.2-1.8,0.7-4.2-1.1-5.4
				c-21.7-14.1-21.3-15.3-24-14.7l-36.2,6.9L1234.3,521.4z"/>
		</g>
		<g id="Group_147">
			
				<linearGradient id="Path_384_1_" gradientUnits="userSpaceOnUse" x1="-90.8567" y1="513.3529" x2="-90.0767" y2="513.3529" gradientTransform="matrix(223.02 0 0 -223.74 20798.541 115434.0938)">
				<stop  offset="0" style="stop-color:#4158D0"/>
				<stop  offset="0.37" style="stop-color:#C850C0"/>
				<stop  offset="1" style="stop-color:#FFCC70"/>
			</linearGradient>
			<path id="Path_384" class="st51" d="M698.8,530.8c-1.2-2.5-4.2-3.6-6.7-2.5l0,0l0,0l-5.6,2.6c-2.2,1-5.8-3.2-5.8-3.2l0,0
				c-4.4-5.3-9.4-9.9-15-13.8l0,0c0,0-4.6-3.2-3.7-5.5l2.1-5.8c1-2.6-0.4-5.5-3-6.5l-16.9-6.1c-2.6-1-5.5,0.4-6.5,3
				c0,0-1.2,3.5-2.1,5.8s-6.4,1.8-6.4,1.8l0,0c-6.8-0.6-13.6-0.3-20.4,0.9l0,0c0,0-5.5,1-6.5-1.2s-2.6-5.6-2.6-5.6
				c-1.2-2.5-4.2-3.6-6.7-2.5l0,0l-16.2,7.6c-2.5,1.2-3.6,4.2-2.5,6.8l2.6,5.6c1,2.3-3.2,5.8-3.2,5.8l0,0
				c-5.3,4.4-9.9,9.5-13.8,15.1l0,0c0,0-3.2,4.6-5.5,3.8s-5.8-2.1-5.8-2.1c-2.6-1-5.5,0.4-6.5,3l0,0l-6.1,16.8c-1,2.6,0.4,5.5,3,6.5
				l5.8,2.1c2.3,0.8,1.8,6.4,1.8,6.4l0,0c-0.6,6.8-0.3,13.7,0.9,20.4l0,0c0,0,1,5.5-1.2,6.5l-5.5,2.7c-2.5,1.2-3.6,4.2-2.5,6.8
				l7.6,16.2c1.2,2.5,4.2,3.6,6.8,2.5l0,0l5.5-2.6c2.2-1,5.8,3.2,5.8,3.2l0,0c4.4,5.3,9.4,9.9,15,13.8l0,0c0,0,4.6,3.2,3.7,5.5
				l-2.1,5.8c-1,2.6,0.4,5.5,3,6.5l16.8,6.1c2.6,1,5.5-0.3,6.4-2.9V660l0,0l2.1-5.8c0.8-2.3,6.3-1.8,6.3-1.8l0,0
				c6.8,0.6,13.7,0.3,20.4-0.9l0,0c0,0,5.5-1,6.5,1.2s2.6,5.6,2.6,5.6c1.1,2.5,4.1,3.6,6.6,2.5h0.1l0,0l16.3-7.6
				c2.5-1.2,3.6-4.2,2.5-6.8l-2.6-5.6c-1-2.3,3.2-5.8,3.2-5.8l0,0c5.2-4.4,9.9-9.5,13.8-15.1l0,0c0,0,3.1-4.6,5.5-3.7l5.8,2.1
				c2.6,1,5.5-0.4,6.5-3l0,0l6.1-16.8c1-2.6-0.4-5.5-3-6.5l-5.8-2.1c-2.3-0.8-1.8-6.4-1.8-6.4l0,0c0.6-6.8,0.3-13.7-0.9-20.4l0,0
				c0,0-1-5.5,1.2-6.5l5.5-2.6c2.5-1.2,3.6-4.2,2.5-6.8L698.8,530.8z M608.9,614c-20.8-7.5-31.5-30.4-24.1-51.1
				c7.5-20.8,30.4-31.5,51.1-24.1c20.7,7.5,31.5,30.3,24.1,51.1c0,0.1-0.1,0.1-0.1,0.2C652.4,610.8,629.6,621.4,608.9,614z"/>
			
				<linearGradient id="Path_385_1_" gradientUnits="userSpaceOnUse" x1="-102.2903" y1="494.8057" x2="-101.5202" y2="494.8057" gradientTransform="matrix(32.74 0 0 -32.74 3958.7102 16776.4082)">
				<stop  offset="0" style="stop-color:#4158D0"/>
				<stop  offset="0.37" style="stop-color:#C850C0"/>
				<stop  offset="1" style="stop-color:#FFCC70"/>
			</linearGradient>
			<path id="Path_385" class="st52" d="M619.1,564.2c-6.8,1.8-10.8,8.8-8.9,15.6c1.8,6.8,8.8,10.8,15.6,8.9
				c6.8-1.8,10.8-8.8,8.9-15.6l0,0l0,0C632.8,566.4,625.9,562.4,619.1,564.2L619.1,564.2z"/>
			
				<linearGradient id="Path_386_1_" gradientUnits="userSpaceOnUse" x1="-91.3637" y1="512.6182" x2="-90.5937" y2="512.6182" gradientTransform="matrix(188.95 0 0 -189.55 17915.6289 97622.2813)">
				<stop  offset="0" style="stop-color:#4158D0"/>
				<stop  offset="0.37" style="stop-color:#C850C0"/>
				<stop  offset="1" style="stop-color:#FFCC70"/>
			</linearGradient>
			<path id="Path_386" class="st53" d="M792.2,436.7l-5,0.5c-2,0.2-3.6-4.1-3.6-4.1h-0.1c-2-5.3-4.7-10.2-8-14.8v-0.1
				c0,0-2.7-3.7-1.5-5.3l3.2-4c1.4-1.8,1.2-4.4-0.6-5.9l-11.4-9.2c-1.8-1.4-4.4-1.2-5.9,0.6l0,0l0,0l-3.2,4
				c-1.3,1.6-5.5-0.3-5.5-0.3v0.1c-5.1-2.3-10.5-3.9-16.1-4.8v-0.1c0,0-4.5-0.7-4.7-2.7s-0.5-5-0.5-5c-0.2-2.3-2.3-4-4.6-3.7
				l-14.7,1.5c-2.3,0.3-3.9,2.3-3.7,4.6c0,0,0.3,3,0.5,5s-4,3.7-4,3.7v0.1c-5.2,2-10.2,4.7-14.7,8H688c0,0-3.7,2.7-5.3,1.5l-3.9-3.2
				c-1.8-1.5-4.4-1.2-5.9,0.6l0,0l0,0l-9.2,11.5c-1.5,1.8-1.2,4.4,0.6,5.9l3.9,3.2c1.6,1.3-0.3,5.5-0.3,5.5h0.1
				c-2.3,5.1-3.9,10.6-4.7,16.1h-0.1c0,0-0.7,4.5-2.7,4.8s-5,0.5-5,0.5c-2.3,0.3-4,2.3-3.7,4.6l1.6,14.7c0.2,2.3,2.2,4,4.5,3.8
				c0,0,0,0,0.1,0l0,0l5-0.5c2-0.2,3.6,4.1,3.6,4.1h0.1c2,5.3,4.7,10.2,8,14.7v0.1c0,0,2.7,3.7,1.4,5.3l-3.2,4
				c-1.5,1.8-1.2,4.4,0.6,5.9l11.4,9.2c1.8,1.4,4.4,1.2,5.8-0.6l0,0l3.2-3.9c1.3-1.6,5.5,0.3,5.5,0.3v-0.1
				c5.1,2.3,10.5,3.9,16.1,4.8v0.1c0,0,4.5,0.7,4.8,2.7s0.5,5,0.5,5c0.3,2.3,2.3,4,4.6,3.7l14.6-1.6c2.3-0.2,4-2.3,3.7-4.6l0,0
				c0,0-0.3-3-0.5-5s4.1-3.7,4.1-3.7v-0.1c5.2-2,10.2-4.7,14.7-8h0.1c0,0,3.7-2.7,5.3-1.5l3.9,3.2c1.8,1.4,4.4,1.2,5.8-0.6l0,0
				l9.2-11.5c1.4-1.8,1.2-4.4-0.6-5.9c0,0-2.3-1.9-3.9-3.2s0.3-5.5,0.3-5.5L782,481c2.3-5.1,3.9-10.6,4.7-16.1h0.1
				c0,0,0.7-4.5,2.7-4.8l5-0.5c2.3-0.3,4-2.3,3.7-4.6l-1.6-14.7C796.4,438.3,794.5,436.6,792.2,436.7z M699.5,434.9
				c11.4-14.3,32.3-16.7,46.6-5.3s16.7,32.3,5.3,46.6s-32.3,16.7-46.6,5.3c-14.2-11.3-16.7-32-5.6-46.3L699.5,434.9z"/>
			
				<linearGradient id="Ellipse_7_1_" gradientUnits="userSpaceOnUse" x1="-106.3118" y1="489.1264" x2="-105.5418" y2="489.1264" gradientTransform="matrix(26.88 0 0 -26.97 3572.4299 13647.3398)">
				<stop  offset="0" style="stop-color:#4158D0"/>
				<stop  offset="0.37" style="stop-color:#C850C0"/>
				<stop  offset="1" style="stop-color:#FFCC70"/>
			</linearGradient>
			<ellipse id="Ellipse_7" class="st54" cx="725.1" cy="455.6" rx="10.4" ry="10.5"/>
		</g>
		
			<linearGradient id="Path_387_1_" gradientUnits="userSpaceOnUse" x1="-92.9752" y1="512.2619" x2="-92.1952" y2="512.2619" gradientTransform="matrix(162.41 0 0 -162.86 16438.8398 84057.6953)">
			<stop  offset="0" style="stop-color:#4158D0"/>
			<stop  offset="0.37" style="stop-color:#C850C0"/>
			<stop  offset="1" style="stop-color:#FFCC70"/>
		</linearGradient>
		<path id="Path_387" class="st55" d="M1463.6,578.5l-9.9-10c-1.4-1.3-3.5-1.3-4.9,0l-39.8,40l-39.7-40c-1.3-1.3-3.4-1.4-4.8-0.1
			l-0.1,0.1l-24.6,24.6c-1.4,1.3-1.4,3.4-0.1,4.8l0.1,0.1l39.7,39.8l-34.7,35.1c-0.4,0.4-0.7,0.9-0.8,1.4l-5,14.9
			c-0.4,1.3-0.1,2.7,0.8,3.7c0.7,0.6,1.6,1,2.5,1c0.4,0,0.8,0,1.1-0.1l14.8-4.9c0.5-0.1,1-0.4,1.4-0.8l34.8-34.9l39.7,39.8
			c1.4,1.3,3.6,1.3,5,0l24.5-24.6c1.4-1.3,1.4-3.4,0.1-4.8l-0.1-0.1l-39.9-40l39.7-39.8C1464.9,582.2,1464.9,580,1463.6,578.5z
			 M1355.2,682.4l-7.4,2.5l2.5-7.4l91-91.3l4.9,4.9L1355.2,682.4z M1451.1,586l-4.9-4.9l4.9-4.9l4.9,4.9L1451.1,586z M1378.6,627.2
			l4.5-4.5c1.4-1.4,1.4-3.5,0-4.9s-3.5-1.4-4.9,0l0,0l-4.5,4.5l-5.6-5.6l4.5-4.5c1.4-1.3,1.5-3.5,0.2-4.9s-3.5-1.5-4.9-0.2
			c-0.1,0-0.1,0.1-0.2,0.2l0,0l-4.5,4.5l-5.6-5.6l4.5-4.5c1.3-1.4,1.2-3.6-0.1-4.9c-1.3-1.3-3.4-1.3-4.8,0l-4.5,4.5l-5.6-5.6
			l19.6-19.7l37.3,37.5l-19.6,19.6L1378.6,627.2z M1456.2,665.8l-19.6,19.6l-5.6-5.6l4.5-4.5c1.3-1.4,1.2-3.6-0.3-4.9
			c-1.3-1.2-3.3-1.2-4.6,0l-4.5,4.5l-5.6-5.6l4.5-4.5c1.3-1.4,1.2-3.6-0.1-4.9c-1.3-1.3-3.4-1.3-4.8,0l0,0l-4.5,4.5l-5.6-5.6
			l4.5-4.5c1.3-1.4,1.2-3.6-0.1-4.9c-1.3-1.3-3.4-1.3-4.8,0l-4.5,4.5l-5.9-5.9l19.6-19.7L1456.2,665.8z"/>
		<g id="Group_148">
			
				<linearGradient id="Path_388_1_" gradientUnits="userSpaceOnUse" x1="-92.004" y1="510.3452" x2="-91.2339" y2="510.3452" gradientTransform="matrix(181.44 0 0 -110.96 17686.5293 57287.8906)">
				<stop  offset="0" style="stop-color:#4158D0"/>
				<stop  offset="0.37" style="stop-color:#C850C0"/>
				<stop  offset="1" style="stop-color:#FFCC70"/>
			</linearGradient>
			<path id="Path_388" class="st56" d="M1125.2,623.9c-1.9-4.6-6.8-6.5-11.7-6.9c-5.3-0.4-10.5,0.5-15.4,2.6
				c-7.8,3.2-13.5,10.2-15,18.5l-56,23.5c-10.5-6.6-24.4-3.5-31,7s-3.5,24.4,7,31s24.4,3.5,31-7c1.4-2.2,2.4-4.7,3-7.3l56.1-23.5
				c7,4.7,15.9,5.6,23.7,2.3c4.9-2,9.2-5.2,12.6-9.2c3.1-3.8,5.2-8.6,3.2-13.1c-0.7-1.6-2.6-2.3-4.2-1.7l-17.7,7.4l-5-11.9l17.7-7.4
				C1125,627.4,1125.8,625.6,1125.2,623.9L1125.2,623.9z M1020.2,678.3l-0.4,6l-4.9,2.1c-1.5-1.3-3-2.6-4.6-3.9c0.1-2,0.3-4,0.4-6.1
				l4.9-2L1020.2,678.3z"/>
		</g>
		
			<linearGradient id="Path_389_1_" gradientUnits="userSpaceOnUse" x1="-90.4782" y1="512.6066" x2="-89.6982" y2="512.6066" gradientTransform="matrix(298.63 0 0 -216.79 27650.918 111228.9609)">
			<stop  offset="0" style="stop-color:#4158D0"/>
			<stop  offset="0.37" style="stop-color:#C850C0"/>
			<stop  offset="1" style="stop-color:#FFCC70"/>
		</linearGradient>
		<path id="Path_389" class="st57" d="M815.3,107.9L803,81.6L816.6,56l46.6,1.5c-9.9-23.8-32.8-39.7-58.6-40.6
			c-35.9-1-65.9,26.9-66.7,62.4c-0.2,2.5-0.1,4.9,0.3,7.4L645,136.4c-12.5,6.7-17.3,22.4-10.5,34.9l0,0c0,0.1,0.1,0.1,0.1,0.2
			c6.9,12.6,22.6,17.2,35.2,10.5l93.1-49.7c11,8.5,24.4,13.4,38.3,13.9c25.7,0.8,49.5-13.6,60.7-36.8L815.3,107.9z M653.9,171.6
			c-6.9-2.1-10.8-9.3-8.7-16.2s9.3-10.8,16.2-8.7s10.8,9.3,8.7,16.2c-2.1,6.8-9.2,10.7-16,8.7H653.9z"/>
	</g>
</g>
<g>
	<text transform="matrix(1 0 0 1 26.38 287.03)" class="st58 st59 st60">SRI RAGHAVENDRA INDUSTRIES</text>
	<text transform="matrix(1 0 0 1 26.38 341.35)" class="st58 st61 st62">An emerging and proficiently owned manufacturing industry.</text>
</g>
</svg>
