<svg id="Layer_1" data-name="Layer 1" xmlns="http://www.w3.org/2000/svg" xmlns:xlink="http://www.w3.org/1999/xlink" viewBox="0 0 1836 905.4"><defs><style>.cls-1{fill:url(#linear-gradient);}.cls-2,.cls-21{opacity:0.3;}.cls-3,.cls-4,.cls-5,.cls-6{fill-rule:evenodd;}.cls-3{fill:url(#New_Gradient_Swatch_1);}.cls-4{fill:url(#New_Gradient_Swatch_1-2);}.cls-5{fill:url(#New_Gradient_Swatch_1-3);}.cls-6{fill:url(#New_Gradient_Swatch_1-4);}.cls-7{fill:url(#New_Gradient_Swatch_1-5);}.cls-8{fill:url(#New_Gradient_Swatch_1-6);}.cls-9{fill:url(#New_Gradient_Swatch_1-7);}.cls-10{fill:url(#New_Gradient_Swatch_1-8);}.cls-11{fill:url(#New_Gradient_Swatch_1-9);}.cls-12{isolation:isolate;font-size:150px;fill:#00227e;font-family:TrebuchetMS, Trebuchet MS;}.cls-13{fill:url(#New_Gradient_Swatch_1-10);}.cls-14{fill:url(#New_Gradient_Swatch_1-11);}.cls-15{fill:url(#New_Gradient_Swatch_1-12);}.cls-16{fill:url(#New_Gradient_Swatch_1-13);}.cls-17{fill:url(#New_Gradient_Swatch_1-14);}.cls-18{fill:url(#New_Gradient_Swatch_1-15);}.cls-19{fill:url(#New_Gradient_Swatch_1-16);}.cls-20{fill:url(#New_Gradient_Swatch_1-17);}.cls-21{fill:url(#New_Gradient_Swatch_1-18);}</style><linearGradient id="linear-gradient" x1="297.67" y1="478.14" x2="298.61" y2="478.14" gradientTransform="translate(-571514 -432537.32) scale(1920 905.57)" gradientUnits="userSpaceOnUse"><stop offset="0" stop-color="#8ec5fc"/><stop offset="1" stop-color="#e0c3fc"/></linearGradient><linearGradient id="New_Gradient_Swatch_1" x1="1459.67" y1="412" x2="1747.16" y2="412" gradientUnits="userSpaceOnUse"><stop offset="0" stop-color="#4158d0"/><stop offset="0.52" stop-color="#c850c0"/><stop offset="0.7" stop-color="#dd80a1"/><stop offset="1" stop-color="#ffcc70"/></linearGradient><linearGradient id="New_Gradient_Swatch_1-2" x1="1456.31" y1="549.6" x2="1701.82" y2="549.6" xlink:href="#New_Gradient_Swatch_1"/><linearGradient id="New_Gradient_Swatch_1-3" x1="1194.78" y1="549.6" x2="1440.3" y2="549.6" xlink:href="#New_Gradient_Swatch_1"/><linearGradient id="New_Gradient_Swatch_1-4" x1="1149.46" y1="412" x2="1436.94" y2="412" xlink:href="#New_Gradient_Swatch_1"/><linearGradient id="New_Gradient_Swatch_1-5" x1="1439.28" y1="185.36" x2="1575.74" y2="185.36" xlink:href="#New_Gradient_Swatch_1"/><linearGradient id="New_Gradient_Swatch_1-6" x1="1329.27" y1="183.46" x2="1403.15" y2="183.46" xlink:href="#New_Gradient_Swatch_1"/><linearGradient id="New_Gradient_Swatch_1-7" x1="1519.05" y1="302.43" x2="1592.93" y2="302.43" xlink:href="#New_Gradient_Swatch_1"/><linearGradient id="New_Gradient_Swatch_1-8" x1="1401.54" y1="278.51" x2="1475.42" y2="278.51" xlink:href="#New_Gradient_Swatch_1"/><linearGradient id="New_Gradient_Swatch_1-9" x1="1275.21" y1="296.01" x2="1369.94" y2="296.01" xlink:href="#New_Gradient_Swatch_1"/><linearGradient id="New_Gradient_Swatch_1-10" x1="48.55" y1="762.97" x2="861.49" y2="762.97" xlink:href="#New_Gradient_Swatch_1"/><linearGradient id="New_Gradient_Swatch_1-11" x1="102.3" y1="702.04" x2="156.53" y2="702.04" xlink:href="#New_Gradient_Swatch_1"/><linearGradient id="New_Gradient_Swatch_1-12" x1="237.87" y1="702.04" x2="292.1" y2="702.04" xlink:href="#New_Gradient_Swatch_1"/><linearGradient id="New_Gradient_Swatch_1-13" x1="332.77" y1="702.04" x2="387" y2="702.04" xlink:href="#New_Gradient_Swatch_1"/><linearGradient id="New_Gradient_Swatch_1-14" x1="427.67" y1="702.04" x2="481.9" y2="702.04" xlink:href="#New_Gradient_Swatch_1"/><linearGradient id="New_Gradient_Swatch_1-15" x1="522.57" y1="702.04" x2="576.79" y2="702.04" xlink:href="#New_Gradient_Swatch_1"/><linearGradient id="New_Gradient_Swatch_1-16" x1="617.46" y1="702.04" x2="671.69" y2="702.04" xlink:href="#New_Gradient_Swatch_1"/><linearGradient id="New_Gradient_Swatch_1-17" x1="753.03" y1="702.04" x2="807.26" y2="702.04" xlink:href="#New_Gradient_Swatch_1"/><linearGradient id="New_Gradient_Swatch_1-18" x1="75.19" y1="139.21" x2="341.64" y2="139.21" xlink:href="#New_Gradient_Swatch_1"/></defs><title>product banner</title><g id="Group_131" data-name="Group 131"><path id="Photo-2" class="cls-1" d="M0,.25H1836V905.32H0Z" transform="translate(0 0.08)"/></g><g class="cls-2"><polygon class="cls-3" points="1690.06 357.48 1459.67 344.5 1516.77 479.49 1747.16 466.51 1690.06 357.48"/><polygon class="cls-4" points="1456.31 365.87 1509.89 491.27 1701.82 481.12 1701.82 668.35 1456.31 733.33 1456.31 365.87"/><polygon class="cls-5" points="1440.3 365.87 1440.3 733.33 1194.78 668.35 1194.78 481.12 1386.72 491.27 1440.3 365.87"/><polygon class="cls-6" points="1206.55 357.48 1149.46 466.51 1379.85 479.49 1436.94 344.5 1206.55 357.48"/><path class="cls-7" d="M1575.74,185.36c0,34.7-30.61,63-68.23,63s-68.23-28.28-68.23-63,30.59-63,68.23-63S1575.74,150.63,1575.74,185.36Z" transform="translate(0 0.08)"/><path class="cls-8" d="M1403.15,183.47c0,18.79-16.57,34.11-36.93,34.1s-37-15.31-37-34.1,16.56-34.12,37-34.12S1403.15,164.66,1403.15,183.47Z" transform="translate(0 0.08)"/><path class="cls-9" d="M1592.93,302.43c0,18.79-16.56,34.11-36.94,34.11s-36.94-15.32-36.94-34.11,16.55-34.11,36.94-34.11S1592.93,283.63,1592.93,302.43Z" transform="translate(0 0.08)"/><path class="cls-10" d="M1475.42,278.51c0,18.79-16.55,34.11-36.94,34.11s-36.94-15.32-36.94-34.11,16.56-34.11,36.94-34.11S1475.42,259.7,1475.42,278.51Z" transform="translate(0 0.08)"/><path class="cls-11" d="M1369.94,296c0,24.09-21.24,43.74-47.37,43.73s-47.36-19.64-47.36-43.73,21.23-43.74,47.36-43.74S1369.94,271.89,1369.94,296Z" transform="translate(0 0.08)"/></g><text class="cls-12" transform="translate(75.19 584.43) scale(0.96 1)">PRODUCTS</text><text class="cls-12" transform="translate(75.19 411.99) scale(0.96 1)">OUR</text><g class="cls-2"><path class="cls-13" d="M766.59,620.62H658.14m-27.12,0H129.42a81.34,81.34,0,0,0-13.56,161.46V878.2H88.75v27.12h81.34V878.2H143V783.31H766.59V878.2H739.48v27.12h81.34V878.2H793.7V782.08a81.24,81.24,0,0,0,0-160.24M129.42,756.19A54.23,54.23,0,1,1,183.64,702,54.23,54.23,0,0,1,129.42,756.19Zm590.26,0H189.88a80.85,80.85,0,0,0,0-108.45h529.8A80.87,80.87,0,0,0,719.68,756.19Zm60.47,0A54.23,54.23,0,1,1,834.37,702,54.23,54.23,0,0,1,780.15,756.19Z" transform="translate(0 0.08)"/><circle class="cls-14" cx="129.42" cy="702.04" r="27.11"/><circle class="cls-15" cx="264.99" cy="702.04" r="27.11"/><circle class="cls-16" cx="359.88" cy="702.04" r="27.11"/><circle class="cls-17" cx="454.78" cy="702.04" r="27.11"/><circle class="cls-18" cx="549.68" cy="702.04" r="27.11"/><circle class="cls-19" cx="644.58" cy="702.04" r="27.11"/><circle class="cls-20" cx="780.15" cy="702.04" r="27.11"/></g><path class="cls-21" d="M135.74-.08V177.73l-58.3,81.63a12.12,12.12,0,0,0,9.85,19.15H329.54a12.12,12.12,0,0,0,9.85-19.15l-58.3-81.63V-.08H256.87V24.15H160V-.08ZM160,96.82h96.9v24.23H160Zm0,48.45h96.9v24.22H160Zm102.77,48.45L306,254.28H110.83l43.26-60.56ZM256.87,48.37V72.6H160V48.37Z" transform="translate(0 0.08)"/></svg>