<svg id="Layer_1" data-name="Layer 1" xmlns="http://www.w3.org/2000/svg" xmlns:xlink="http://www.w3.org/1999/xlink" viewBox="0 0 55.27 76.29"><defs><style>.cls-1{opacity:0.3;}.cls-2{fill:#7fc0ff;}.cls-3{fill:url(#linear-gradient);}.cls-4{fill:none;}</style><linearGradient id="linear-gradient" x1="-909.08" y1="601.48" x2="-909.03" y2="601.55" gradientTransform="matrix(188.19, 0, 0, -188.19, 171141.43, 113235.84)" gradientUnits="userSpaceOnUse"><stop offset="0" stop-color="#a9c9ff"/><stop offset="1" stop-color="#ffbbec"/></linearGradient></defs><title>policy_bg</title><g id="quality_policy_svg" data-name="quality policy svg" class="cls-1"><path id="Path_406" data-name="Path 406" class="cls-2" d="M72.85,44.05H71.13l-1.47.86a1.19,1.19,0,0,1-1.07,0l-1.47-.86H65.45a1.1,1.1,0,0,1-.94-.53l-.7-1.47-1.52-.86a1.14,1.14,0,0,1-.54-.94V38.53l-.83-1.45a1.17,1.17,0,0,1,0-1.06l.83-1.45V32.83a1.31,1.31,0,0,1,0-.28H24.11a1.64,1.64,0,0,0-1.59,1.69h0V42l1.59.33a6.53,6.53,0,0,1,5.07,6.33V69.2A24.25,24.25,0,0,1,23.3,85.36c-.3.35-.63.68-.93,1v16.26a1.65,1.65,0,0,0,1.57,1.73H58.36V94.23a5.07,5.07,0,0,1,5.07-5.07H73.56V43.57a1.11,1.11,0,0,1-.71.48ZM60,82H36.25a1.7,1.7,0,1,1,0-3.39H60A1.7,1.7,0,0,1,60,82Zm0-10.13H36.25a1.72,1.72,0,1,1-.42-3.42,1.48,1.48,0,0,1,.42,0H60a1.72,1.72,0,0,1,0,3.42Zm0-10.13H36.25a1.72,1.72,0,0,1-1.72-1.72h0a1.7,1.7,0,0,1,1.69-1.7H60a1.7,1.7,0,0,1,1.69,1.7A1.72,1.72,0,0,1,60,61.58Zm0-10.26H36.25a1.72,1.72,0,1,1-.42-3.42,1.48,1.48,0,0,1,.42,0H60a1.72,1.72,0,0,1,0,3.42Z" transform="translate(-22.37 -28.07)"/><path id="Path_407" data-name="Path 407" d="M63.5,92.3A1.69,1.69,0,0,0,61.78,94v10.16l12-12Z" transform="translate(-22.37 -28.07)"/><path id="Path_408" data-name="Path 408" class="cls-3" d="M77.48,36l-.86-1.5V32.83a1.09,1.09,0,0,0-.53-.91l-1.44-.84-.89-1.5a1.1,1.1,0,0,0-.91-.53H71.13l-1.47-.83a1,1,0,0,0-1.07,0l-1.47.83H65.45a1.13,1.13,0,0,0-.93.53l-.84,1.47-1.52.87a1.09,1.09,0,0,0-.53.91v1.74L60.79,36a1.17,1.17,0,0,0,0,1.06l.84,1.45v1.72a1.1,1.1,0,0,0,.53.94l1.52.86.84,1.47a1.07,1.07,0,0,0,.93.53h1.67l1.47.86a1.19,1.19,0,0,0,1.07,0l1.47-.86h1.72a1,1,0,0,0,.91-.53l.89-1.5,1.44-.83a1.06,1.06,0,0,0,.53-.92V38.6l.86-1.52a1,1,0,0,0,0-1.06Zm-9.32,3.42L65.35,36.6l1-1,1.77,1.77,3.73-3.7,1,1Z" transform="translate(-22.37 -28.07)"/><line id="Line_4" data-name="Line 4" class="cls-4" x1="0.15" y1="13.91" x2="0.15" y2="58.31"/></g></svg>