<svg id="Layer_1" data-name="Layer 1" xmlns="http://www.w3.org/2000/svg" xmlns:xlink="http://www.w3.org/1999/xlink" viewBox="0 0 88 87.76"><defs><style>.cls-1{opacity:0.3;}.cls-2{fill:#7fc0ff;}.cls-3{fill:url(#linear-gradient);}.cls-4{fill:url(#linear-gradient-2);}.cls-5{fill:url(#linear-gradient-3);}.cls-6{fill:url(#linear-gradient-4);}.cls-7{fill:url(#linear-gradient-5);}.cls-8{fill:url(#linear-gradient-6);}.cls-9{fill:url(#linear-gradient-7);}.cls-10{fill:url(#linear-gradient-8);}.cls-11{fill:url(#linear-gradient-9);}.cls-12{fill:url(#linear-gradient-10);}.cls-13{fill:url(#linear-gradient-11);}.cls-14{fill:url(#linear-gradient-12);}.cls-15{fill:url(#linear-gradient-13);}.cls-16{fill:url(#linear-gradient-14);}.cls-17{fill:url(#linear-gradient-15);}.cls-18{fill:url(#linear-gradient-16);}.cls-19{fill:url(#linear-gradient-17);}.cls-20{fill:url(#linear-gradient-18);}.cls-21{fill:url(#linear-gradient-19);}.cls-22{fill:url(#linear-gradient-20);}.cls-23{fill:url(#linear-gradient-21);}.cls-24,.cls-25,.cls-26,.cls-27{fill-rule:evenodd;}.cls-24{fill:url(#linear-gradient-22);}.cls-25{fill:url(#linear-gradient-23);}.cls-26{fill:url(#linear-gradient-24);}.cls-27{fill:url(#linear-gradient-25);}</style><linearGradient id="linear-gradient" x1="-899.22" y1="601.44" x2="-899.11" y2="601.44" gradientTransform="matrix(18.26, 0, 0, -52.77, 16453.84, 31780.48)" gradientUnits="userSpaceOnUse"><stop offset="0" stop-color="#a9c9ff"/><stop offset="1" stop-color="#ffbbec"/></linearGradient><linearGradient id="linear-gradient-2" x1="-901.89" y1="598.86" x2="-901.78" y2="598.86" gradientTransform="matrix(23.23, 0, 0, -20.3, 20980.33, 12196.4)" xlink:href="#linear-gradient"/><linearGradient id="linear-gradient-3" x1="-902.51" y1="601" x2="-902.39" y2="601" gradientTransform="matrix(26.38, 0, 0, -34.5, 23843.09, 20779.69)" xlink:href="#linear-gradient"/><linearGradient id="linear-gradient-4" x1="-901.44" y1="600.88" x2="-901.32" y2="600.88" gradientTransform="matrix(23.23, 0, 0, -20.3, 20967.25, 12242.49)" xlink:href="#linear-gradient"/><linearGradient id="linear-gradient-5" x1="-899.65" y1="600.92" x2="-899.54" y2="600.92" gradientTransform="matrix(16.24, 0, 0, -30.44, 14640.83, 18338.8)" xlink:href="#linear-gradient"/><linearGradient id="linear-gradient-6" x1="-898.7" y1="601.05" x2="-898.57" y2="601.05" gradientTransform="matrix(14.21, 0, 0, -32.47, 12802.56, 19562.29)" xlink:href="#linear-gradient"/><linearGradient id="linear-gradient-7" x1="-900.2" y1="600.98" x2="-900.09" y2="600.98" gradientTransform="matrix(16.24, 0, 0, -30.44, 14650.98, 18340.83)" xlink:href="#linear-gradient"/><linearGradient id="linear-gradient-8" x1="-899.33" y1="601.04" x2="-899.2" y2="601.04" gradientTransform="matrix(14.21, 0, 0, -30.44, 12811.79, 18343.46)" xlink:href="#linear-gradient"/><linearGradient id="linear-gradient-9" x1="-902.39" y1="601.33" x2="-902.28" y2="601.33" gradientTransform="matrix(16.24, 0, 0, -30.44, 14691.57, 18353)" xlink:href="#linear-gradient"/><linearGradient id="linear-gradient-10" x1="-901.83" y1="601.39" x2="-901.7" y2="601.39" gradientTransform="matrix(14.21, 0, 0, -30.44, 12853.29, 18355.04)" xlink:href="#linear-gradient"/><linearGradient id="linear-gradient-11" x1="-902.94" y1="601.45" x2="-902.83" y2="601.45" gradientTransform="matrix(16.24, 0, 0, -30.44, 14701.71, 18357.67)" xlink:href="#linear-gradient"/><linearGradient id="linear-gradient-12" x1="-903.28" y1="601.54" x2="-903.16" y2="601.54" gradientTransform="matrix(16.24, 0, 0, -32.47, 14707.8, 19581.16)" xlink:href="#linear-gradient"/><linearGradient id="linear-gradient-13" x1="-898.07" y1="600.86" x2="-897.94" y2="600.86" gradientTransform="matrix(14.21, 0, 0, -30.44, 12792.41, 18337.37)" xlink:href="#linear-gradient"/><linearGradient id="linear-gradient-14" x1="-904.1" y1="601.47" x2="-903.99" y2="601.47" gradientTransform="matrix(18.26, 0, 0, -28.41, 16556.22, 17137.04)" xlink:href="#linear-gradient"/><linearGradient id="linear-gradient-15" x1="-901.67" y1="601.67" x2="-901.55" y2="601.67" gradientTransform="matrix(18.26, 0, 0, -52.77, 16504.58, 31794.68)" xlink:href="#linear-gradient"/><linearGradient id="linear-gradient-16" x1="-902.85" y1="601.82" x2="-902.73" y2="601.82" gradientTransform="matrix(18.26, 0, 0, -54.8, 16528.93, 33024.86)" xlink:href="#linear-gradient"/><linearGradient id="linear-gradient-17" x1="-903.55" y1="599.28" x2="-903.43" y2="599.28" gradientTransform="matrix(22.1, 0, 0, -18.27, 20005.51, 10990.58)" xlink:href="#linear-gradient"/><linearGradient id="linear-gradient-18" x1="-903.8" y1="601.27" x2="-903.67" y2="601.27" gradientTransform="matrix(24.35, 0, 0, -32.47, 22047.59, 19571.01)" xlink:href="#linear-gradient"/><linearGradient id="linear-gradient-19" x1="-903.07" y1="601.33" x2="-902.95" y2="601.33" gradientTransform="matrix(22.1, 0, 0, -18.27, 19993.34, 11033.2)" xlink:href="#linear-gradient"/><linearGradient id="linear-gradient-20" x1="-908.19" y1="602.92" x2="-908.07" y2="602.92" gradientTransform="matrix(102.29, 0, 0, -85.93, 92942.23, 51863.98)" xlink:href="#linear-gradient"/><linearGradient id="linear-gradient-21" x1="-908.28" y1="601.36" x2="-908.16" y2="601.36" gradientTransform="matrix(97.42, 0, 0, -85.24, 88526.8, 51297.58)" xlink:href="#linear-gradient"/><linearGradient id="linear-gradient-22" x1="-909.7" y1="601.65" x2="-909.58" y2="601.65" gradientTransform="matrix(74.74, 0, 0, -67.81, 68055.59, 40844.8)" xlink:href="#linear-gradient"/><linearGradient id="linear-gradient-23" x1="-910.88" y1="601.68" x2="-910.75" y2="601.68" gradientTransform="matrix(28.41, 0, 0, -30.44, 25943.11, 18365.18)" xlink:href="#linear-gradient"/><linearGradient id="linear-gradient-24" x1="-910.56" y1="602.21" x2="-910.44" y2="602.21" gradientTransform="matrix(28.41, 0, 0, -30.44, 25932.96, 18383.45)" xlink:href="#linear-gradient"/><linearGradient id="linear-gradient-25" x1="-909.83" y1="602.78" x2="-909.71" y2="602.78" gradientTransform="matrix(35.34, 0, 0, -39.4, 32212.94, 23803.64)" xlink:href="#linear-gradient"/></defs><title>product_bg</title><g id="product_svg" data-name="product svg" class="cls-1"><g id="Product_shadowed_image" data-name="Product shadowed image"><path id="Path_401" data-name="Path 401" class="cls-2" d="M49.82,29.38l-15-13.07-26.13,18,9.12,13.06Z" transform="translate(-6.44 -16.31)"/><path id="Path_402" data-name="Path 402" class="cls-2" d="M52,29.38,81.38,47.62,94.44,35.54,68.07,16.31Z" transform="translate(-6.44 -16.31)"/><path id="Path_403" data-name="Path 403" class="cls-2" d="M50.81,66.6l13.06,15,28.35-21L82.12,48.61Z" transform="translate(-6.44 -16.31)"/><path id="Path_404" data-name="Path 404" class="cls-2" d="M48.84,66.6,17.53,48.36,6.44,58.47,34.79,80.65Z" transform="translate(-6.44 -16.31)"/><path id="Path_405" data-name="Path 405" class="cls-2" d="M16.55,71.78v14l32.29,18.24L81.13,85.83V73.75L62.89,85.83l-13.07-15-15,15Z" transform="translate(-6.44 -16.31)"/></g><g id="Group_169" data-name="Group 169"><g id="Group_165" data-name="Group 165"><g id="Group_160" data-name="Group 160"><g id="Group_159" data-name="Group 159"><path id="Path_409" data-name="Path 409" class="cls-3" d="M32.08,41.7l-1.73,5.43.25.49v-.74a2.8,2.8,0,0,1,.49-.74,7.66,7.66,0,0,1,.25-2,15.19,15.19,0,0,1,.74-1.73c.24.25,0-.24,0-.74.24,0,.49-.49.49-.49Z" transform="translate(-6.44 -16.31)"/></g></g><path id="Path_410" data-name="Path 410" class="cls-4" d="M32.32,41.7c-.24.5,0,.74,0,.74l2.22.74L35,41.46l-2.21-.74A1.26,1.26,0,0,1,32.32,41.7Z" transform="translate(-6.44 -16.31)"/><path id="Path_411" data-name="Path 411" class="cls-5" d="M31.58,44.41a8.25,8.25,0,0,0-.24,2l2.21.74,1-3.46-2.22-.73A7.5,7.5,0,0,0,31.58,44.41Z" transform="translate(-6.44 -16.31)"/><path id="Path_412" data-name="Path 412" class="cls-6" d="M30.84,47.13c-.24.49,0,.74,0,1l2.22.74.49-1.72-2.21-.74C31.09,46.39,30.84,46.63,30.84,47.13Z" transform="translate(-6.44 -16.31)"/><path id="Path_413" data-name="Path 413" class="cls-7" d="M35.53,43.68h0l-1.48,3.45v.24l.24-.24L36,43.92l-.25-.24Z" transform="translate(-6.44 -16.31)"/><path id="Path_414" data-name="Path 414" class="cls-8" d="M36.27,43.92h0l-1.48,3.45v.25l.24-.25,1.48-3.45v-.24Z" transform="translate(-6.44 -16.31)"/><path id="Path_415" data-name="Path 415" class="cls-9" d="M36.76,44.17h0l-1.48,3.45h.25l1.72-3.45L37,43.92Z" transform="translate(-6.44 -16.31)"/><path id="Path_416" data-name="Path 416" class="cls-10" d="M37.5,44.41h0L36,47.62v.25h.25l1.48-3.46v-.24Z" transform="translate(-6.44 -16.31)"/><path id="Path_417" data-name="Path 417" class="cls-11" d="M41.94,45.65h0L40.21,49.1h.49l1.48-3.45V45.4Z" transform="translate(-6.44 -16.31)"/><path id="Path_418" data-name="Path 418" class="cls-12" d="M42.43,45.65h0L41,49.1v.24h.25l1.48-3.45v-.24Z" transform="translate(-6.44 -16.31)"/><path id="Path_419" data-name="Path 419" class="cls-13" d="M43.17,45.89h0l-1.73,3.45.25.25.25-.25,1.47-3.2v-.25Z" transform="translate(-6.44 -16.31)"/><path id="Path_420" data-name="Path 420" class="cls-14" d="M43.66,46.14h0l-1.48,3.45v.25l.25-.25,1.72-3.45-.24-.25Z" transform="translate(-6.44 -16.31)"/><path id="Path_421" data-name="Path 421" class="cls-15" d="M35,43.68l-.49-.25-1,3.45.25.25,1.48-3.45v-.25Z" transform="translate(-6.44 -16.31)"/><path id="Path_422" data-name="Path 422" class="cls-16" d="M42.68,49.59l.24.25h.74l.49-.5.74-2.21-.24-.74H44.4Z" transform="translate(-6.44 -16.31)"/><g id="Group_162" data-name="Group 162"><g id="Group_161" data-name="Group 161"><path id="Path_423" data-name="Path 423" class="cls-17" d="M38.24,43.43l-.49,1.72-1.24,2.72v.24l.25-.24.49-1-.49,2,.25.49v-.73a2.8,2.8,0,0,1,.49-.74,8.25,8.25,0,0,1,.24-2,16.81,16.81,0,0,1,.74-1.72c0,.24-.24,0-.24-.74.24,0,.49-.49.49-.49Z" transform="translate(-6.44 -16.31)"/></g></g><g id="Group_164" data-name="Group 164"><g id="Group_163" data-name="Group 163"><path id="Path_424" data-name="Path 424" class="cls-18" d="M41.2,43.68v.73a3.11,3.11,0,0,1-.5.74,8.25,8.25,0,0,1-.24,2,16.81,16.81,0,0,1-.74,1.72v1a.87.87,0,0,1-.25.49l.49-.49.25-1h0l1.48-3.45v-.25l-.25.25h0l-1,1.73,1-3Z" transform="translate(-6.44 -16.31)"/></g></g><path id="Path_425" data-name="Path 425" class="cls-19" d="M38.48,43.68c-.24.49,0,.73,0,1l2,.49a3.07,3.07,0,0,0,.49-.74c.25-.49,0-.74,0-1l-2-.49A3.11,3.11,0,0,0,38.48,43.68Z" transform="translate(-6.44 -16.31)"/><path id="Path_426" data-name="Path 426" class="cls-20" d="M37.75,46.39a7.68,7.68,0,0,0-.25,1.72l2,.5a17.45,17.45,0,0,0,.74-1.73,7.69,7.69,0,0,0,.25-1.73l-2-.49A6,6,0,0,0,37.75,46.39Z" transform="translate(-6.44 -16.31)"/><path id="Path_427" data-name="Path 427" class="cls-21" d="M37,48.85c-.25.49,0,.74,0,1l2,.49a3.07,3.07,0,0,0,.49-.74c.25-.49,0-.74,0-1l-2-.5C37.25,48.36,37,48.61,37,48.85Z" transform="translate(-6.44 -16.31)"/></g><path id="Path_428" data-name="Path 428" class="cls-22" d="M44.15,53.54a3.46,3.46,0,0,0,.74,4.68l.5.25,1-1.48L54,62.41l2-2.71-7.65-5.43,1-1.47-.49-.25C47.11,51.56,45.14,51.81,44.15,53.54Zm10.11,6.65-.74,1-1-.74.74-1ZM52.54,59l-.74.74-1-.74.74-1Zm-1.73-1.48-.74,1-1-.73.74-1Zm-2-1.23-.74,1-1.23-1,.74-1Zm-3.7.49a1.89,1.89,0,0,1-.25-2.22l.74.49.74-1-.74-.49a2.52,2.52,0,0,1,2.22-.5Z" transform="translate(-6.44 -16.31)"/><g id="Group_166" data-name="Group 166"><path id="Path_429" data-name="Path 429" class="cls-23" d="M54.26,33.57H48.34l-3,5.17,3,5.18h5.92l3-5.18Zm-3,7.89a3,3,0,1,1,3-3A3,3,0,0,1,51.3,41.46Z" transform="translate(-6.44 -16.31)"/></g><g id="Group_168" data-name="Group 168"><g id="Group_167" data-name="Group 167"><path id="Path_430" data-name="Path 430" class="cls-24" d="M71,43.67l-6.65-3.45a.47.47,0,0,0-.74.25L62.4,42.69a.47.47,0,0,0,.24.74l1.73,1-.74,1.24,3,2.71,1-2,1.73,1a.47.47,0,0,0,.74-.24l1.23-2.22A1.06,1.06,0,0,0,71,43.68" transform="translate(-6.44 -16.31)"/><path id="Path_431" data-name="Path 431" class="cls-25" d="M62.4,48.11l2.95,2.47.5-1-3-2.71Z" transform="translate(-6.44 -16.31)"/><path id="Path_432" data-name="Path 432" class="cls-26" d="M61.16,50.33l3,2.47.49-1L61.9,49.1Z" transform="translate(-6.44 -16.31)"/><path id="Path_433" data-name="Path 433" class="cls-27" d="M59.19,54a.47.47,0,0,0,.25.74L61.66,56a.47.47,0,0,0,.74-.25l1-1.72-3-2.71Z" transform="translate(-6.44 -16.31)"/></g></g></g></g></svg>