<svg id="Layer_1" data-name="Layer 1" xmlns="http://www.w3.org/2000/svg" xmlns:xlink="http://www.w3.org/1999/xlink" viewBox="0 0 1836 905.06"><defs><style>.cls-1{fill:url(#linear-gradient);}.cls-2{opacity:0.42;}.cls-3{fill:url(#New_Gradient_Swatch_1);}.cls-4{fill:url(#New_Gradient_Swatch_1-2);}.cls-5{fill:url(#New_Gradient_Swatch_1-3);}.cls-6{isolation:isolate;font-size:150px;fill:#00227e;font-family:TrebuchetMS, Trebuchet MS;}</style><linearGradient id="linear-gradient" x1="297.67" y1="478.14" x2="298.61" y2="478.14" gradientTransform="translate(-571514 -432537.32) scale(1920 905.57)" gradientUnits="userSpaceOnUse"><stop offset="0" stop-color="#8ec5fc"/><stop offset="1" stop-color="#e0c3fc"/></linearGradient><linearGradient id="New_Gradient_Swatch_1" x1="1309.98" y1="486.63" x2="1528.29" y2="486.63" gradientUnits="userSpaceOnUse"><stop offset="0" stop-color="#4158d0"/><stop offset="0.52" stop-color="#c850c0"/><stop offset="0.7" stop-color="#dd80a1"/><stop offset="1" stop-color="#ffcc70"/></linearGradient><linearGradient id="New_Gradient_Swatch_1-2" x1="1422.66" y1="446.03" x2="1640.96" y2="446.03" xlink:href="#New_Gradient_Swatch_1"/><linearGradient id="New_Gradient_Swatch_1-3" x1="1422.65" y1="389.08" x2="1753.64" y2="389.08" xlink:href="#New_Gradient_Swatch_1"/></defs><title>blog banner lg</title><g id="Group_131" data-name="Group 131"><path id="Photo-2" class="cls-1" d="M0,.25H1836V905.32H0Z" transform="translate(0 -0.25)"/></g><g class="cls-2"><path class="cls-3" d="M1419.14,648.62A109.27,109.27,0,0,1,1310,539.47V356.32a31.69,31.69,0,0,1,63.38,0V539.48a45.78,45.78,0,1,0,66.58-40.81,31.7,31.7,0,0,1,28.92-56.41,109.18,109.18,0,0,1-49.72,206.36Z" transform="translate(0 -0.25)"/><path class="cls-4" d="M1609.28,571.17a31.7,31.7,0,0,1-31.7-31.7,158.44,158.44,0,0,0-129-155.74,31.69,31.69,0,1,1,11.67-62.29c104.73,19.62,180.75,111.33,180.75,218A31.69,31.69,0,0,1,1609.28,571.17Z" transform="translate(0 -0.25)"/><path class="cls-5" d="M1722,571.17a31.7,31.7,0,0,1-31.7-31.7c0-137.72-103-253.49-239.55-269.31a31.69,31.69,0,1,1,7.3-63c168.54,19.52,295.64,162.37,295.64,332.27A31.69,31.69,0,0,1,1722,571.17Z" transform="translate(0 -0.25)"/></g><text class="cls-6" transform="translate(75.19 561.27) scale(0.96 1)">BLOG</text><text class="cls-6" transform="translate(75.19 388.83) scale(0.96 1)">OUR</text></svg>