<?xml version="1.0" encoding="utf-8"?>
<!-- Generator: Adobe Illustrator 23.0.1, SVG Export Plug-In . SVG Version: 6.00 Build 0)  -->
<svg version="1.1" id="Background" xmlns="http://www.w3.org/2000/svg" xmlns:xlink="http://www.w3.org/1999/xlink" x="0px" y="0px"
	 viewBox="0 0 518 234" style="enable-background:new 0 0 518 234;" xml:space="preserve">
<style type="text/css">
	.st0{fill:#A97C50;}
</style>
<g>
	<g>
		<g>
			<path class="st0" d="M342.7,198.3l7.3,13.9l18.9-20.6c0.4-0.4,1-0.7,1.6-0.8l-6.7-13.5C341.8,199.5,343.3,198,342.7,198.3z"/>
			<path class="st0" d="M332.8,179.4l7.8,14.6c2-1.9,20-20.5,21.1-20.7l-8.1-15.9C352.8,158.1,343.1,168.5,332.8,179.4z"/>
			<path class="st0" d="M339.7,106.8l-45.8,22.5c-1.3,0.6-1.7,2-1.1,3.2l3.3,6.7c0.3,0.6,0.7,1,1.2,1.1l18.2,6.5l14.7,28.1
				c20-20.7,19-21.3,21-21.2l-10.1-19.8l6.1-17.4c0.2-0.7,0.2-1.4-0.3-2.1l-4.3-6.8C342.4,106.6,341,106.2,339.7,106.8z"/>
			<path class="st0" d="M352.6,216.5l-0.3,0.2l5.7,11c0.3,0.6,0.7,1,1.4,1.2l14.8,4.4c1.2,0.4,2.7-0.2,3.1-1.6
				c5.1-15.2,5.9-15.2,5.1-16.7l-10.3-20.1L352.6,216.5z"/>
		</g>
		<g>
			<path class="st0" d="M229.6,36.9L228,98.4l57.4,32.3l59-29.2L346,40L288.6,7.7L229.6,36.9z M319.5,70
				c-0.4,16.4-15.3,29.3-33.3,28.8c-17.9-0.5-32.1-14.2-31.7-30.5c0.4-16.4,15.3-29.3,33.3-28.8S319.9,53.6,319.5,70z"/>
		</g>
		<g>
			<path class="st0" d="M200.6,220.3l14.7-2.4c-2.8,8.8-6.2,16.1-7.9,16.1C205.9,234,203.1,228.1,200.6,220.3z"/>
			<path class="st0" d="M219,202.5c-0.4,2.4-0.9,5-1.5,7.6l-19,3c-0.6-2.3-1.2-4.7-1.7-7L219,202.5z"/>
			<path class="st0" d="M219.8,187.5l-0.2,7.3l-24.2,3.9c-0.1-0.6-0.2-1.3-0.2-1.9l-0.1-5.4L219.8,187.5z"/>
			<polygon class="st0" points="220.2,172.6 220,180 194.9,184 194.7,176.8 			"/>
			<polygon class="st0" points="220.6,157.7 220.3,165.1 194.5,169.3 194.4,161.9 			"/>
			<polygon class="st0" points="220.9,142.8 220.7,150.1 194.2,154.5 194,147.2 			"/>
			<polygon class="st0" points="221.3,127.9 221.1,135.3 193.8,139.7 193.6,132.4 			"/>
			<polygon class="st0" points="221.6,113 221.5,120.4 193.4,124.9 193.2,117.6 			"/>
			<polygon class="st0" points="222,98.1 221.8,105.5 193.1,110.1 192.9,102.8 			"/>
			<polygon class="st0" points="222.4,83.2 222.2,90.6 192.7,95.4 192.5,88 			"/>
			<polygon class="st0" points="222.8,68.3 222.6,75.6 192.3,80.5 192.1,73.3 			"/>
			<polygon class="st0" points="223.1,53.4 222.9,60.8 192,65.8 191.8,58.5 			"/>
			<path class="st0" d="M243.9,7.7l-20.3,26l-0.3,12.2L191.6,51l-0.4-17.3l-20.3-26c-4.8-0.2-5.2-7.6,0-7.4H244
				C249.7,0.4,249.5,7.5,243.9,7.7z"/>
		</g>
	</g>
	<g>
		<g>
			<g>
				<path class="st0" d="M507.5,0.1h-72l-6,4.6c0.1,0,4.1-1.9,7.8-1.9c6.2,0,10.2,3.2,11.1,4.1c2.1-0.8,11.4-4,23.2-4.1
					c11.7,0.1,21,3.2,23.1,4.1c0.9-0.8,4.9-4.1,11.1-4.1c3.7,0,7.7,1.8,7.8,1.9L507.5,0.1z"/>
			</g>
		</g>
		<path class="st0" d="M505.9,4.3c-5.8,0-9.2,2.9-10.2,3.8v34.1h20.8v-34C515.5,7.3,511.7,4.3,505.9,4.3z"/>
		<path class="st0" d="M471.6,4.3c-11.7,0-20.8,3.2-22.9,4v33.9h45.7V8.4C492.3,7.5,483.4,4.3,471.6,4.3z"/>
		<path class="st0" d="M437.2,4.3c-5.8,0-9.5,2.9-10.5,3.8v34.1h20.8v-34C446.4,7.3,443,4.3,437.2,4.3z"/>
		<polygon class="st0" points="494.4,61.1 494.4,61.1 448.8,53.2 446.2,54.9 448.8,58.3 494.4,66.2 497,64.5 		"/>
		<polygon class="st0" points="494.4,71.2 494.4,71.2 448.8,63.3 446.2,65 448.8,68.4 494.4,76.4 497,74.6 		"/>
		<polygon class="st0" points="494.4,81.3 494.4,81.3 448.8,73.4 446.2,75.1 448.8,78.5 494.4,86.5 497,84.7 		"/>
		<polygon class="st0" points="494.4,91.4 494.4,91.4 448.8,83.5 446.2,85.2 448.8,88.6 494.4,96.6 497,94.8 		"/>
		<polygon class="st0" points="494.4,140.2 494.4,140.2 448.8,132.2 446.2,134 448.8,137.4 494.4,145.3 497,143.6 		"/>
		<polygon class="st0" points="494.4,150.3 494.4,150.3 448.8,142.3 446.2,144.1 448.8,147.5 494.4,155.4 497,153.7 		"/>
		<polygon class="st0" points="494.4,160.4 494.4,160.4 448.8,152.4 446.2,154.2 448.8,157.6 494.4,165.5 497,163.8 		"/>
		<polygon class="st0" points="494.4,170.5 494.4,170.5 448.8,162.6 446.2,164.3 448.8,167.7 494.4,175.6 497,173.9 		"/>
		<polygon class="st0" points="494.3,100.7 494.3,100.7 448.7,92.8 446.1,94.5 448.7,97.9 494.3,105.8 496.9,104.1 		"/>
		<polygon class="st0" points="494.3,110.8 494.3,110.8 448.7,102.9 446.1,104.6 448.7,108 494.3,116 496.9,114.2 		"/>
		<polygon class="st0" points="494.3,120.9 494.3,120.9 448.7,113 446.1,114.7 448.7,118.1 494.3,126.1 496.9,124.3 		"/>
		<polygon class="st0" points="494.3,131 494.3,131 448.7,123.1 446.1,124.8 448.7,128.2 494.3,136.2 496.9,134.5 		"/>
		<polygon class="st0" points="494.5,50.7 494.5,43.2 448.8,43.2 448.8,47.9 494.5,55.7 497.1,54 		"/>
		<polygon class="st0" points="448.8,177.4 448.8,184.9 494.5,184.9 494.5,180.2 448.8,172.3 446.2,174 		"/>
		<g>
			<g>
				<g>
					<path class="st0" d="M514.9,190c-0.5-0.2-4.2-1.7-7.7-1.7c-6.2,0-10.2,3-11.1,3.7c-2.1-0.8-11.4-3.7-23.1-3.7
						c-11.8,0.1-21.1,3-23.2,3.7c-0.9-0.8-4.9-3.7-11.2-3.7c-3.5,0-7.2,1.5-7.7,1.7l6-4.2h26.4l-0.9-0.1h24.5l0.5,0.1H509L514.9,190
						z"/>
				</g>
			</g>
			<g>
				<path class="st0" d="M515,229.3l-6,4.2h-72.2l-6-4.2c0.1,0,4.1,1.7,7.8,1.7c6.2,0,10.2-3,11.1-3.7c2.1,0.8,11.5,3.7,23.3,3.7
					c11.8-0.1,21-3,23.1-3.7c0.9,0.8,4.9,3.7,11.1,3.7C510.9,231,514.9,229.3,515,229.3z"/>
			</g>
			<path class="st0" d="M507.4,189.8c-5.8,0-9.6,2.7-10.6,3.5v32.9c1,0.8,4.8,3.5,10.6,3.5s9.6-2.7,10.6-3.5v-32.9
				C517,192.5,513.1,189.8,507.4,189.8z"/>
			<path class="st0" d="M473,189.8c-11.8,0-20.5,2.9-22.6,3.7l-0.1,32.5c2.1,0.8,10.8,3.7,22.6,3.7c11.8,0,20.4-2.9,22.5-3.7
				l0.1-32.5C493.3,192.7,484.7,189.8,473,189.8z"/>
			<path class="st0" d="M438.5,189.8c-5.8,0-9.6,2.7-10.6,3.5v32.9c1,0.8,4.8,3.5,10.6,3.5c5.8,0,9.6-2.7,10.6-3.5v-32.9
				C448.1,192.5,444.3,189.8,438.5,189.8z"/>
		</g>
	</g>
	<g>
		<g>
			<g>
				<polygon class="st0" points="48.2,116.6 51,116.7 52.8,128.9 50,129 				"/>
				<polygon class="st0" points="40.2,116.7 43,116.8 44.8,128.9 42,129 				"/>
				<polygon class="st0" points="32.1,116.6 35,116.7 36.8,129 33.9,129.1 				"/>
				<polygon class="st0" points="24.1,116.6 26.9,116.7 28.7,129 25.9,129.1 				"/>
				<polygon class="st0" points="16.1,116.6 18.9,116.7 20.7,128.9 17.9,129 				"/>
				<polygon class="st0" points="8,116.6 10.9,116.7 12.7,129 9.9,129.1 				"/>
				<polygon class="st0" points="0,116.7 2.9,116.8 4.6,128.9 1.8,129 				"/>
			</g>
			<path class="st0" d="M96.1,175c0-25.4-17.9-46-40-46v-12.4c28,0,50.7,26.1,50.7,58.3s-22.7,58.3-50.7,58.3V221
				C78.2,221,96.1,200.4,96.1,175z"/>
			<g>
				<polygon class="st0" points="48.2,220.9 51,221 52.8,233.2 50,233.3 				"/>
				<polygon class="st0" points="40.1,221 43,221.1 44.8,233.2 42,233.3 				"/>
				<polygon class="st0" points="32.1,220.9 35,221 36.8,233.3 33.9,233.4 				"/>
				<polygon class="st0" points="24.1,220.9 26.9,221 28.7,233.3 25.9,233.4 				"/>
				<polygon class="st0" points="16,220.9 18.9,221 20.7,233.2 17.9,233.3 				"/>
				<polygon class="st0" points="8,220.9 10.9,221 12.7,233.3 9.8,233.4 				"/>
				<polygon class="st0" points="0,221 2.8,221.1 4.6,233.2 1.8,233.3 				"/>
			</g>
		</g>
		<g>
			<g>
				<polygon class="st0" points="58.7,116.7 55.9,116.6 54.1,104.5 56.9,104.4 				"/>
				<polygon class="st0" points="66.7,116.7 63.9,116.6 62.1,104.4 64.9,104.3 				"/>
				<polygon class="st0" points="74.8,116.7 71.9,116.7 70.1,104.4 72.9,104.3 				"/>
				<polygon class="st0" points="82.8,116.7 79.9,116.7 78.1,104.4 81,104.3 				"/>
				<polygon class="st0" points="90.8,116.7 88,116.6 86.2,104.5 89,104.4 				"/>
				<polygon class="st0" points="98.9,116.7 96,116.6 94.2,104.4 97,104.3 				"/>
				<polygon class="st0" points="106.9,116.7 104,116.6 102.2,104.5 105,104.4 				"/>
			</g>
			<path class="st0" d="M10.8,58.4c0,25.4,17.9,46,40,46v12.4C22.7,116.7,0,90.6,0,58.4S22.7,0,50.7,0v12.4
				C28.6,12.4,10.8,33,10.8,58.4z"/>
			<g>
				<polygon class="st0" points="58.7,12.4 55.9,12.3 54.1,0.2 56.9,0.1 				"/>
				<polygon class="st0" points="66.7,12.4 63.9,12.3 62.1,0.1 64.9,0 				"/>
				<polygon class="st0" points="74.8,12.4 71.9,12.4 70.1,0.1 72.9,0 				"/>
				<polygon class="st0" points="82.8,12.4 80,12.4 78.2,0.1 81,0 				"/>
				<polygon class="st0" points="90.8,12.4 88,12.3 86.2,0.2 89,0.1 				"/>
				<polygon class="st0" points="98.9,12.4 96,12.3 94.2,0.1 97,0 				"/>
				<polygon class="st0" points="106.9,12.4 104,12.3 102.2,0.2 105.1,0.1 				"/>
			</g>
		</g>
	</g>
</g>
</svg>
