<?xml version="1.0" encoding="utf-8"?>
<!-- Generator: Adobe Illustrator 23.0.1, SVG Export Plug-In . SVG Version: 6.00 Build 0)  -->
<svg version="1.1" id="Background" xmlns="http://www.w3.org/2000/svg" xmlns:xlink="http://www.w3.org/1999/xlink" x="0px" y="0px"
	 viewBox="0 0 518 234" style="enable-background:new 0 0 518 234;" xml:space="preserve">
<style type="text/css">
	.st0{fill:#A97C50;}
</style>
<g>
	<g>
		<g>
			<path class="st0" d="M342,197.69l7.22,13.81L368,191.1c0.39-0.38,1.01-0.69,1.56-0.77l-6.6-13.38
				C341.06,198.9,342.62,197.38,342,197.69z"/>
			<path class="st0" d="M332.16,178.89l7.76,14.47c1.96-1.89,19.79-20.35,20.88-20.51l-8.07-15.8
				C351.96,157.8,342.41,168.08,332.16,178.89z"/>
			<path class="st0" d="M339.06,106.85l-45.46,22.33c-1.25,0.62-1.72,1.96-1.11,3.14l3.3,6.69c0.31,0.59,0.69,0.95,1.16,1.09
				l18.07,6.4l14.6,27.91c19.87-20.57,18.79-21.14,20.81-21.03l-10.06-19.62l6.09-17.26c0.24-0.67,0.24-1.41-0.3-2.07l-4.31-6.74
				C341.7,106.65,340.3,106.24,339.06,106.85z"/>
			<path class="st0" d="M351.84,215.75l-0.31,0.15l5.69,10.87c0.31,0.59,0.69,0.95,1.39,1.16l14.67,4.39
				c1.16,0.35,2.64-0.2,3.12-1.54c5.07-15.09,5.85-15.1,5.08-16.57l-10.22-19.91L351.84,215.75z"/>
		</g>
		<g>
			<path class="st0" d="M229.85,37.55l-1.6,60.98l56.93,32l58.53-28.98l1.6-60.98l-56.93-32L229.85,37.55z M318.99,70.39
				c-0.43,16.27-15.19,29.09-32.98,28.62c-17.79-0.47-31.86-14.04-31.44-30.31c0.43-16.27,15.19-29.09,32.98-28.62
				C305.34,40.55,319.41,54.12,318.99,70.39z"/>
		</g>
		<g>
			<path class="st0" d="M201.11,219.51l14.53-2.36c-2.78,8.73-6.12,15.94-7.81,15.94C206.31,233.09,203.61,227.2,201.11,219.51z"/>
			<path class="st0" d="M219.31,201.84c-0.36,2.43-0.89,4.97-1.49,7.51l-18.79,3.02c-0.64-2.32-1.21-4.68-1.69-6.96L219.31,201.84z"
				/>
			<path class="st0" d="M220.15,186.96l-0.2,7.29L196,198.12c-0.08-0.63-0.16-1.25-0.24-1.84l-0.12-5.34L220.15,186.96z"/>
			<polygon class="st0" points="220.51,172.2 220.31,179.49 195.44,183.5 195.28,176.29 			"/>
			<polygon class="st0" points="220.88,157.4 220.67,164.69 195.08,168.85 194.92,161.6 			"/>
			<polygon class="st0" points="221.24,142.64 221.07,149.89 194.72,154.16 194.55,146.94 			"/>
			<polygon class="st0" points="221.6,127.84 221.44,135.13 194.35,139.51 194.15,132.29 			"/>
			<polygon class="st0" points="221.96,113.04 221.8,120.33 193.99,124.82 193.79,117.61 			"/>
			<polygon class="st0" points="222.36,98.28 222.16,105.57 193.63,110.17 193.43,102.96 			"/>
			<polygon class="st0" points="222.72,83.48 222.53,90.77 193.27,95.52 193.07,88.27 			"/>
			<polygon class="st0" points="223.09,68.72 222.89,75.97 192.9,80.83 192.7,73.61 			"/>
			<polygon class="st0" points="223.45,53.92 223.25,61.21 192.54,66.18 192.34,58.96 			"/>
			<path class="st0" d="M244.05,8.53L223.93,34.3l-0.28,12.11l-31.47,5.08l-0.44-17.19L171.61,8.53c-4.71-0.15-5.19-7.51,0-7.36
				l72.44,0C249.77,1.31,249.61,8.38,244.05,8.53z"/>
		</g>
	</g>
	<g>
		<g>
			<g>
				<path class="st0" d="M505.36,1h-71.38l-5.96,4.6c0.07-0.04,4.02-1.85,7.7-1.85c6.14,0,10.09,3.22,11.02,4.06
					c2.08-0.83,11.34-3.97,22.99-4.05c11.65,0.08,20.81,3.22,22.88,4.05c0.92-0.84,4.87-4.06,11.02-4.06c3.69,0,7.63,1.81,7.7,1.85
					L505.36,1z"/>
			</g>
		</g>
		<path class="st0" d="M503.82,5.22c-5.71,0-9.09,2.92-10.09,3.81v33.85h20.59V9.03C513.31,8.15,509.53,5.22,503.82,5.22z"/>
		<path class="st0" d="M469.84,5.22c-11.65,0-20.6,3.17-22.72,4.01v33.65h45.32V9.23C490.29,8.4,481.5,5.22,469.84,5.22z"/>
		<path class="st0" d="M435.71,5.22c-5.71,0-9.46,2.92-10.46,3.81v33.85h20.58V9.03C444.82,8.15,441.42,5.22,435.71,5.22z"/>
		<polygon class="st0" points="492.44,61.53 492.44,61.53 447.18,53.66 444.61,55.38 447.18,58.77 492.44,66.64 495.01,64.92 		"/>
		<polygon class="st0" points="492.44,71.57 492.44,71.57 447.18,63.69 444.61,65.41 447.18,68.8 492.44,76.67 495.01,74.96 		"/>
		<polygon class="st0" points="492.44,81.6 492.44,81.6 447.18,73.73 444.61,75.44 447.18,78.83 492.44,86.71 495.01,84.99 		"/>
		<polygon class="st0" points="492.44,91.63 492.44,91.63 447.18,83.76 444.61,85.48 447.18,88.87 492.44,96.74 495.01,95.02 		"/>
		<polygon class="st0" points="492.44,139.98 492.44,139.98 447.18,132.1 444.61,133.82 447.18,137.21 492.44,145.09 495.01,143.37 
					"/>
		<polygon class="st0" points="492.44,150.01 492.44,150.01 447.18,142.14 444.61,143.85 447.18,147.25 492.44,155.12 495.01,153.4 
					"/>
		<polygon class="st0" points="492.44,160.04 492.44,160.04 447.18,152.17 444.61,153.89 447.18,157.28 492.44,165.15 
			495.01,163.43 		"/>
		<polygon class="st0" points="492.44,170.08 492.44,170.08 447.18,162.2 444.61,163.92 447.18,167.31 492.44,175.18 495.01,173.47 
					"/>
		<polygon class="st0" points="492.3,100.83 492.3,100.83 447.04,92.95 444.47,94.67 447.04,98.06 492.3,105.93 494.87,104.22 		"/>
		<polygon class="st0" points="492.3,110.86 492.3,110.86 447.04,102.99 444.47,104.7 447.04,108.1 492.3,115.97 494.87,114.25 		
			"/>
		<polygon class="st0" points="492.3,120.89 492.3,120.89 447.04,113.02 444.47,114.74 447.04,118.13 492.3,126 494.87,124.28 		"/>
		<polygon class="st0" points="492.3,130.93 492.3,130.93 447.04,123.05 444.47,124.77 447.04,128.16 492.3,136.03 494.87,134.32 		
			"/>
		<polygon class="st0" points="492.51,51.18 492.51,43.75 447.18,43.75 447.18,48.45 492.51,56.21 495.07,54.52 		"/>
		<polygon class="st0" points="447.19,176.93 447.19,184.36 492.52,184.36 492.52,179.66 447.19,171.9 444.62,173.59 		"/>
		<g>
			<g>
				<g>
					<path class="st0" d="M512.73,189.45c-0.51-0.2-4.19-1.66-7.67-1.66c-6.15,0-10.12,2.95-11.04,3.72
						c-2.1-0.77-11.28-3.63-22.95-3.7c-11.67,0.07-20.97,2.93-23.05,3.7c-0.94-0.77-4.9-3.72-11.06-3.72
						c-3.48,0-7.16,1.47-7.67,1.66l5.93-4.18h26.21l-0.86-0.09h24.34l0.5,0.09h21.38L512.73,189.45z"/>
				</g>
			</g>
			<g>
				<path class="st0" d="M512.79,228.42l-5.99,4.2h-71.57l-5.99-4.2c0.07,0.02,4.02,1.69,7.73,1.69c6.15,0,10.12-2.95,11.04-3.72
					c2.1,0.77,11.37,3.63,23.06,3.7c11.67-0.07,20.86-2.93,22.95-3.7c0.92,0.77,4.88,3.72,11.04,3.72
					C508.76,230.11,512.71,228.44,512.79,228.42z"/>
			</g>
			<path class="st0" d="M505.27,189.21c-5.72,0-9.49,2.67-10.49,3.48v32.61c1,0.81,4.77,3.48,10.49,3.48
				c5.73,0,9.51-2.67,10.52-3.48v-32.6C514.78,191.88,510.99,189.21,505.27,189.21z"/>
			<path class="st0" d="M471.14,189.21c-11.68,0-20.28,2.89-22.4,3.66l-0.07,32.23c2.13,0.77,10.72,3.66,22.4,3.66
				c11.69,0,20.18-2.9,22.34-3.66l0.07-32.23C491.31,192.11,482.83,189.21,471.14,189.21z"/>
			<path class="st0" d="M436.96,189.21c-5.72,0-9.49,2.67-10.49,3.48v32.61c1,0.81,4.77,3.48,10.49,3.48
				c5.73,0,9.51-2.67,10.52-3.48v-32.6C446.47,191.88,442.68,189.21,436.96,189.21z"/>
		</g>
	</g>
	<g>
		<g>
			<g>
				<polygon class="st0" points="49.96,116.65 52.78,116.73 54.56,128.82 51.77,128.9 				"/>
				<polygon class="st0" points="42.02,116.68 44.84,116.76 46.62,128.84 43.83,128.93 				"/>
				<polygon class="st0" points="34.04,116.62 36.88,116.7 38.68,128.89 35.86,128.97 				"/>
				<polygon class="st0" points="26.06,116.62 28.9,116.7 30.7,128.89 27.89,128.97 				"/>
				<polygon class="st0" points="18.12,116.65 20.94,116.73 22.72,128.82 19.93,128.9 				"/>
				<polygon class="st0" points="10.16,116.65 12.99,116.73 14.78,128.87 11.97,128.96 				"/>
				<polygon class="st0" points="2.23,116.68 5.04,116.76 6.81,128.82 4.03,128.9 				"/>
			</g>
			<path class="st0" d="M97.52,174.54c0-25.2-17.74-45.63-39.62-45.63v-12.26c27.76,0,50.26,25.92,50.26,57.89
				c0,31.97-22.5,57.89-50.26,57.89v-12.26C79.78,220.17,97.52,199.74,97.52,174.54z"/>
			<g>
				<polygon class="st0" points="49.95,220.14 52.77,220.22 54.55,232.3 51.76,232.39 				"/>
				<polygon class="st0" points="42,220.17 44.82,220.25 46.6,232.33 43.81,232.42 				"/>
				<polygon class="st0" points="34.02,220.11 36.87,220.19 38.66,232.37 35.85,232.46 				"/>
				<polygon class="st0" points="26.05,220.11 28.89,220.19 30.68,232.37 27.87,232.46 				"/>
				<polygon class="st0" points="18.1,220.14 20.92,220.22 22.71,232.3 19.91,232.39 				"/>
				<polygon class="st0" points="10.14,220.14 12.97,220.22 14.76,232.36 11.96,232.45 				"/>
				<polygon class="st0" points="2.21,220.17 5.02,220.25 6.8,232.3 4.02,232.39 				"/>
			</g>
		</g>
		<g>
			<g>
				<polygon class="st0" points="60.42,116.72 57.59,116.64 55.81,104.55 58.6,104.47 				"/>
				<polygon class="st0" points="68.36,116.69 65.54,116.61 63.76,104.52 66.55,104.44 				"/>
				<polygon class="st0" points="76.34,116.75 73.49,116.66 71.7,104.48 74.51,104.4 				"/>
				<polygon class="st0" points="84.32,116.75 81.47,116.66 79.68,104.48 82.49,104.4 				"/>
				<polygon class="st0" points="92.26,116.72 89.44,116.64 87.66,104.55 90.45,104.47 				"/>
				<polygon class="st0" points="100.22,116.72 97.39,116.64 95.6,104.49 98.4,104.41 				"/>
				<polygon class="st0" points="108.15,116.69 105.34,116.61 103.56,104.55 106.34,104.47 				"/>
			</g>
			<path class="st0" d="M12.86,58.83c0,25.2,17.74,45.63,39.62,45.63v12.26c-27.76,0-50.26-25.92-50.26-57.89
				c0-31.97,22.5-57.89,50.26-57.89V13.2C30.59,13.2,12.86,33.63,12.86,58.83z"/>
			<g>
				<polygon class="st0" points="60.43,13.23 57.61,13.15 55.83,1.06 58.62,0.98 				"/>
				<polygon class="st0" points="68.37,13.2 65.55,13.12 63.77,1.03 66.56,0.95 				"/>
				<polygon class="st0" points="76.35,13.26 73.51,13.18 71.71,0.99 74.53,0.91 				"/>
				<polygon class="st0" points="84.33,13.26 81.49,13.18 79.69,0.99 82.5,0.91 				"/>
				<polygon class="st0" points="92.27,13.23 89.45,13.15 87.67,1.06 90.46,0.98 				"/>
				<polygon class="st0" points="100.23,13.23 97.4,13.15 95.61,1.01 98.42,0.92 				"/>
				<polygon class="st0" points="108.17,13.2 105.35,13.12 103.58,1.06 106.36,0.98 				"/>
			</g>
		</g>
	</g>
</g>
</svg>
