<svg id="Layer_1" data-name="Layer 1" xmlns="http://www.w3.org/2000/svg" xmlns:xlink="http://www.w3.org/1999/xlink" viewBox="0 0 1125 2436.38"><defs><style>.cls-1{fill:url(#linear-gradient);}.cls-2,.cls-21{opacity:0.3;}.cls-3,.cls-4,.cls-5,.cls-6{fill-rule:evenodd;}.cls-3{fill:url(#New_Gradient_Swatch_1);}.cls-4{fill:url(#New_Gradient_Swatch_1-2);}.cls-5{fill:url(#New_Gradient_Swatch_1-3);}.cls-6{fill:url(#New_Gradient_Swatch_1-4);}.cls-7{fill:url(#New_Gradient_Swatch_1-5);}.cls-8{fill:url(#New_Gradient_Swatch_1-6);}.cls-9{fill:url(#New_Gradient_Swatch_1-7);}.cls-10{fill:url(#New_Gradient_Swatch_1-8);}.cls-11{fill:url(#New_Gradient_Swatch_1-9);}.cls-12{isolation:isolate;font-size:217.51px;fill:#00227e;font-family:TrebuchetMS, Trebuchet MS;}.cls-13{fill:url(#New_Gradient_Swatch_1-10);}.cls-14{fill:url(#New_Gradient_Swatch_1-11);}.cls-15{fill:url(#New_Gradient_Swatch_1-12);}.cls-16{fill:url(#New_Gradient_Swatch_1-13);}.cls-17{fill:url(#New_Gradient_Swatch_1-14);}.cls-18{fill:url(#New_Gradient_Swatch_1-15);}.cls-19{fill:url(#New_Gradient_Swatch_1-16);}.cls-20{fill:url(#New_Gradient_Swatch_1-17);}.cls-21{fill:url(#New_Gradient_Swatch_1-18);}</style><linearGradient id="linear-gradient" x1="-57.92" y1="1242.37" x2="-56.66" y2="1242.37" gradientTransform="translate(1125613 111208.62) rotate(90) scale(1920 905.57)" gradientUnits="userSpaceOnUse"><stop offset="0" stop-color="#8ec5fc"/><stop offset="1" stop-color="#e0c3fc"/></linearGradient><linearGradient id="New_Gradient_Swatch_1" x1="1438.5" y1="2277.79" x2="1822.16" y2="2277.79" gradientTransform="translate(-860.5 -505.5)" gradientUnits="userSpaceOnUse"><stop offset="0" stop-color="#4158d0"/><stop offset="0.52" stop-color="#c850c0"/><stop offset="0.7" stop-color="#dd80a1"/><stop offset="1" stop-color="#ffcc70"/></linearGradient><linearGradient id="New_Gradient_Swatch_1-2" x1="1434.01" y1="2461.43" x2="1761.65" y2="2461.43" xlink:href="#New_Gradient_Swatch_1"/><linearGradient id="New_Gradient_Swatch_1-3" x1="1084.99" y1="2461.43" x2="1412.65" y2="2461.43" xlink:href="#New_Gradient_Swatch_1"/><linearGradient id="New_Gradient_Swatch_1-4" x1="1024.5" y1="2277.79" x2="1408.15" y2="2277.79" xlink:href="#New_Gradient_Swatch_1"/><linearGradient id="New_Gradient_Swatch_1-5" x1="1411.28" y1="1975.43" x2="1593.39" y2="1975.43" gradientTransform="translate(-860.5 -505.88)" xlink:href="#New_Gradient_Swatch_1"/><linearGradient id="New_Gradient_Swatch_1-6" x1="1264.47" y1="1972.9" x2="1363.06" y2="1972.9" gradientTransform="translate(-860.5 -505.88)" xlink:href="#New_Gradient_Swatch_1"/><linearGradient id="New_Gradient_Swatch_1-7" x1="1517.74" y1="2131.67" x2="1616.34" y2="2131.67" gradientTransform="translate(-860.5 -505.88)" xlink:href="#New_Gradient_Swatch_1"/><linearGradient id="New_Gradient_Swatch_1-8" x1="1360.92" y1="2099.74" x2="1459.52" y2="2099.74" gradientTransform="translate(-860.5 -505.88)" xlink:href="#New_Gradient_Swatch_1"/><linearGradient id="New_Gradient_Swatch_1-9" x1="1192.32" y1="2123.1" x2="1318.74" y2="2123.1" gradientTransform="translate(-860.5 -505.88)" xlink:href="#New_Gradient_Swatch_1"/><linearGradient id="New_Gradient_Swatch_1-10" x1="-149.45" y1="2665.98" x2="857.71" y2="2665.98" gradientTransform="translate(208.63 -1493.33)" xlink:href="#New_Gradient_Swatch_1"/><linearGradient id="New_Gradient_Swatch_1-11" x1="-82.85" y1="2590.4" x2="-15.67" y2="2590.4" gradientTransform="translate(208.63 -1492.95)" xlink:href="#New_Gradient_Swatch_1"/><linearGradient id="New_Gradient_Swatch_1-12" x1="85.1" y1="2590.4" x2="152.29" y2="2590.4" gradientTransform="translate(208.63 -1492.95)" xlink:href="#New_Gradient_Swatch_1"/><linearGradient id="New_Gradient_Swatch_1-13" x1="202.67" y1="2590.4" x2="269.86" y2="2590.4" gradientTransform="translate(208.63 -1492.95)" xlink:href="#New_Gradient_Swatch_1"/><linearGradient id="New_Gradient_Swatch_1-14" x1="320.24" y1="2590.4" x2="387.43" y2="2590.4" gradientTransform="translate(208.63 -1492.95)" xlink:href="#New_Gradient_Swatch_1"/><linearGradient id="New_Gradient_Swatch_1-15" x1="437.81" y1="2590.4" x2="505" y2="2590.4" gradientTransform="translate(208.63 -1492.95)" xlink:href="#New_Gradient_Swatch_1"/><linearGradient id="New_Gradient_Swatch_1-16" x1="555.38" y1="2590.4" x2="622.57" y2="2590.4" gradientTransform="translate(208.63 -1492.95)" xlink:href="#New_Gradient_Swatch_1"/><linearGradient id="New_Gradient_Swatch_1-17" x1="723.34" y1="2590.4" x2="790.52" y2="2590.4" gradientTransform="translate(208.63 -1492.95)" xlink:href="#New_Gradient_Swatch_1"/><linearGradient id="New_Gradient_Swatch_1-18" x1="-863.81" y1="1236.75" x2="-515.99" y2="1236.75" gradientTransform="translate(923.99 -1055.18)" xlink:href="#New_Gradient_Swatch_1"/></defs><title>product banner sm</title><path id="Photo-2" class="cls-1" d="M1125-.38V2436H0V-.38Z" transform="translate(0 0.38)"/><g class="cls-2"><polygon class="cls-3" points="885.45 1699.54 578 1682.21 654.2 1862.36 961.66 1845.04 885.45 1699.54"/><polygon class="cls-4" points="573.52 1710.73 645.02 1878.08 901.15 1864.54 901.15 2114.4 573.52 2201.13 573.52 1710.73"/><polygon class="cls-5" points="552.15 1710.73 552.15 2201.13 224.49 2114.4 224.49 1864.54 480.64 1878.08 552.15 1710.73"/><polygon class="cls-6" points="240.19 1699.54 164 1845.04 471.47 1862.36 547.65 1682.21 240.19 1699.54"/><path class="cls-7" d="M732.89,1469.56c0,46.31-40.84,84.07-91,84.06s-91.06-37.74-91.06-84.06,40.82-84.08,91.06-84.08S732.89,1423.2,732.89,1469.56Z" transform="translate(0 0.38)"/><path class="cls-8" d="M502.57,1467c0,25.08-22.11,45.52-49.29,45.51S404,1492.11,404,1467s22.09-45.53,49.31-45.53S502.57,1441.93,502.57,1467Z" transform="translate(0 0.38)"/><path class="cls-9" d="M755.84,1625.79c0,25.08-22.11,45.53-49.3,45.52s-49.3-20.44-49.3-45.52,22.09-45.52,49.3-45.52S755.84,1600.7,755.84,1625.79Z" transform="translate(0 0.38)"/><path class="cls-10" d="M599,1593.87c0,25.08-22.09,45.52-49.3,45.52s-49.3-20.44-49.3-45.52,22.1-45.53,49.3-45.53S599,1568.77,599,1593.87Z" transform="translate(0 0.38)"/><path class="cls-11" d="M458.25,1617.22c0,32.15-28.35,58.37-63.22,58.37s-63.21-26.22-63.21-58.37,28.34-58.37,63.21-58.37S458.25,1585,458.25,1617.22Z" transform="translate(0 0.38)"/></g><text class="cls-12" transform="translate(59.37 912.35) scale(0.96 1)">PRODUCTS</text><text class="cls-12" transform="translate(59.37 662.3) scale(0.96 1)">OUR</text><g class="cls-2"><path class="cls-13" d="M948.77,996.29H814.4m-33.59,0H159.37a100.78,100.78,0,0,0-16.8,200v119.08H109V1349H209.76v-33.59h-33.6V1197.84H948.77v117.57H915.18V1349H1016v-33.59H982.36V1196.33a100.66,100.66,0,0,0,0-198.53m-823,166.45a67.19,67.19,0,1,1,67.18-67.19A67.19,67.19,0,0,1,159.37,1164.25Zm731.29,0H234.28a100.2,100.2,0,0,0,0-134.37H890.66A100.18,100.18,0,0,0,890.66,1164.25Zm74.9,0a67.19,67.19,0,1,1,67.19-67.19A67.19,67.19,0,0,1,965.56,1164.25Z" transform="translate(0 0.38)"/><circle class="cls-14" cx="159.37" cy="1097.44" r="33.59"/><circle class="cls-15" cx="327.33" cy="1097.44" r="33.59"/><circle class="cls-16" cx="444.9" cy="1097.44" r="33.59"/><circle class="cls-17" cx="562.47" cy="1097.44" r="33.59"/><circle class="cls-18" cx="680.04" cy="1097.44" r="33.59"/><circle class="cls-19" cx="797.61" cy="1097.44" r="33.59"/><circle class="cls-20" cx="965.56" cy="1097.44" r="33.59"/></g><path class="cls-21" d="M139.22-.26V231.85L63.12,338.4A15.81,15.81,0,0,0,76,363.4H392.2a15.82,15.82,0,0,0,12.86-25L329,231.85V-.26H297.34V31.36H170.85V-.26Zm31.63,126.49H297.34v31.62H170.85Zm0,63.25H297.34V221.1H170.85ZM305,252.72l56.48,79.06H106.7l56.48-79.06ZM297.34,63V94.61H170.85V63Z" transform="translate(0 0.38)"/></svg>