<svg id="Layer_1" data-name="Layer 1" xmlns="http://www.w3.org/2000/svg" xmlns:xlink="http://www.w3.org/1999/xlink" viewBox="0 0 73.26 67.03"><defs><style>.cls-1{opacity:0.3;}.cls-2{fill:#7fc0ff;}.cls-3{fill:url(#linear-gradient);}.cls-4{fill:url(#linear-gradient-2);}</style><linearGradient id="linear-gradient" x1="-908.29" y1="600.89" x2="-908.22" y2="600.95" gradientTransform="matrix(213.07, 0, 0, -130.67, 193564.14, 78553.19)" gradientUnits="userSpaceOnUse"><stop offset="0" stop-color="#a9c9ff"/><stop offset="1" stop-color="#ffbbec"/></linearGradient><linearGradient id="linear-gradient-2" x1="-909.52" y1="601.45" x2="-909.58" y2="601.38" gradientTransform="matrix(184.13, 0, 0, -112.91, 167540.11, 67945.16)" gradientUnits="userSpaceOnUse"><stop offset="0" stop-color="#ffbbec"/><stop offset="1" stop-color="#a9c9ff"/></linearGradient></defs><title>industry_BG</title><g id="factory_BG_svg" data-name="factory BG svg" class="cls-1"><g id="Group_157" data-name="Group 157"><path id="Path_393" data-name="Path 393" class="cls-2" d="M59.6,84.27c-.07-.09-4.2-6-7.56-17.2a105.79,105.79,0,0,1-4.27-29.93H27.89c-.15,30.39-11.71,47-11.83,47.13l-.18.27H10.94V90.8H64.73V84.54H59.79Z" transform="translate(-10.94 -23.78)"/><path id="Path_394" data-name="Path 394" class="cls-3" d="M33.8,34.3a2.07,2.07,0,0,0,.35,0A1.91,1.91,0,0,0,36,35.7a2,2,0,0,0,1.64-.86,2,2,0,0,0,1.26.45A1.9,1.9,0,0,0,40.8,34a2.05,2.05,0,0,0,1.13.34,1.87,1.87,0,0,0,1.93-1.81,1.69,1.69,0,0,0-.51-1.21,1.82,1.82,0,0,0,.49-.82,2,2,0,0,0,.91.22,1.93,1.93,0,0,0,1.84-1.26,2,2,0,0,0,.69.12,1.88,1.88,0,0,0,1.92-1.69h.17a1.81,1.81,0,1,0,0-3.62,2,2,0,0,0-1,.28A2,2,0,0,0,45,25a2.16,2.16,0,0,0-.51-.07A2,2,0,0,0,42.72,26a2,2,0,0,0-.8-.17A1.88,1.88,0,0,0,40,27.6s0,.06,0,.1a2,2,0,0,0-1.06-.3A1.87,1.87,0,0,0,37,29.21a1.69,1.69,0,0,0,.08.5,1.68,1.68,0,0,0-.5-.07,1.91,1.91,0,0,0-1.84,1.28,2,2,0,0,0-1-.24,1.81,1.81,0,1,0,0,3.62Z" transform="translate(-10.94 -23.78)"/></g><g id="Group_158" data-name="Group 158"><path id="Path_392" data-name="Path 392" class="cls-2" d="M80.17,81.37s-9-12.64-9-36.4H54.93a83.43,83.43,0,0,1-2.27,19.74c3,11,6.93,17.32,7.81,18.65H66v3.72H84.19V81.37Z" transform="translate(-10.94 -23.78)"/><path id="Path_395" data-name="Path 395" class="cls-4" d="M59.39,42.2l.3,0a1.65,1.65,0,0,0,1.63,1.23,1.68,1.68,0,0,0,1.42-.74,1.73,1.73,0,0,0,1.09.39,1.64,1.64,0,0,0,1.61-1.15,1.75,1.75,0,0,0,1,.29,1.62,1.62,0,0,0,1.67-1.56,1.49,1.49,0,0,0-.44-1,1.44,1.44,0,0,0,.42-.71,1.7,1.7,0,0,0,.79.19A1.64,1.64,0,0,0,70.44,38a1.71,1.71,0,0,0,.59.11,1.62,1.62,0,0,0,1.66-1.46h.15a1.57,1.57,0,1,0,0-3.13,1.65,1.65,0,0,0-.87.24,1.71,1.71,0,0,0-1.34-.64,1.66,1.66,0,0,0-1.57,1,1.71,1.71,0,0,0-2,.85,1.81,1.81,0,0,0-.69-.14,1.62,1.62,0,0,0-1.67,1.57s0,.06,0,.08a1.84,1.84,0,0,0-.92-.25,1.62,1.62,0,0,0-1.67,1.56,1.21,1.21,0,0,0,.07.43,3.18,3.18,0,0,0-.43-.06,1.66,1.66,0,0,0-1.59,1.11,1.67,1.67,0,0,0-.82-.21,1.57,1.57,0,1,0,0,3.13Z" transform="translate(-10.94 -23.78)"/></g></g></svg>