<svg id="Layer_1" data-name="Layer 1" xmlns="http://www.w3.org/2000/svg" xmlns:xlink="http://www.w3.org/1999/xlink" viewBox="0 0 63.17 63.17"><defs><style>.cls-1{opacity:0.3;}.cls-2{fill:#7fc0ff;}.cls-3{fill:url(#linear-gradient);}</style><linearGradient id="linear-gradient" x1="-908.81" y1="603.13" x2="-908.76" y2="603.19" gradientTransform="matrix(241.67, 0, 0, -242.65, 219673.81, 146420.25)" gradientUnits="userSpaceOnUse"><stop offset="0" stop-color="#a9c9ff"/><stop offset="1" stop-color="#ffbbec"/></linearGradient></defs><title>service_bg</title><g id="service_svg" data-name="service svg" class="cls-1"><path id="Path_390" data-name="Path 390" class="cls-2" d="M80.5,54.12a1.8,1.8,0,0,0-2.07-1.48h0L76.27,53c-.87.14-1.67-1.65-1.67-1.65h0a27,27,0,0,0-3.85-6.15h0S69.47,43.7,70,43l1.27-1.78a1.81,1.81,0,0,0-.43-2.51h0L65.65,35a1.81,1.81,0,0,0-2.52.42l-1.26,1.78c-.51.72-2.36,0-2.36,0h0a26.79,26.79,0,0,0-7.07-1.61h0s-2-.17-2.11-1S50,32.42,50,32.42a1.82,1.82,0,0,0-2.09-1.48L41.62,32a1.8,1.8,0,0,0-1.47,2.08s.21,1.29.36,2.15-1.65,1.68-1.65,1.68h0a26.91,26.91,0,0,0-6.15,3.85h0s-1.51,1.27-2.23.76l-1.77-1.27a1.82,1.82,0,0,0-2.52.43h0l-3.68,5.17a1.81,1.81,0,0,0,.42,2.52l1.78,1.26c.72.52,0,2.36,0,2.36h0a26.79,26.79,0,0,0-1.61,7.07h0s-.17,2-1,2.11l-2.15.37a1.8,1.8,0,0,0-1.48,2.08h0l1.06,6.26a1.8,1.8,0,0,0,2.08,1.47L23.73,72c.87-.14,1.68,1.65,1.68,1.65h0a26.6,26.6,0,0,0,3.84,6.14h0S30.53,81.3,30,82L28.76,83.8a1.8,1.8,0,0,0,.42,2.51L34.35,90a1.81,1.81,0,0,0,2.51-.42h0l1.27-1.77c.51-.72,2.35,0,2.35,0h0a26.79,26.79,0,0,0,7.07,1.61h0s2,.17,2.11,1L50,92.58a1.8,1.8,0,0,0,2.07,1.48h0L58.38,93a1.8,1.8,0,0,0,1.47-2.08s-.21-1.28-.36-2.15,1.65-1.67,1.65-1.67h0a27.26,27.26,0,0,0,6.15-3.85h0s1.51-1.27,2.23-.76l1.78,1.27a1.81,1.81,0,0,0,2.51-.43l3.68-5.17a1.81,1.81,0,0,0-.42-2.52l-1.78-1.26c-.71-.51,0-2.35,0-2.35h0a27,27,0,0,0,1.61-7.08h0s.18-2,1-2.11l2.15-.36a1.82,1.82,0,0,0,1.48-2.08ZM41.79,74A14.17,14.17,0,1,1,61.54,70.7,14.17,14.17,0,0,1,41.79,74Z" transform="translate(-18.41 -30.92)"/><g id="Group_150" data-name="Group 150"><path id="Path_391" data-name="Path 391" class="cls-3" d="M54.7,61.42l-1.53-1.73.46-2.27,3.57-1a5.17,5.17,0,0,0-9,4.55,3.69,3.69,0,0,0,.19.56l-6,5.95a2.07,2.07,0,0,0,2.91,2.94h0l6-6A5.18,5.18,0,0,0,58,61.59a5.45,5.45,0,0,0,.3-1.12ZM43.87,70a1,1,0,0,1,0-2.07,1,1,0,0,1,1,1h0a1,1,0,0,1-1,1Z" transform="translate(-18.41 -30.92)"/></g></g></svg>