<svg id="Layer_1" data-name="Layer 1" xmlns="http://www.w3.org/2000/svg" xmlns:xlink="http://www.w3.org/1999/xlink" viewBox="0 0 74.79 77.18"><defs><style>.cls-1{opacity:0.3;}.cls-2{fill:#7fc0ff;fill-rule:evenodd;}.cls-3{fill:url(#linear-gradient);}</style><linearGradient id="linear-gradient" x1="-908.64" y1="603.15" x2="-908.58" y2="603.22" gradientTransform="matrix(162.59, 0, 0, -162.46, 147778.41, 98057.46)" gradientUnits="userSpaceOnUse"><stop offset="0" stop-color="#a9c9ff"/><stop offset="1" stop-color="#ffbbec"/></linearGradient></defs><title>team_bg</title><g id="Team_SVG" data-name="Team SVG" class="cls-1"><path id="Path_434" data-name="Path 434" class="cls-2" d="M49.13,23.91a2.21,2.21,0,0,0-1.46.59c-.3.29-.3.89-.3,1.47l4.42,2.94c.59.3,0,1.19-.59.89l-4.43-3.24h0l-2.35-1.42a6.15,6.15,0,0,0-1.76,1.17,4.2,4.2,0,0,0-.59,2.06l6.19,4.43c.58.29,0,1.17-.59.88L41.18,29h0l-.59-.59c-1.17.3-2.36,1.78-2.65,3.86l6.19,4.41c.59.3,0,1.18-.59.89l-6.48-4.78h0l-.89-.59a4.54,4.54,0,0,0-2.35,1.48c-.59.58-.59,1.46-.59,2.65l10.9,8L48,46.89h0v.88H47.7a12.33,12.33,0,0,1-1.78-.58l-.29-.3h0a2.16,2.16,0,0,0-.29,1.47,6.59,6.59,0,0,0-.3,2.06l3.85,1.18c4.42,1.18,16.5,5.3,17.09,5.6l6.19-10.6L70.69,41a13.72,13.72,0,0,0-4.12-5.6,64.73,64.73,0,0,0-7.08-5.6,88.22,88.22,0,0,0-10.31-5.89ZM33.28,38.05l-4.71,1.47c-1.78.59-3.54,2.36-5.3,4.42A85,85,0,0,0,18,51.65c-3,5-5.05,9.67-5.35,10a1.61,1.61,0,0,0,.88,1.48,1.33,1.33,0,0,0,1.48,0l2.65-4.42c.29-.58,1.17,0,.88.59L15.56,64h0l-1.48,2.36a6.41,6.41,0,0,0,1.18,1.47,4.24,4.24,0,0,0,2.06.59l3.85-6.48c.29-.59,1.18,0,.88.59l-4.41,7.36c.59,1.19,1.76,2.07,4.12,2.36l3.86-6.48c.3-.59,1.17,0,.88.59L21.71,74a5,5,0,0,0,1.77,2.36,8.87,8.87,0,0,0,2.65.59l7.36-12.38a27.3,27.3,0,0,0,2.06-3.24h.89v.29a12.37,12.37,0,0,1-.59,1.78,1.07,1.07,0,0,0,.29.87,4,4,0,0,0,1.19.89c.58.3,1.17.3,1.47.59l.59-1.18.88-4.12a139.78,139.78,0,0,1,3.61-14.1Zm40.6,8.29H73L63.87,62h0c-.3.59-1.18,0-.89-.59h0c.3-.88,1.18-2.65.59-3.53l-2.89-.89-.6,1.47-.88,4.43c-.93,4.7-2.41,13.8-2.41,13.8a.29.29,0,0,1-.27.3h0c-.6.58-1.48.88-1.78,1.47-.29.29-.29.29-.59.29l10,9.14.59-.59c.3-.59.88-1.19,1.18-1.77h.29l5.9-2.07c1.76-.59,3.53-2.35,5.3-4.41a69.67,69.67,0,0,0,5-7.71,81,81,0,0,0,5-10.31,1.63,1.63,0,0,0-.88-1.48,1.35,1.35,0,0,0-1.47,0L82.43,64c-.3.59-1.19,0-.89-.58l2.65-4.72h0l1.48-2.36a6.45,6.45,0,0,0-1.19-1.47,4.24,4.24,0,0,0-2-.59l-3.86,6.49c-.28.58-1.17,0-.88-.59l4.12-6.75h0l.3-.59c-.59-1.17-2.06-2.06-4.12-2.35l-3.86,6.48c-.3.59-1.18,0-.88-.59l4.12-6.74.59-.89a4.24,4.24,0,0,0-1.77-2.06,6.49,6.49,0,0,0-2.36-.29ZM36.17,64l-.59,1.18L28.52,76.64l.59,4.71c.29,1.77,1.47,3.86,3.23,6.19A44.67,44.67,0,0,0,38.83,94c4.41,4.13,8.54,7.07,8.84,7.07a2.21,2.21,0,0,0,1.46-.59,1.27,1.27,0,0,0,.3-1.47h0L45.58,95.5c-.59-.6.29-1.19.87-.89l4.13,3.86h0l2.06,1.77a4.87,4.87,0,0,0,1.84-.9,7,7,0,0,0,.88-2.06l-5.59-5c-.6-.59.29-1.18.88-.88l5.89,5.3.59.59a5,5,0,0,0,3.24-3.54l-5.6-5.3c-.59-.58.3-1.17.89-.88l5.89,5.3h0l.88.6a5.64,5.64,0,0,0,2.65-1.21A3.62,3.62,0,0,0,66,89.6L52.67,77.23h0v-.88H53c.29,0,.29,0,1.47.59.29.29.88,0,.88,0,.3,0,.89-.59,1.19-.89.58-.59.28-.89.28-1.18l-.28-.58-4.13-1.78c-4.42-1.76-13-5.3-13-5.3h0a.28.28,0,0,1-.3-.28h0Z" transform="translate(-12.61 -23.91)"/><path id="Path_435" data-name="Path 435" class="cls-3" d="M57.16,61.76l-.5-.09c-.2,0-.24-.49-.24-.49h0A6.72,6.72,0,0,0,56,59.53h0s-.17-.43,0-.55l.42-.3a.42.42,0,0,0,.09-.58l-.86-1.16a.42.42,0,0,0-.58-.11h0l-.42.3c-.16.12-.52-.18-.52-.18h0a6.63,6.63,0,0,0-1.43-.9h0s-.43-.19-.4-.39.09-.5.09-.5a.41.41,0,0,0-.34-.48h0l-1.43-.28a.43.43,0,0,0-.48.34h0s0,.3-.08.5-.49.24-.49.24h0a6.62,6.62,0,0,0-1.65.39h0s-.44.16-.56,0l-.29-.41a.42.42,0,0,0-.59-.1l-1.21.87a.42.42,0,0,0-.1.58s.18.24.3.42-.17.52-.17.52h0a5.94,5.94,0,0,0-.9,1.43h0s-.18.43-.38.4l-.51-.09a.43.43,0,0,0-.49.35h0l-.24,1.46a.44.44,0,0,0,.35.49l.51.08c.2,0,.24.49.24.49h0A5.84,5.84,0,0,0,44.27,64h0s.16.44,0,.55l-.42.3a.42.42,0,0,0-.09.59l.85,1.2a.43.43,0,0,0,.59.1l.42-.29c.17-.12.53.17.53.17h0a5.75,5.75,0,0,0,1.43.9h0s.43.19.39.4-.08.5-.08.5a.42.42,0,0,0,.34.48h0l1.46.24a.41.41,0,0,0,.48-.34h0s0-.3.09-.5.49-.24.49-.24h0a5.84,5.84,0,0,0,1.65-.39h0s.43-.16.55,0,.3.42.3.42a.41.41,0,0,0,.57.1h0l1.2-.87a.42.42,0,0,0,.1-.58h0l-.3-.41c-.12-.17.18-.52.18-.52h0a6.49,6.49,0,0,0,.9-1.43h0s.19-.42.39-.4l.5.09a.41.41,0,0,0,.48-.34h0l.24-1.46a.42.42,0,0,0-.32-.49Zm-8.95-2.67a3.3,3.3,0,1,1-.75,4.61h0A3.3,3.3,0,0,1,48.21,59.09Z" transform="translate(-12.61 -23.91)"/><circle id="Ellipse_8" data-name="Ellipse 8" cx="37.53" cy="37.87" r="1.05"/></g></svg>